<?xml version="1.0" encoding="UTF-8" standalone="no"?>
<!-- Created with Inkscape (http://www.inkscape.org/) -->

<svg
   xmlns:dc="http://purl.org/dc/elements/1.1/"
   xmlns:cc="http://creativecommons.org/ns#"
   xmlns:rdf="http://www.w3.org/1999/02/22-rdf-syntax-ns#"
   xmlns:svg="http://www.w3.org/2000/svg"
   xmlns="http://www.w3.org/2000/svg"
   xmlns:sodipodi="http://sodipodi.sourceforge.net/DTD/sodipodi-0.dtd"
   xmlns:inkscape="http://www.inkscape.org/namespaces/inkscape"
   id="svg3023"
   version="1.1"
   inkscape:version="0.48.4 r9939"
   width="1750"
   height="625"
   xml:space="preserve"
   sodipodi:docname="poul-logo.svg"><metadata
     id="metadata3029"><rdf:RDF><cc:Work
         rdf:about=""><dc:format>image/svg+xml</dc:format><dc:type
           rdf:resource="http://purl.org/dc/dcmitype/StillImage" /><dc:title /></cc:Work></rdf:RDF></metadata><defs
     id="defs3027"><clipPath
       clipPathUnits="userSpaceOnUse"
       id="clipPath3041"><path
         d="m 298.398,152.801 c -1.109,-0.031 -2.222,-0.223 -3.347,-0.625 -3.602,-2.43 -4.016,-7.305 -4.824,-11.227 -1.082,-10.211 0.312,-20.496 0.472,-30.722 0.09,-7.043 1.367,-14.149 -0.074,-21.125 -1.211,-6.672 -2.637,-13.321 -4.074,-19.954 -1.821,-9.617 -5.082,-19.203 -4.051,-29.125 0.629,-6.269 1.941,-12.738 5.352,-18.148 4.148,-5.891 11.734,-7.496 18.421,-8.523 6.461,-1.09 13.09,-0.043 19.153,2.347 6.59,2.442 12.32,6.731 16.847,12.051 7.973,8.109 17.489,14.465 26.278,21.625 5.097,4.328 11.426,6.684 17.523,9.227 8.172,3.949 18.067,5.898 23.875,13.449 3.18,4.211 5.875,9.504 4.875,14.926 -3.211,6.168 -11,6.742 -15.949,10.921 -6.391,5.293 -12.047,11.633 -16.324,18.75 -4.481,7.493 -1.887,16.836 -5.324,24.625 -1.711,3.692 -5.993,4.028 -9.551,3.829 -0.942,-2.696 -2.266,-5.219 -3.903,-7.528 l -5.75,0.375 -46.5,7.278 c 0.149,0.867 0.301,1.718 0.5,2.574 -4.16,2.234 -8.804,5.137 -13.625,5 z"
         id="path3043" /></clipPath><linearGradient
       x1="373.71536"
       y1="589.49512"
       x2="466.76624"
       y2="452.69257"
       gradientUnits="userSpaceOnUse"
       gradientTransform="matrix(0.8,0,0,-0.8,0,500)"
       spreadMethod="pad"
       id="linearGradient3047"><stop
         style="stop-opacity:1;stop-color:#ffa500"
         offset="0"
         id="stop3049" /><stop
         style="stop-opacity:1;stop-color:#ffe200"
         offset="1"
         id="stop3051" /></linearGradient><clipPath
       clipPathUnits="userSpaceOnUse"
       id="clipPath3059"><path
         d="m 253.648,341.648 c -4.777,-3.918 -11.148,-4.976 -16.199,-8.5 6.391,-3.976 12.301,-8.918 16.403,-15.296 2.226,-4.102 3.777,-8.571 4.699,-13.153 0.539,-3.879 0.144,-7.836 -0.824,-11.625 -1.903,-4.219 -3.766,-8.554 -6.625,-12.222 -1.352,-2.024 -4.051,-1.633 -6.153,-1.852 -26.301,0.172 -52.597,0.102 -78.898,0.051 -1.52,0.058 -3.09,0.043 -4.551,0.472 -4.949,4.672 -7.102,11.352 -8.949,17.704 -5.832,-11.211 -8.031,-23.817 -10.75,-36.028 -0.262,-0.98 -0.629,-1.91 -1.102,-2.801 -6.777,-12.617 -13.293,-25.378 -19.773,-38.148 2.64,-0.031 5.273,-0.055 7.926,-0.125 -5.68,-9.09 -9.032,-20.176 -6.551,-30.875 -3.449,-0.129 -6.903,-0.262 -10.352,-0.352 -0.808,-6.5 -1.484,-13.007 -1.773,-19.546 -2.25,1.597 -4.672,3.324 -5.551,6.074 -2.301,6.258 -2.59,13.035 -3.051,19.625 0.141,8.879 2.805,17.527 5.875,25.801 4.742,10.109 9.867,20.027 14.977,29.949 -8.961,-11.5 -16.727,-24.125 -21.324,-38.028 -2.782,-6.91 -3.696,-14.398 -3.875,-21.796 -0.153,-5.282 -0.067,-10.618 1.171,-15.778 1.532,-6.211 5.497,-11.508 9.926,-16 2.539,-2.398 5.082,-4.789 7.801,-7 14.012,-11.051 28.27,-21.789 42.199,-32.949 4.582,-4.238 9.145,-9.055 10.875,-15.227 1.039,-3.386 -0.086,-6.902 -1.324,-10.074 -3.328,-6 -10.75,-6.82 -16.801,-8.097 2.742,-4.532 5.879,-8.786 8.903,-13.125 3.429,-3.723 6.183,-8.497 11.171,-10.329 10.911,-4.57 23.082,-4.402 34.704,-4.222 0.91,12.937 -5.657,24.453 -10.329,36.023 -2.5,6 -4.082,12.317 -5.574,18.625 -0.527,2.692 -0.902,5.406 -1.176,8.125 -0.039,0.481 -0.125,1.422 -0.171,1.903 -1.153,12.238 -1.348,24.679 0.023,36.898 0.941,4.238 0.375,8.852 2.574,12.75 4.063,10.039 14.832,14.969 24.602,17.801 9.359,3.168 19.437,2.836 29.148,2.125 12.129,-1.992 25.707,-5.504 33.125,-16.176 1.563,-2.828 3.242,-5.766 3.403,-9.074 0.378,-5.02 1.578,-9.981 1.398,-15.051 0.211,-2.699 0.281,-5.43 0.051,-8.148 l 0.699,-0.875 c 0.441,-7.704 0.449,-15.461 -1.051,-23.051 l -0.051,-0.403 c -1.609,-10.57 -3.878,-21.273 -8.898,-30.824 5.172,4.141 9.57,9.164 14.148,13.926 -0.41,12.289 -1.628,24.559 -1.097,36.852 0.949,5.199 1.574,11.242 5.824,14.921 4.969,2.981 11.211,1.172 16.102,-1.097 1.769,18.847 1.695,37.863 0.171,56.722 -0.707,7.172 -2.199,14.243 -4.199,21.153 -3.508,10.777 -7.59,21.711 -14.648,30.699 -2.242,3.059 -5.629,5.02 -7.949,7.949 -0.93,7.93 -3.141,15.625 -5.352,23.278 -2.359,8.57 -5.434,16.953 -9.477,24.875 -3.929,8.148 -8.218,16.187 -13.5,23.546 z m -87.847,-2.949 c -0.86,-3.879 -0.922,-7.847 -0.801,-11.801 2.68,2.153 5.469,4.188 8.602,5.676 -2.012,2.723 -4.922,4.477 -7.801,6.125 z m 37.301,-86.875 c 6.636,0.012 13.281,-0.519 19.824,-1.551 16.211,-2.726 32.312,-8.644 44.972,-19.375 0.872,-0.757 1.727,-1.507 2.579,-2.296 -3.442,-0.692 -6.954,-0.907 -10.454,-0.778 -36.019,0.071 -72.039,-0.054 -108.046,0.028 -5.192,0.07 -10.481,-0.571 -15.551,0.847 7.051,6.313 15.179,11.391 23.949,14.949 13.531,5.536 28.117,8.149 42.727,8.176 z"
         id="path3061" /></clipPath><linearGradient
       x1="217.05043"
       y1="445.08643"
       x2="245.31309"
       y2="548.81634"
       gradientUnits="userSpaceOnUse"
       gradientTransform="matrix(0.8,0,0,-0.8,0,500)"
       spreadMethod="pad"
       id="linearGradient3065"><stop
         style="stop-opacity:1;stop-color:#c5c7c9"
         offset="0"
         id="stop3067" /><stop
         style="stop-opacity:1;stop-color:#ffffff"
         offset="1"
         id="stop3069" /></linearGradient><clipPath
       clipPathUnits="userSpaceOnUse"
       id="clipPath3077"><path
         d="m 260.5,301.969 c 0,-21.531 -24.805,-38.985 -55.398,-38.985 -30.598,0 -55.403,17.454 -55.403,38.985 0,21.527 24.805,38.98 55.403,38.98 30.593,0 55.398,-17.453 55.398,-38.98 z"
         id="path3079" /></clipPath><linearGradient
       x1="181.75888"
       y1="201.84259"
       x2="181.69289"
       y2="239.67885"
       gradientUnits="userSpaceOnUse"
       gradientTransform="matrix(2.764695,0,0,-1.758922,-298.53108,685.16747)"
       spreadMethod="pad"
       id="linearGradient3083"><stop
         style="stop-opacity:1;stop-color:#f7f7f7"
         offset="0"
         id="stop3085" /><stop
         style="stop-opacity:1;stop-color:#d5d6d8"
         offset="1"
         id="stop3087" /></linearGradient><clipPath
       clipPathUnits="userSpaceOnUse"
       id="clipPath3101"><path
         d="m 211.027,480.074 c -8.363,0.004 -16.746,-1.414 -24.613,-4.238 -6.879,-2.18 -13.144,-5.93 -18.516,-10.688 -1.96,-1.828 -3.718,-3.847 -5.316,-5.984 -1.773,-2.519 -3.125,-5.32 -4.203,-8.195 -0.914,-2.949 -1.258,-6.012 -1.32,-9.098 0.144,-2.785 0.753,-5.531 1.605,-8.195 1.07,-3.063 2.762,-5.867 4.617,-8.528 2.614,-3.668 6.504,-6.152 9.442,-9.531 2.156,-0.328 4.293,-0.719 6.429,-1.183 3.032,-1.067 5.602,-3.161 7.106,-5.985 10.168,-0.187 20.402,0.371 30.527,-0.617 1.699,2.609 3.91,4.84 6.379,6.73 6.867,4.891 16.656,4.415 23.68,0.079 4.261,3.183 8.824,6.226 11.929,10.636 1.868,2.641 3.532,5.414 4.59,8.477 0.848,2.609 1.391,5.324 1.555,8.066 -0.063,2.95 -0.352,5.899 -1.191,8.735 -1.059,3.023 -2.45,5.937 -4.305,8.554 -1.598,2.161 -3.348,4.196 -5.32,6.012 -5.34,4.781 -11.633,8.52 -18.489,10.688 -7.871,2.843 -16.222,4.261 -24.586,4.265 z"
         id="path3103" /></clipPath><linearGradient
       x1="261.00827"
       y1="24.189529"
       x2="261.73743"
       y2="110.06302"
       gradientUnits="userSpaceOnUse"
       gradientTransform="matrix(0.829901,0,0,-0.822112,-7.88591,500.55073)"
       spreadMethod="pad"
       id="linearGradient3107"><stop
         style="stop-opacity:1;stop-color:#cecece"
         offset="0"
         id="stop3109" /><stop
         style="stop-opacity:1;stop-color:#101010"
         offset="1"
         id="stop3111" /></linearGradient><clipPath
       clipPathUnits="userSpaceOnUse"
       id="clipPath3151"><path
         d="m 233.102,402.227 c -2.2,-0.094 -3.762,-2.086 -5.102,-3.676 -0.93,-1.922 -1.199,-4.051 -1.352,-6.153 0.282,-1.32 0.555,-2.628 0.829,-3.949 l 0.421,0 c 0.571,-5.449 10.649,-5.433 11.176,-0.023 l 0.5,-0.028 c 0.281,1.34 0.574,2.696 0.875,4.028 -0.219,2.109 -0.433,4.246 -1.375,6.176 -1.437,1.41 -2.699,3.589 -5,3.546 -0.34,0.075 -0.66,0.09 -0.972,0.079 z"
         id="path3153" /></clipPath><linearGradient
       x1="292.75857"
       y1="141.96603"
       x2="292.40451"
       y2="122.21513"
       gradientUnits="userSpaceOnUse"
       gradientTransform="matrix(0.8,0,0,-0.8,0,500)"
       spreadMethod="pad"
       id="linearGradient3157"><stop
         style="stop-opacity:1;stop-color:#151515"
         offset="0"
         id="stop3159" /><stop
         style="stop-opacity:1;stop-color:#cbcbcb"
         offset="1"
         id="stop3161" /></linearGradient><clipPath
       clipPathUnits="userSpaceOnUse"
       id="clipPath3173"><path
         d="m 172.125,399.273 c -1.613,-0.117 -3.125,-0.964 -4.023,-2.699 l -0.278,0.125 c -0.777,-1.961 -1.074,-4.051 -1.176,-6.148 0.34,-1.41 0.766,-2.805 1.227,-4.176 1.148,-3.93 5.664,-3.254 8.824,-2.977 1.41,0.102 2.442,1.762 2.352,3.102 l 0.375,0 c 0.398,2.148 0.875,4.395 0.125,6.523 -0.61,1.192 -1.192,2.372 -1.801,3.551 -1.312,1.817 -3.547,2.852 -5.625,2.699 z"
         id="path3175" /></clipPath><linearGradient
       x1="216.89984"
       y1="143.25977"
       x2="216.13011"
       y2="126.51444"
       gradientUnits="userSpaceOnUse"
       gradientTransform="matrix(0.8,0,0,-0.8,0,500)"
       spreadMethod="pad"
       id="linearGradient3179"><stop
         style="stop-opacity:1;stop-color:#0a0a0a"
         offset="0"
         id="stop3181" /><stop
         style="stop-opacity:1;stop-color:#bebebe"
         offset="1"
         id="stop3183" /></linearGradient><clipPath
       clipPathUnits="userSpaceOnUse"
       id="clipPath3217"><path
         d="m 200.426,380.75 c -2.641,-0.039 -5.266,-0.43 -7.801,-1.301 -8.609,-2.789 -15.18,-9.304 -21.648,-15.324 -2.711,-2.699 -5.606,-5.363 -7.426,-8.773 -1.231,-2.383 -0.266,-5.036 0.375,-7.426 2.597,-0.141 5.152,-0.688 7.574,-1.625 3.871,-3.52 7.922,-7.555 13.551,-7.574 13.109,-0.68 27.222,0.472 38.523,7.824 7.11,4.57 13.856,10.164 22.176,12.375 0.461,-0.86 0.93,-1.731 1.398,-2.602 -4.308,-1.777 -8.707,-3.562 -12.398,-6.472 -4.648,-2.43 -8.594,-6.067 -13.375,-8.329 -7.41,-4.136 -15.953,-5.293 -24.273,-6.074 -6.332,-0.277 -12.965,-0.836 -18.977,1.574 -4.609,1.692 -7.086,7.18 -12.375,7.301 2.012,-4.211 7.254,-5.043 9.727,-8.875 5.046,-7.129 12.293,-12.824 20.773,-15.176 6.77,-1.617 13.57,0.743 20.102,2.352 9.058,3.09 14.851,11.496 23.375,15.574 5.328,2.84 12.613,3.985 14.625,10.625 0.636,4.051 1.058,8.176 1.699,12.176 -2.602,5.41 -9.422,4.891 -14.301,6.602 -7.762,1.789 -14.676,6.183 -22.273,8.222 -1.614,1.641 -3.993,1.926 -6.051,2.676 -4.153,1.387 -8.602,2.312 -13,2.25 z"
         id="path3219" /></clipPath><linearGradient
       x1="250.9268"
       y1="149.41319"
       x2="253.08119"
       y2="224.98186"
       gradientUnits="userSpaceOnUse"
       gradientTransform="matrix(0.8,0,0,-0.8,0,500)"
       spreadMethod="pad"
       id="linearGradient3223"><stop
         style="stop-opacity:1;stop-color:#ffa900"
         offset="0"
         id="stop3225" /><stop
         style="stop-opacity:1;stop-color:#ffe100"
         offset="1"
         id="stop3227" /></linearGradient><clipPath
       clipPathUnits="userSpaceOnUse"
       id="clipPath3241"><path
         d="m 201.625,378.051 c -3.758,-0.086 -7.492,-0.805 -10.977,-2.227 l -0.421,-0.199 c -0.223,-2.629 -2.832,-3.738 -5.153,-3.148 -2.379,-1.84 -4.578,-3.911 -6.648,-6.102 -0.641,-0.68 -1.266,-1.363 -1.875,-2.074 -1.11,-1.692 -1.985,-3.555 -2.278,-5.574 2.364,-3.301 6.375,-4.563 10.028,-5.852 5.23,-0.5 10.461,-0.164 15.699,-0.273 3.859,0 7.863,-0.278 11.574,1.023 3.16,1.109 5.813,3.211 8.449,5.199 2.723,2.063 5.622,4.016 7.5,6.926 -0.078,0.551 -0.242,1.648 -0.324,2.199 -2.82,3.403 -7.008,5.305 -10.898,7.227 l -0.528,0.222 c -4.437,1.829 -9.316,2.762 -14.148,2.653 z m 9.574,-2.625 c 1.289,0.004 2.59,-0.028 3.875,-0.102 0.531,-4.398 -4.633,-3.176 -6.722,-1.324 l -1,1.352 c 1.285,0.039 2.562,0.07 3.847,0.074 z"
         id="path3243" /></clipPath><linearGradient
       x1="249.18758"
       y1="153.32567"
       x2="249.19812"
       y2="182.95203"
       gradientUnits="userSpaceOnUse"
       gradientTransform="matrix(0.8,0,0,-0.8,0,500)"
       spreadMethod="pad"
       id="linearGradient3247"><stop
         style="stop-opacity:1;stop-color:#ffecc4"
         offset="0"
         id="stop3249" /><stop
         style="stop-opacity:1;stop-color:#ffcb38"
         offset="1"
         id="stop3251" /></linearGradient><clipPath
       clipPathUnits="userSpaceOnUse"
       id="clipPath3341"><path
         d="m 332,162.125 c -2.5,0.059 -4.797,-1.164 -6.926,-2.324 -1.629,-1.653 -3.062,-3.465 -4.375,-5.375 -0.308,-0.731 -0.937,-2.18 -1.25,-2.903 l -0.426,0.079 c 0.172,-1.641 0.426,-3.286 0.727,-4.926 0.859,-1.949 2.18,-3.625 3.5,-5.278 l 0.625,0.028 c 0.77,-2.949 4.301,-4.235 7.102,-3.926 5.699,0.25 11.593,-0.738 17.074,1.301 1.48,0.679 3.789,0.695 4.25,2.625 3.308,0.078 5.773,2.91 7.875,5.199 0.429,1.398 0.844,2.816 1.222,4.227 -0.488,1.32 -0.964,2.628 -1.421,3.949 l -0.426,-0.051 c -3.742,2.809 -8.313,3.855 -12.699,5.176 -4.942,0.777 -9.883,1.648 -14.852,2.199 z"
         id="path3343" /></clipPath><linearGradient
       x1="417.6734"
       y1="453.21847"
       x2="417.4006"
       y2="421.87466"
       gradientUnits="userSpaceOnUse"
       gradientTransform="matrix(0.8,0,0,-0.8,0,500)"
       spreadMethod="pad"
       id="linearGradient3347"><stop
         style="stop-opacity:1;stop-color:#000000"
         offset="0"
         id="stop3349" /><stop
         style="stop-opacity:1;stop-color:#ececec"
         offset="1"
         id="stop3351" /></linearGradient><clipPath
       clipPathUnits="userSpaceOnUse"
       id="clipPath3359"><path
         d="m 87,158.102 c -4.922,0.066 -9.988,-2.575 -12.051,-7.079 -2.879,-4.949 -6.109,-9.722 -9.847,-14.074 -2.981,-3.449 -7.473,-6.027 -12.153,-5.551 -7.258,0.774 -15.039,1.688 -21.898,-1.421 -3.18,-1.161 -3.992,-4.973 -4.301,-7.954 0.32,-6.078 1.102,-12.117 1.5,-18.199 0.449,-6.929 1.012,-13.871 1.5,-20.801 0.52,-5.75 -2.648,-10.832 -3.898,-16.273 l -0.403,-0.102 c -1.469,-4.82 -3.863,-9.488 -4.125,-14.597 -0.09,-2.84 2.227,-5.172 4.926,-5.653 12.07,-2.687 24.125,-5.539 36.125,-8.5 7.129,-2.238 14.414,-3.882 21.574,-6.023 l 0.301,0.199 c 5.809,-2.539 12.047,-4.043 17.727,-6.972 13.418,-6.872 28.851,-11.098 43.972,-8.727 7.621,1.102 13.957,6.52 17.477,13.199 3.09,5.641 6.203,12.317 4.125,18.824 -2.223,7.493 -6.09,14.364 -9.949,21.102 -3.852,6.211 -7.641,12.48 -12,18.352 -5.071,7.41 -10.125,14.839 -15.278,22.199 -5.34,8.219 -10.57,16.5 -16,24.648 -5.097,8.77 -12.16,16.481 -21,21.551 -1.867,1.227 -4.086,1.82 -6.324,1.852 z"
         id="path3361" /></clipPath><linearGradient
       x1="197.54131"
       y1="591.07709"
       x2="41.968571"
       y2="471.71298"
       gradientUnits="userSpaceOnUse"
       gradientTransform="matrix(0.8,0,0,-0.8,0,500)"
       spreadMethod="pad"
       id="linearGradient3365"><stop
         style="stop-opacity:1;stop-color:#ffa500"
         offset="0"
         id="stop3367" /><stop
         style="stop-opacity:1;stop-color:#ffeb00"
         offset="1"
         id="stop3369" /></linearGradient><clipPath
       clipPathUnits="userSpaceOnUse"
       id="clipPath3377"><path
         d="m 90.051,148.176 c -4.387,0.101 -8.313,-2.93 -11.403,-5.824 -2.949,-3.75 -5.168,-8.043 -8.199,-11.75 -1.769,-1.911 -3.683,-3.766 -6.023,-4.977 -6.039,-3.301 -13.512,0.148 -19.449,-3.5 -2.661,-1.449 -3.836,-4.41 -4.329,-7.25 -0.019,-1.551 0.024,-3.105 0.102,-4.676 0.371,-2.269 0.945,-4.535 1.824,-6.676 2.449,-3.679 5.645,-6.753 8.977,-9.625 3.238,-2.847 6.758,-5.367 10.25,-7.898 0.789,-0.578 1.586,-1.145 2.375,-1.727 4.398,-3.089 9.058,-5.812 13.551,-8.773 5.527,-3.539 11.293,-6.711 16.972,-10 4.121,-2.43 8.321,-4.711 12.551,-6.949 1.672,-0.86 3.371,-1.699 5,-2.653 3.199,-2.058 6.496,-3.953 9.875,-5.722 3.52,-2.051 7.535,-3.617 11.676,-2.778 6.39,1.18 12.621,3.161 19.051,4.153 -0.762,4.41 -2.383,8.605 -4.403,12.574 -0.32,0.648 -0.644,1.281 -0.972,1.898 -2.114,3.961 -3.891,8.079 -6.102,11.977 -1.18,2.109 -2.395,4.184 -3.625,6.273 -1.09,1.864 -2.211,3.723 -3.352,5.551 -2.269,3.653 -4.386,7.391 -6.648,11.051 -0.781,1.281 -1.531,2.57 -2.301,3.852 -1.008,1.707 -2.043,3.421 -3.074,5.125 -1.891,3.128 -3.816,6.222 -5.824,9.273 -2.391,3.66 -4.723,7.324 -6.949,11.074 l -0.125,-0.097 c -1.524,2.32 -3.063,4.617 -4.704,6.847 -3.238,4.653 -7.003,9.586 -12.824,10.977 -0.644,0.152 -1.273,0.234 -1.898,0.25 z"
         id="path3379" /></clipPath><linearGradient
       x1="106.62389"
       y1="444.51471"
       x2="175.60527"
       y2="562.16138"
       gradientUnits="userSpaceOnUse"
       gradientTransform="matrix(0.8,0,0,-0.8,0,500)"
       spreadMethod="pad"
       id="linearGradient3383"><stop
         style="stop-opacity:1;stop-color:#fffbd3"
         offset="0"
         id="stop3385" /><stop
         style="stop-opacity:1;stop-color:#ffb204"
         offset="1"
         id="stop3387" /></linearGradient><clipPath
       clipPathUnits="userSpaceOnUse"
       id="clipPath3415"><path
         d="m 301.699,146.375 c -1.125,-0.059 -2.238,-0.316 -3.347,-0.875 -3.141,-2.41 -3.551,-6.785 -4.102,-10.426 -0.172,-3 -0.012,-6 0.25,-9 0.141,-1.75 0.289,-3.515 0.449,-5.273 0.289,-2.692 0.68,-5.36 1,-8.051 0.031,-0.391 0.121,-1.184 0.153,-1.574 0.187,-2.039 0.367,-4.086 0.5,-6.125 0.117,-2.352 0.179,-4.699 0.148,-7.051 -0.07,-2.031 -0.227,-4.055 -0.477,-6.074 -0.398,-2.672 -0.945,-5.324 -1.472,-7.977 -0.41,-2.008 -0.824,-4.004 -1.227,-6.023 -0.59,-2.992 -1.164,-5.985 -1.773,-8.977 -0.481,-2.379 -0.942,-4.773 -1.352,-7.176 -0.269,-1.507 -0.504,-3.027 -0.773,-4.546 -0.371,-1.993 -0.797,-3.965 -1.125,-5.977 -1.332,-7.559 -0.992,-16.969 4.898,-22.602 6.321,-0.82 12.699,-1.082 19.051,-1.671 3.059,0.418 7.148,-0.543 9.25,2.347 2.84,3.91 3.895,8.746 4.625,13.426 0.078,0.672 0.262,2.004 0.352,2.676 -0.34,3.898 -1.375,7.683 -2.278,11.472 -0.82,3.563 -1.289,7.204 -1.148,10.852 0.347,3.109 1.023,6.172 1.773,9.199 0.391,1.571 0.821,3.137 1.301,4.676 0.988,2.828 2.301,5.566 3.852,8.125 1.66,2.539 3.601,4.852 5.625,7.102 2.078,2.32 4.187,4.609 6.347,6.847 0.371,0.379 1.129,1.16 1.5,1.551 1.813,1.852 3.571,3.73 5.449,5.5 2.473,2.238 5.086,4.355 7.227,6.926 3.352,3.668 5.762,9.633 1.801,13.773 -3.602,-2.859 -7.5,-5.738 -12.153,-6.5 -6.828,-1.449 -13.882,-0.199 -20.421,1.949 -5.063,2.082 -10.872,3.993 -14,8.801 -0.43,2.34 -0.582,4.692 -0.454,7.051 -2.714,2.004 -6.066,3.797 -9.449,3.625 z"
         id="path3417" /></clipPath><linearGradient
       x1="406.68674"
       y1="452.24393"
       x2="381.15872"
       y2="589.64148"
       gradientUnits="userSpaceOnUse"
       gradientTransform="matrix(0.8,0,0,-0.8,0,500)"
       spreadMethod="pad"
       id="linearGradient3421"><stop
         style="stop-opacity:1;stop-color:#fff6d4"
         offset="0"
         id="stop3423" /><stop
         style="stop-opacity:1;stop-color:#ffab02"
         offset="1"
         id="stop3425" /></linearGradient><clipPath
       clipPathUnits="userSpaceOnUse"
       id="clipPath3437"><path
         d="m 135.352,132.102 c 0.878,-2.75 1.957,-5.461 2.898,-8.204 l 0.148,-0.046 c 0.571,-1.993 1.293,-3.942 2.102,-5.852 0.82,-2.809 2.137,-5.441 3.324,-8.102 1.711,-4.976 4.727,-9.867 9.574,-12.296 3.082,-1.852 7.383,-1.766 10,0.875 1.723,2.476 1.196,5.511 -0.324,7.921 l -0.222,0.051 c -2.243,4.231 -5.18,8.055 -8.801,11.176 l -0.25,-0.023 c -5.973,5.039 -11.86,10.289 -18.449,14.5 z"
         id="path3439" /></clipPath><linearGradient
       x1="173.05182"
       y1="463.33633"
       x2="190.56346"
       y2="499.83252"
       gradientUnits="userSpaceOnUse"
       gradientTransform="matrix(0.8,0,0,-0.8,0,500)"
       spreadMethod="pad"
       id="linearGradient3443"><stop
         style="stop-opacity:1;stop-color:#a7a7a7"
         offset="0"
         id="stop3445" /><stop
         style="stop-opacity:1;stop-color:#151515"
         offset="1"
         id="stop3447" /></linearGradient><clipPath
       clipPathUnits="userSpaceOnUse"
       id="clipPath3491"><path
         d="m 199.742,40.875 0.086,-9.789 1.289,-4.207 4.723,-6.441 6.695,-4.465 19.41,-4.981 24.645,3.52 9.273,5.84 4.981,6.699 1.976,10.133 -7.558,0.515 -65.52,3.176 z"
         id="path3493" /></clipPath><linearGradient
       x1="249.17715"
       y1="592.58276"
       x2="341.52505"
       y2="592.58276"
       gradientUnits="userSpaceOnUse"
       gradientTransform="matrix(0.8,0,0,-0.8,0,500)"
       spreadMethod="pad"
       id="linearGradient3497"><stop
         style="stop-opacity:1;stop-color:#393636"
         offset="0"
         id="stop3499" /><stop
         style="stop-opacity:1;stop-color:#b1b0b0"
         offset="0.25"
         id="stop3501" /><stop
         style="stop-opacity:1;stop-color:#fcfcfc"
         offset="0.5"
         id="stop3503" /><stop
         style="stop-opacity:1;stop-color:#e3e3e3"
         offset="0.75"
         id="stop3505" /><stop
         style="stop-opacity:1;stop-color:#494646"
         offset="1"
         id="stop3507" /></linearGradient><clipPath
       clipPathUnits="userSpaceOnUse"
       id="clipPath3515"><path
         d="m 203.949,35.98 5.496,-5.668 6.614,-3.949 6.613,-1.804 5.406,-0.86 7.129,0 8.586,0.774 4.469,1.289 7.984,3.347 9.703,7.817 -2.918,3.949 -55.82,2.75 -7.727,-2.148 4.465,-5.497 z"
         id="path3517" /></clipPath><linearGradient
       x1="337.25974"
       y1="583.88666"
       x2="249.21107"
       y2="583.02936"
       gradientUnits="userSpaceOnUse"
       gradientTransform="matrix(0.84092379,0,0,-0.8,-10.204553,500)"
       spreadMethod="pad"
       id="linearGradient3521"><stop
         style="stop-opacity:1;stop-color:#807f7f"
         offset="0"
         id="stop3523" /><stop
         style="stop-opacity:1;stop-color:#d9d8d8"
         offset="0.232235"
         id="stop3525" /><stop
         style="stop-opacity:1;stop-color:#ffffff"
         offset="0.505861"
         id="stop3527" /><stop
         style="stop-opacity:1;stop-color:#949393"
         offset="0.816648"
         id="stop3529" /><stop
         style="stop-opacity:1;stop-color:#4f4d4d"
         offset="1"
         id="stop3531" /></linearGradient><linearGradient
       x1="373.71536"
       y1="589.49512"
       x2="466.76624"
       y2="452.69257"
       gradientUnits="userSpaceOnUse"
       gradientTransform="matrix(0.8,0,0,-0.8,0,500)"
       spreadMethod="pad"
       id="linearGradient3047-4"><stop
         style="stop-color:#ffbb00;stop-opacity:1;"
         offset="0"
         id="stop3049-0" /><stop
         style="stop-opacity:1;stop-color:#ffe200"
         offset="1"
         id="stop3051-5" /></linearGradient></defs><sodipodi:namedview
     pagecolor="#000000"
     bordercolor="#666666"
     borderopacity="1"
     objecttolerance="10"
     gridtolerance="10"
     guidetolerance="10"
     inkscape:pageopacity="0.5254902"
     inkscape:pageshadow="2"
     inkscape:window-width="1920"
     inkscape:window-height="1005"
     id="namedview3025"
     showgrid="false"
     inkscape:zoom="0.7071068"
     inkscape:cx="855.7523"
     inkscape:cy="360.87507"
     inkscape:window-x="-9"
     inkscape:window-y="-9"
     inkscape:window-maximized="1"
     inkscape:current-layer="layer1"
     showguides="true"
     inkscape:guide-bbox="true" /><g
     style="display:inline"
     transform="matrix(1.25,0,0,-1.25,0,625)"
     inkscape:label="scritta"
     inkscape:groupmode="layer"
     id="g5712"><g
       id="g5714"><g
         id="g5716"
         clip-path="url(#clipPath3101)"><g
           id="g5718" /></g></g><path
       d="m 775.07,439.27 c 23.149,3.32 47.68,2.23 69.258,-7.461 8.32,-3.778 16.043,-8.778 23.024,-14.661 4.82,-4.519 9.359,-9.347 13.476,-14.527 4.453,-6.223 8.293,-12.871 11.344,-19.891 2.84,-6.539 4.648,-13.46 6.258,-20.378 3.371,-17.082 3.011,-34.672 0.73,-51.864 1.801,8.391 3.711,16.774 5.512,25.16 0.668,2.942 1.379,5.872 1.957,8.832 0.57,2.532 1.172,5.059 1.723,7.59 0.476,2.129 0.968,4.25 1.457,6.371 0.582,2.559 1.171,5.118 1.711,7.7 0.101,0.468 0.3,1.418 0.402,1.89 16.34,-0.031 32.68,0.028 49.019,-0.011 l -0.261,-1.18 c -0.321,-1.418 -0.621,-2.84 -0.918,-4.262 -0.153,-0.637 -0.434,-1.918 -0.582,-2.558 -0.211,-0.93 -0.41,-1.872 -0.602,-2.801 -0.207,-0.918 -0.406,-1.84 -0.59,-2.77 -0.316,-1.289 -0.566,-2.578 -0.847,-3.879 -7.231,-32.879 -14.43,-65.769 -21.571,-98.672 -1.289,-7.339 -3.8,-15 -1.429,-22.398 0.859,-2.211 2.058,-4.27 3.507,-6.148 1.082,-1.133 2.243,-2.18 3.454,-3.204 1.539,-0.937 3.168,-1.707 4.859,-2.378 0.769,-0.129 2.301,-0.399 3.059,-0.532 2.152,-0.207 4.32,-0.199 6.48,0.032 10.91,1.789 19.73,9.378 26.75,17.48 9.762,11.238 14.328,25.84 17.371,40.148 6.75,31.043 13.52,62.071 20.32,93.09 16.231,0.071 32.457,0.012 48.7,0.063 4.757,22.98 9.48,45.969 14.269,68.937 17.352,0.063 34.692,0.043 52.039,0.032 l -0.238,-1.192 c -0.301,-1.406 -0.582,-2.816 -0.859,-4.226 -0.133,-0.614 -0.403,-1.84 -0.532,-2.454 -0.23,-1.039 -0.441,-2.07 -0.64,-3.109 -0.192,-0.867 -0.371,-1.73 -0.532,-2.598 -0.359,-1.582 -0.66,-3.152 -0.976,-4.73 C 1117.988,355.148 1104.871,291.57 1091.719,228 l 6.371,0 c 0.762,0 2.281,0.012 3.039,0.012 l 2.699,0 c 0.844,0 2.531,0 3.371,-0.012 1.821,0.012 3.653,0.012 5.492,0.012 35.778,0.027 71.559,0.019 107.34,0.008 l -0.402,-1.801 c -0.098,-0.43 -0.301,-1.297 -0.399,-1.731 -0.269,-1.187 -0.531,-2.386 -0.761,-3.59 -0.231,-1.019 -0.449,-2.039 -0.649,-3.058 -0.261,-1.078 -0.468,-2.18 -0.699,-3.262 -2.109,-9.519 -4.101,-19.058 -6.18,-28.578 -55.519,-0.012 -111.043,0.031 -166.562,-0.02 -2.551,0.032 -5.098,0.032 -7.629,-0.011 -1.93,0.011 -3.84,0.019 -5.738,0.031 8.777,42.18 17.468,84.379 26.199,126.57 1.789,7.321 2.48,14.942 5.09,22.039 -0.461,0.711 -0.91,1.422 -1.352,2.129 1.223,-2.578 -0.347,-5.129 -0.789,-7.66 -10.672,-47.687 -21.359,-95.379 -32.031,-143.066 -9.988,-0.024 -19.969,0.019 -29.949,-0.032 -1.352,0.008 -2.692,0.02 -4.008,0.008 -1.363,0 -2.711,0 -4.043,-0.008 -2.617,0 -5.231,0.098 -7.828,0.071 0.39,1.82 0.758,3.648 1.148,5.48 0.442,2.141 0.879,4.278 1.34,6.41 0.852,4.02 1.711,8.039 2.492,12.071 -10.871,-10.762 -23.652,-20.071 -38.41,-24.621 -8.531,-2.731 -17.543,-3.629 -26.461,-3.289 -5.019,0.679 -10.039,1.589 -14.769,3.437 -3.352,1.75 -6.629,3.652 -9.653,5.922 -2.847,2.809 -5.508,5.801 -7.797,9.078 -1.402,2.609 -2.793,5.223 -3.882,7.973 -1.399,3.84 -2.348,7.847 -2.809,11.91 -0.352,3.269 -0.578,6.547 -0.5,9.828 0.078,1.91 0.23,3.82 0.43,5.73 0.57,4.161 1.379,8.301 2.011,12.461 2.481,13.098 5.809,26.028 8.387,39.11 -5.738,-18.699 -14.308,-36.629 -25.957,-52.391 -10.93,-14.711 -24.832,-27.25 -40.82,-36.238 -26.102,-14.922 -57.379,-19.66 -86.973,-15.371 -13.008,2.168 -25.726,6.519 -36.898,13.621 -6.289,4.316 -12.168,9.199 -17.68,14.476 -8.301,8.93 -14.66,19.532 -18.84,30.981 -5.16,13.941 -7.91,28.832 -7.621,43.723 0.051,1.968 0.133,3.937 0.223,5.91 0.039,0.859 0.117,2.566 0.16,3.429 0.129,1.821 0.34,3.637 0.547,5.457 0.172,1.813 0.34,3.614 0.551,5.411 1.261,8.793 3.3,17.429 5.402,26.043 -5.692,-13.372 -14.652,-25.473 -26.5,-33.993 -8.121,-6.058 -17.582,-10.109 -27.391,-12.468 -24.16,-6.282 -49.34,-4.84 -74.051,-5.141 -7.089,-0.25 -14.378,0.488 -21.332,-0.328 -6.66,-31.531 -13.07,-63.113 -19.628,-94.66 -12.122,-0.032 -24.239,0.027 -36.36,-0.051 -0.84,0.008 -2.531,0.019 -3.371,0.027 -0.711,0 -2.129,0.012 -2.828,0.012 -1.109,0.012 -2.211,0 -3.313,0 -0.828,0 -2.507,-0.012 -3.339,-0.012 -0.707,0 -2.11,0 -2.809,-0.008 17.281,83.68 34.578,167.348 51.91,251.008 30.371,0.082 60.75,0.024 91.121,0.043 17.59,0.039 35.77,0.149 52.43,-6.269 5.789,-2.403 11.141,-5.731 15.891,-9.813 2.527,-2.597 4.886,-5.359 7.168,-8.179 3.941,-5.622 6.839,-11.911 8.8,-18.481 1.18,-4.168 1.719,-8.48 2.379,-12.758 0.699,-9.203 -0.109,-18.429 -1.648,-27.511 1.711,4.011 3.359,8.058 5.301,11.968 0.628,1.282 1.289,2.543 1.957,3.801 0.742,1.371 1.5,2.731 2.25,4.109 1.113,1.961 2.25,3.903 3.441,5.813 0.988,1.578 2.031,3.141 3.07,4.687 19.442,29.114 51.25,49.883 86,54.872 z"
       style="fill:#ffc500;fill-opacity:1;fill-rule:nonzero;stroke:#cd7d00;stroke-opacity:1;stroke-width:4;stroke-miterlimit:4;stroke-dasharray:none;stroke-linejoin:round;stroke-linecap:round"
       id="path5720"
       inkscape:connector-curvature="0" /><path
       d="m 1134.711,435.828 c 5.738,0.41 12.07,-2 14.59,-7.476 1.687,-6.411 0.371,-13.161 -1.09,-19.493 -11.949,-58.648 -24.27,-117.23 -36.27,-175.871 -0.371,-1.687 0.418,-3.34 0.75,-4.976 -1.839,0 -3.671,0 -5.492,-0.012 0.09,4.109 0.75,8.16 1.723,12.141 12.09,58.281 24.09,116.578 36.187,174.859 0.61,4.422 1.493,9.699 -1.757,13.352 -2.43,2.527 -6.172,3.07 -9.5,3.25 0.277,1.41 0.558,2.82 0.859,4.226 z"
       style="fill:#e5e5e5;fill-opacity:1;fill-rule:nonzero;stroke:none"
       id="path5722"
       inkscape:connector-curvature="0" /><path
       d="m 844.328,431.809 1.531,0.613 c 11.512,-3.41 22.211,-9.492 31.481,-17.07 13.871,-10.571 24.051,-25.411 30.66,-41.422 0.949,-2.692 1.859,-5.418 3.52,-7.789 -0.54,-2.582 -1.129,-5.141 -1.711,-7.7 -1.821,3.559 -2.911,7.399 -4.161,11.168 -5.707,16.012 -15.687,30.481 -28.707,41.411 -2.921,2.441 -5.781,5.199 -9.589,6.128 -6.981,5.883 -14.704,10.883 -23.024,14.661 z"
       style="fill:#d8d8d8;fill-opacity:1;fill-rule:nonzero;stroke:none"
       id="path5724"
       inkscape:connector-curvature="0" /><path
       d="m 640.461,430.762 c 2.418,1 4.867,-0.352 7.18,-1.012 13.769,-4.719 26.16,-14.02 33.379,-26.789 3.539,-5.789 5.718,-12.231 8.05,-18.563 -1.039,-1.546 -2.082,-3.109 -3.07,-4.687 -1.809,5.027 -2.82,10.34 -5.129,15.187 -2.851,6.09 -6.512,11.872 -11.293,16.633 -3.816,3.848 -7.898,7.809 -13.226,9.418 -4.75,4.082 -10.102,7.41 -15.891,9.813 z"
       style="fill:#dddddd;fill-opacity:1;fill-rule:nonzero;stroke:none"
       id="path5726"
       inkscape:connector-curvature="0" /><path
       d="m 1133.852,431.602 c 3.328,-0.18 7.07,-0.723 9.5,-3.25 3.25,-3.653 2.367,-8.93 1.757,-13.352 -12.097,-58.281 -24.097,-116.578 -36.187,-174.859 -0.973,-3.981 -1.633,-8.032 -1.723,-12.141 -0.84,0.012 -2.527,0.012 -3.371,0.012 1.32,10.179 3.973,20.117 5.863,30.199 10.68,51.641 21.348,103.277 32.047,154.918 0.641,3.562 1.492,7.391 0.34,10.922 -1.5,3.488 -5.547,4.097 -8.758,5.097 0.129,0.614 0.399,1.84 0.532,2.454 z"
       style="fill:#b7b7b7;fill-opacity:1;fill-rule:nonzero;stroke:none"
       id="path5728"
       inkscape:connector-curvature="0" /><path
       d="m 1132.68,426.039 c 0.199,1.039 0.41,2.07 0.64,3.109 3.211,-1 7.258,-1.609 8.758,-5.097 1.152,-3.531 0.301,-7.36 -0.34,-10.922 -10.699,-51.641 -21.367,-103.277 -32.047,-154.918 -1.89,-10.082 -4.543,-20.02 -5.863,-30.199 l -2.699,0 c 1.531,11.218 4.461,22.199 6.531,33.34 10.488,50.546 20.852,101.128 31.399,151.668 0.562,3.089 0.882,6.289 0.32,9.402 -1,2.777 -4.231,3.078 -6.699,3.617 z"
       style="fill:#8b8b8b;fill-opacity:1;fill-rule:nonzero;stroke:none"
       id="path5730"
       inkscape:connector-curvature="0" /><path
       d="m 1132.68,426.039 c 2.468,-0.539 5.699,-0.84 6.699,-3.617 0.562,-3.113 0.242,-6.313 -0.32,-9.402 -10.547,-50.54 -20.911,-101.122 -31.399,-151.668 -2.07,-11.141 -5,-22.122 -6.531,-33.34 -0.758,0 -2.277,-0.012 -3.039,-0.012 10.851,53.922 22.23,107.738 33.301,161.609 1.64,9.461 4.507,18.762 5.3,28.34 0.629,3.102 -2.242,4.422 -4.543,5.492 0.161,0.868 0.34,1.731 0.532,2.598 z"
       style="fill:#606060;fill-opacity:1;fill-rule:nonzero;stroke:none"
       id="path5732"
       inkscape:connector-curvature="0" /><path
       d="m 1132.148,423.441 c 2.301,-1.07 5.172,-2.39 4.543,-5.492 -0.793,-9.578 -3.66,-18.879 -5.3,-28.34 C 1120.32,335.738 1108.941,281.922 1098.09,228 l -3.07,0 c 4.871,27.051 11.16,53.82 16.39,80.809 7.371,34.711 14.309,69.511 21.668,104.222 0.684,2.219 0.094,4.418 -1.906,5.68 0.316,1.578 0.617,3.148 0.976,4.73 z"
       style="fill:#3f3f3f;fill-opacity:1;fill-rule:nonzero;stroke:none"
       id="path5734"
       inkscape:connector-curvature="0" /><path
       d="m 656.352,420.949 c 5.328,-1.609 9.41,-5.57 13.226,-9.418 4.781,-4.761 8.442,-10.543 11.293,-16.633 2.309,-4.847 3.32,-10.16 5.129,-15.187 -1.191,-1.91 -2.328,-3.852 -3.441,-5.813 -0.618,11.243 -5.418,21.922 -11.84,31.043 -1.91,3.039 -4.489,5.528 -7.199,7.829 -2.282,2.82 -4.641,5.582 -7.168,8.179 z"
       style="fill:#a8a8a8;fill-opacity:1;fill-rule:nonzero;stroke:none"
       id="path5736"
       inkscape:connector-curvature="0" /><path
       d="m 1131.172,418.711 c 2,-1.262 2.59,-3.461 1.906,-5.68 -7.359,-34.711 -14.297,-69.511 -21.668,-104.222 -5.23,-26.989 -11.519,-53.758 -16.39,-80.809 l -3.301,0 c 13.152,63.57 26.269,127.148 39.453,190.711 z"
       style="fill:#2f2f2f;fill-opacity:1;fill-rule:nonzero;stroke:none"
       id="path5738"
       inkscape:connector-curvature="0" /><path
       d="m 867.352,417.148 c 3.808,-0.929 6.668,-3.687 9.589,-6.128 13.02,-10.93 23,-25.399 28.707,-41.411 1.25,-3.769 2.34,-7.609 4.161,-11.168 -0.489,-2.121 -0.981,-4.242 -1.457,-6.371 -1.071,2.211 -1.942,4.5 -2.481,6.891 -3.59,14.769 -10.82,28.617 -20.793,40.09 -1.25,1.379 -2.789,2.437 -4.25,3.57 -4.117,5.18 -8.656,10.008 -13.476,14.527 z"
       style="fill:#a9a9a9;fill-opacity:1;fill-rule:nonzero;stroke:none"
       id="path5740"
       inkscape:connector-curvature="0" /><path
       d="m 663.52,412.77 c 2.71,-2.301 5.289,-4.79 7.199,-7.829 6.422,-9.121 11.222,-19.8 11.84,-31.043 -0.75,-1.378 -1.508,-2.738 -2.25,-4.109 -1.028,6.992 -1.981,14.133 -4.848,20.652 -0.621,1.59 -1.973,2.7 -3.141,3.848 -1.961,6.57 -4.859,12.859 -8.8,18.481 z"
       style="fill:#6c6c6c;fill-opacity:1;fill-rule:nonzero;stroke:none"
       id="path5742"
       inkscape:connector-curvature="0" /><path
       d="m 880.828,402.621 c 1.461,-1.133 3,-2.191 4.25,-3.57 9.973,-11.473 17.203,-25.321 20.793,-40.09 0.539,-2.391 1.41,-4.68 2.481,-6.891 -0.551,-2.531 -1.153,-5.058 -1.723,-7.59 -3.051,12.77 -5.738,26 -12.719,37.329 -0.43,0.23 -1.301,0.691 -1.738,0.921 -3.051,7.02 -6.891,13.668 -11.344,19.891 z"
       style="fill:#7a7a7a;fill-opacity:1;fill-rule:nonzero;stroke:none"
       id="path5744"
       inkscape:connector-curvature="0" /><path
       d="m 771.859,394.449 c 13.539,4.461 28.59,4.93 42.129,0.242 -3.187,-1.73 -6.66,-0.3 -10.019,-0.211 -12.379,-0.16 -24.891,-2.699 -35.828,-8.691 -13.352,-7.418 -24.2,-18.809 -32.09,-31.801 -12.813,-19.968 -20.711,-43.25 -21.961,-66.976 -0.828,-5.961 -0.891,-12.063 0.082,-18.012 0.5,-1.762 -0.344,-3.398 -0.871,-5.031 -4.781,14.519 -3.571,30.16 -1.36,45.031 3.438,21.078 12.2,41.16 24.707,58.43 8.864,12.07 20.872,22.23 35.211,27.019 z"
       style="fill:#303030;fill-opacity:1;fill-rule:nonzero;stroke:none"
       id="path5746"
       inkscape:connector-curvature="0" /><path
       d="m 540.23,394.988 c 17.258,-0.129 34.54,0.34 51.801,-0.316 6.289,-0.481 12.899,-0.473 18.739,-3.192 -10.598,-0.261 -21.149,1.059 -31.739,0.77 -8.812,-0.191 -17.703,0.641 -26.422,-0.93 -4.41,-0.789 -7.949,-4.242 -9.621,-8.3 -2.117,-5.09 -2.808,-10.61 -3.957,-15.969 -2.859,-14.699 -6.332,-29.281 -8.91,-44.039 -1.59,0 -3.18,-0.012 -4.762,-0.012 4.93,24 9.942,47.988 14.871,71.988 z"
       style="fill:#323232;fill-opacity:1;fill-rule:nonzero;stroke:none"
       id="path5748"
       inkscape:connector-curvature="0" /><path
       d="m 768.141,385.789 c 10.937,5.992 23.449,8.531 35.828,8.691 3.359,-0.089 6.832,-1.519 10.019,0.211 6.883,-2.421 13.203,-6.48 18.293,-11.711 -5.582,2.489 -11.179,5.219 -17.269,6.192 -17.551,3.578 -36.403,-0.75 -51.082,-10.902 -11.77,-8 -20.559,-19.571 -27.621,-31.758 -12.559,-21.563 -18.969,-46.543 -18.797,-71.453 0.539,-8.571 1.75,-17.27 5.297,-25.168 1.171,-2.532 2.211,-5.129 3.191,-7.75 -5.801,6.16 -10.371,13.699 -12.699,21.828 0.527,1.633 1.371,3.269 0.871,5.031 -0.973,5.949 -0.91,12.051 -0.082,18.012 1.25,23.726 9.148,47.008 21.961,66.976 7.89,12.992 18.738,24.383 32.09,31.801 z"
       style="fill:#5c5c5c;fill-opacity:1;fill-rule:nonzero;stroke:none"
       id="path5750"
       inkscape:connector-curvature="0" /><path
       d="m 672.32,394.289 c 1.168,-1.148 2.52,-2.258 3.141,-3.848 2.867,-6.519 3.82,-13.66 4.848,-20.652 -0.668,-1.258 -1.329,-2.519 -1.957,-3.801 -1.731,5.082 -0.864,10.793 -3.653,15.543 -0.66,4.278 -1.199,8.59 -2.379,12.758 z"
       style="fill:#4a4a4a;fill-opacity:1;fill-rule:nonzero;stroke:none"
       id="path5752"
       inkscape:connector-curvature="0" /><path
       d="m 552.609,391.32 c 8.719,1.571 17.61,0.739 26.422,0.93 10.59,0.289 21.141,-1.031 31.739,-0.77 2.371,-0.8 4.32,-2.441 6.179,-4.07 -5.027,-0.351 -9.918,1.07 -14.918,1.129 -9.351,-0.059 -18.703,0.941 -28.043,0.191 -4.66,-0.46 -9.308,0.821 -13.968,0.149 -3.551,-0.481 -7.61,0.101 -10.559,-2.348 -3.762,-2.801 -4.762,-7.652 -5.723,-11.961 -3.5,-17.191 -7.316,-34.332 -10.476,-51.582 -0.793,0.012 -2.364,0.024 -3.141,0.024 2.578,14.758 6.051,29.34 8.91,44.039 1.149,5.359 1.84,10.879 3.957,15.969 1.672,4.058 5.211,7.511 9.621,8.3 z"
       style="fill:#4e4e4e;fill-opacity:1;fill-rule:nonzero;stroke:none"
       id="path5754"
       inkscape:connector-curvature="0" /><path
       d="m 763.93,378.27 c 14.679,10.152 33.531,14.48 51.082,10.902 6.09,-0.973 11.687,-3.703 17.269,-6.192 2.989,-2.55 5.508,-5.73 7.449,-9.152 -6.589,4.723 -13.371,9.5 -21.378,11.453 -15.071,3.938 -31.512,1.91 -45.352,-5.179 -12.48,-6.223 -22.328,-16.743 -29.852,-28.313 -10.347,-15.508 -17.328,-33.23 -20.476,-51.609 -1.262,-6.641 -1.391,-13.418 -2.094,-20.129 -0.058,-11.172 1.633,-22.61 6.692,-32.692 2.3,-4.82 5.781,-8.929 8.46,-13.519 -3.718,2.109 -7.031,5.012 -9.73,8.301 -0.98,2.621 -2.02,5.218 -3.191,7.75 -3.547,7.898 -4.758,16.597 -5.297,25.168 -0.172,24.91 6.238,49.89 18.797,71.453 7.062,12.187 15.851,23.758 27.621,31.758 z"
       style="fill:#969696;fill-opacity:1;fill-rule:nonzero;stroke:none"
       id="path5756"
       inkscape:connector-curvature="0" /><path
       d="m 549.461,386.531 c 2.949,2.449 7.008,1.867 10.559,2.348 4.66,0.672 9.308,-0.609 13.968,-0.149 9.34,0.75 18.692,-0.25 28.043,-0.191 5,-0.059 9.891,-1.48 14.918,-1.129 1.711,-1.262 2.789,-3.199 3.903,-4.988 -5.59,1.148 -11.063,3.18 -16.84,3.09 -6.313,-0.012 -12.621,0.238 -18.922,0.379 -5.711,-0.711 -11.41,0.89 -17.102,-0.129 -5.226,-0.731 -11.117,1.218 -15.84,-1.762 -3.937,-2.609 -4.628,-7.699 -5.687,-11.922 -3.383,-16.348 -6.859,-32.68 -10.02,-49.066 -1.07,-0.012 -2.132,-0.012 -3.179,-0.024 3.16,17.25 6.976,34.391 10.476,51.582 0.961,4.309 1.961,9.16 5.723,11.961 z"
       style="fill:#797979;fill-opacity:1;fill-rule:nonzero;stroke:none"
       id="path5758"
       inkscape:connector-curvature="0" /><path
       d="m 773,380.102 c 13.84,7.089 30.281,9.117 45.352,5.179 8.007,-1.953 14.789,-6.73 21.378,-11.453 2.282,-2.949 3.969,-6.398 5.09,-9.969 -4.398,3.602 -7.742,8.34 -12.461,11.551 -11.218,7.82 -25.648,10.399 -39.019,8.078 -16.199,-1.976 -30.61,-11.519 -40.84,-23.929 -16.531,-20.547 -26.621,-46.239 -28.359,-72.571 -1.832,-15.25 0.699,-31.476 9.39,-44.386 3.239,-5.602 8.449,-9.532 12.867,-14.122 -3.828,1.098 -7.539,2.899 -10.668,5.36 -2.679,4.59 -6.16,8.699 -8.46,13.519 -5.059,10.082 -6.75,21.52 -6.692,32.692 0.703,6.711 0.832,13.488 2.094,20.129 3.148,18.379 10.129,36.101 20.476,51.609 7.524,11.57 17.372,22.09 29.852,28.313 z"
       style="fill:#c5c5c5;fill-opacity:1;fill-rule:nonzero;stroke:none"
       id="path5760"
       inkscape:connector-curvature="0" /><path
       d="m 552.148,384 c 4.723,2.98 10.614,1.031 15.84,1.762 5.692,1.019 11.391,-0.582 17.102,0.129 6.301,-0.141 12.609,-0.391 18.922,-0.379 5.777,0.09 11.25,-1.942 16.84,-3.09 l 0.117,-0.031 c 0.722,-1.602 1.39,-3.219 2.011,-4.86 -3.902,2.297 -8.089,4.239 -12.64,4.739 -15.352,2.05 -30.879,0.859 -46.309,1.242 -4.41,-0.024 -10.031,0.418 -12.73,-3.871 -3.121,-5.493 -3.082,-12.063 -4.25,-18.11 -2.449,-12.871 -5.641,-25.59 -7.672,-38.543 -0.731,0.012 -2.207,0.012 -2.938,0.024 3.161,16.386 6.637,32.718 10.02,49.066 1.059,4.223 1.75,9.313 5.687,11.922 z"
       style="fill:#acacac;fill-opacity:1;fill-rule:nonzero;stroke:none"
       id="path5762"
       inkscape:connector-curvature="0" /><path
       d="m 793.34,383.488 c 13.371,2.321 27.801,-0.258 39.019,-8.078 4.719,-3.211 8.063,-7.949 12.461,-11.551 2.86,-6.379 4.231,-13.449 4.641,-20.429 -3.981,9.879 -8.07,20.539 -16.992,27.082 -8.149,6.859 -18.93,9.988 -29.469,9.847 -12.52,0.301 -25.051,-3.781 -35,-11.379 -12.18,-8.718 -20.57,-21.652 -27.051,-34.921 -9.019,-17.559 -13.679,-37.36 -13.308,-57.098 -0.161,-12.91 3.449,-26.332 12.078,-36.191 3.91,-4.11 7.832,-8.52 13.121,-10.879 3.031,-1.352 5.969,-2.871 8.832,-4.563 -5.192,0.223 -10.492,1.094 -15.274,3.152 -4.418,4.59 -9.628,8.52 -12.867,14.122 -8.691,12.91 -11.222,29.136 -9.39,44.386 1.738,26.332 11.828,52.024 28.359,72.571 10.23,12.41 24.641,21.953 40.84,23.929 z"
       style="fill:#e9e9e9;fill-opacity:1;fill-rule:nonzero;stroke:none"
       id="path5764"
       inkscape:connector-curvature="0" /><path
       d="m 551.301,379.641 c 2.699,4.289 8.32,3.847 12.73,3.871 15.43,-0.383 30.957,0.808 46.309,-1.242 4.551,-0.5 8.738,-2.442 12.64,-4.739 0.129,-0.711 0.399,-2.14 0.54,-2.851 -4.161,2.511 -8.668,4.539 -13.5,5.261 -14.571,2.047 -29.321,1.188 -43.981,1.43 -3.379,-0.051 -6.961,0.199 -10.09,-1.301 -2.828,-1.398 -3.847,-4.629 -4.551,-7.468 C 549.141,362.41 547.02,352.18 545,341.93 c -1.23,-6.289 -2.988,-12.489 -3.469,-18.91 -0.543,0 -1.609,-0.02 -2.152,-0.032 2.031,12.953 5.223,25.672 7.672,38.543 1.168,6.047 1.129,12.617 4.25,18.11 z"
       style="fill:#cacaca;fill-opacity:1;fill-rule:nonzero;stroke:none"
       id="path5766"
       inkscape:connector-curvature="0" /><path
       d="m 892.172,382.73 c 0.437,-0.23 1.308,-0.691 1.738,-0.921 6.981,-11.329 9.668,-24.559 12.719,-37.329 -0.578,-2.96 -1.289,-5.89 -1.957,-8.832 -1.133,7.133 -1.992,14.321 -3.66,21.34 -0.391,1.992 -1.543,3.672 -2.582,5.364 -1.61,6.918 -3.418,13.839 -6.258,20.378 z"
       style="fill:#545454;fill-opacity:1;fill-rule:nonzero;stroke:none"
       id="path5768"
       inkscape:connector-curvature="0" /><path
       d="m 555.949,380.07 c 3.129,1.5 6.711,1.25 10.09,1.301 14.66,-0.242 29.41,0.617 43.981,-1.43 4.832,-0.722 9.339,-2.75 13.5,-5.261 0.41,-2.918 0.582,-5.891 0.218,-8.828 -1.308,3.898 -3.726,7.679 -7.777,9.117 -8.633,3.133 -17.992,2.672 -27.031,2.761 -8.629,0 -17.27,0.02 -25.899,0.032 -2.761,0.039 -6.211,-0.301 -7.511,-3.172 -1.879,-4.32 -2.282,-9.078 -3.282,-13.649 -1.398,-7.492 -3.218,-14.89 -4.679,-22.371 -0.879,-4.601 -2.387,-9.148 -2.137,-13.898 2.957,-0.524 5.906,-1.133 8.906,-1.434 -4.258,-0.316 -8.539,-0.238 -12.797,-0.218 0.481,6.421 2.239,12.621 3.469,18.91 2.02,10.25 4.141,20.48 6.398,30.672 0.704,2.839 1.723,6.07 4.551,7.468 z"
       style="fill:#e8e8e8;fill-opacity:1;fill-rule:nonzero;stroke:none"
       id="path5770"
       inkscape:connector-curvature="0" /><path
       d="m 674.699,381.531 c 2.789,-4.75 1.922,-10.461 3.653,-15.543 -1.942,-3.91 -3.59,-7.957 -5.301,-11.968 1.539,9.082 2.347,18.308 1.648,27.511 z"
       style="fill:#323232;fill-opacity:1;fill-rule:nonzero;stroke:none"
       id="path5772"
       inkscape:connector-curvature="0" /><path
       d="m 768,368.98 c 9.949,7.598 22.48,11.68 35,11.379 10.539,0.141 21.32,-2.988 29.469,-9.847 8.922,-6.543 13.011,-17.203 16.992,-27.082 1.801,-18.45 -1.859,-37.129 -8.383,-54.379 -6.008,-15.699 -14.18,-30.93 -26.226,-42.84 -13.93,-13.633 -33.391,-22.832 -53.18,-20.883 -2.863,1.692 -5.801,3.211 -8.832,4.563 -5.289,2.359 -9.211,6.769 -13.121,10.879 -8.629,9.859 -12.239,23.281 -12.078,36.191 -0.371,19.738 4.289,39.539 13.308,57.098 6.481,13.269 14.871,26.203 27.051,34.921 z"
       style="fill:#ffffff;fill-opacity:1;fill-rule:nonzero;stroke:none"
       id="path5774"
       inkscape:connector-curvature="0" /><path
       d="m 555.52,374.59 c 1.3,2.871 4.75,3.211 7.511,3.172 8.629,-0.012 17.27,-0.032 25.899,-0.032 9.039,-0.089 18.398,0.372 27.031,-2.761 4.051,-1.438 6.469,-5.219 7.777,-9.117 -0.988,-18.25 -15.066,-34.364 -32.609,-38.911 -12.02,-2.91 -24.488,-3.421 -36.801,-3.703 -3,0.301 -5.949,0.91 -8.906,1.434 -0.25,4.75 1.258,9.297 2.137,13.898 1.461,7.481 3.281,14.879 4.679,22.371 1,4.571 1.403,9.329 3.282,13.649 z"
       style="fill:#ffffff;fill-opacity:1;fill-rule:nonzero;stroke:none"
       id="path5776"
       inkscape:connector-curvature="0" /><path
       d="m 960.68,366.84 c 4.648,-0.262 9.941,-1.281 13.019,-5.11 2.281,-2.718 2.012,-6.429 2.02,-9.742 0.179,-6.379 -2.168,-12.41 -3.289,-18.609 -7.039,-33.141 -14.801,-66.129 -21.442,-99.359 -1.636,-6.059 0.473,-12.161 4.512,-16.75 -2.16,-0.231 -4.328,-0.239 -6.48,-0.032 -4.399,8.59 -2.442,18.434 -0.43,27.383 7.441,34.149 14.898,68.301 22.398,102.438 0.59,3.57 1.364,7.75 -1.019,10.863 -2.231,3.348 -6.41,4.508 -10.207,4.656 0.297,1.422 0.597,2.844 0.918,4.262 z"
       style="fill:#e3e3e3;fill-opacity:1;fill-rule:nonzero;stroke:none"
       id="path5778"
       inkscape:connector-curvature="0" /><path
       d="m 898.43,362.352 c 1.039,-1.692 2.191,-3.372 2.582,-5.364 1.668,-7.019 2.527,-14.207 3.66,-21.34 -1.801,-8.386 -3.711,-16.769 -5.512,-25.16 2.281,17.192 2.641,34.782 -0.73,51.864 z"
       style="fill:#383838;fill-opacity:1;fill-rule:nonzero;stroke:none"
       id="path5780"
       inkscape:connector-curvature="0" /><path
       d="m 959.762,362.578 c 3.797,-0.148 7.976,-1.308 10.207,-4.656 2.383,-3.113 1.609,-7.293 1.019,-10.863 -7.5,-34.137 -14.957,-68.289 -22.398,-102.438 -2.012,-8.949 -3.969,-18.793 0.43,-27.383 -0.758,0.133 -2.29,0.403 -3.059,0.532 -4.531,7.98 -2.242,17.449 -0.52,25.89 7.348,34.192 14.938,68.32 22.36,102.488 0.597,3.301 1.469,7.141 -0.68,10.082 -1.883,2.45 -5.23,2.79 -7.941,3.79 0.148,0.64 0.429,1.921 0.582,2.558 z"
       style="fill:#b4b4b4;fill-opacity:1;fill-rule:nonzero;stroke:none"
       id="path5782"
       inkscape:connector-curvature="0" /><path
       d="m 958.578,357.219 c 0.192,0.929 0.391,1.871 0.602,2.801 2.711,-1 6.058,-1.34 7.941,-3.79 2.149,-2.941 1.277,-6.781 0.68,-10.082 -7.422,-34.168 -15.012,-68.296 -22.36,-102.488 -1.722,-8.441 -4.011,-17.91 0.52,-25.89 -1.691,0.671 -3.32,1.441 -4.859,2.378 -1.68,10.352 1.07,20.59 3.187,30.653 6.852,31.437 13.742,62.879 20.609,94.32 0.442,2.551 1.063,5.238 0.313,7.777 -0.949,2.852 -4.231,3.321 -6.633,4.321 z"
       style="fill:#888888;fill-opacity:1;fill-rule:nonzero;stroke:none"
       id="path5784"
       inkscape:connector-curvature="0" /><path
       d="m 958.578,357.219 c 2.402,-1 5.684,-1.469 6.633,-4.321 0.75,-2.539 0.129,-5.226 -0.313,-7.777 -6.867,-31.441 -13.757,-62.883 -20.609,-94.32 -2.117,-10.063 -4.867,-20.301 -3.187,-30.653 -1.211,1.024 -2.372,2.071 -3.454,3.204 0.661,6.269 0.59,12.617 2.082,18.777 7.309,34.312 14.961,68.543 22.399,102.82 0.34,2.41 0.93,5.301 -0.777,7.36 -1.051,0.832 -2.25,1.453 -3.364,2.14 0.184,0.93 0.383,1.852 0.59,2.77 z"
       style="fill:#5e5e5e;fill-opacity:1;fill-rule:nonzero;stroke:none"
       id="path5786"
       inkscape:connector-curvature="0" /><path
       d="m 957.988,354.449 c 1.114,-0.687 2.313,-1.308 3.364,-2.14 1.707,-2.059 1.117,-4.95 0.777,-7.36 -7.438,-34.277 -15.09,-68.508 -22.399,-102.82 -1.492,-6.16 -1.421,-12.508 -2.082,-18.777 -1.449,1.878 -2.648,3.937 -3.507,6.148 7.699,38.609 16.507,77.02 24.828,115.512 0.75,2.129 -0.758,3.898 -1.828,5.558 0.281,1.301 0.531,2.59 0.847,3.879 z"
       style="fill:#3f3f3f;fill-opacity:1;fill-rule:nonzero;stroke:none"
       id="path5788"
       inkscape:connector-curvature="0" /><path
       d="m 1065.172,353.648 c 1.289,-0.25 1.5,-1 0.637,-2.238 -1.321,0.25 -1.528,1 -0.637,2.238 z"
       style="fill:#d6c60c;fill-opacity:1;fill-rule:nonzero;stroke:none"
       id="path5790"
       inkscape:connector-curvature="0" /><path
       d="m 957.141,350.57 c 1.07,-1.66 2.578,-3.429 1.828,-5.558 -8.321,-38.492 -17.129,-76.903 -24.828,-115.512 -2.371,7.398 0.14,15.059 1.429,22.398 7.141,32.903 14.34,65.793 21.571,98.672 z"
       style="fill:#2e2e2e;fill-opacity:1;fill-rule:nonzero;stroke:none"
       id="path5792"
       inkscape:connector-curvature="0" /><path
       d="m 1064.238,349.648 c 1.41,0.012 1.231,-2.5 0.473,-3.257 -1.43,0.007 -1.25,2.5 -0.473,3.257 z"
       style="fill:#d0c00a;fill-opacity:1;fill-rule:nonzero;stroke:none"
       id="path5794"
       inkscape:connector-curvature="0" /><path
       d="m 1061.262,336.93 c 1.508,2.621 0.718,6.582 2.859,8.64 0.168,-2.898 -1.801,-5.761 -0.422,-8.582 -0.609,-0.019 -1.828,-0.047 -2.437,-0.058 z"
       style="fill:#c8b80a;fill-opacity:1;fill-rule:nonzero;stroke:none"
       id="path5796"
       inkscape:connector-curvature="0" /><path
       d="m 1060.949,336.738 c 0.442,-0.707 0.891,-1.418 1.352,-2.129 -2.61,-7.097 -3.301,-14.718 -5.09,-22.039 -8.731,-42.191 -17.422,-84.39 -26.199,-126.57 1.898,-0.012 3.808,-0.02 5.738,-0.031 -5.578,-6.797 -15.129,-3.949 -22.711,-4.528 -5.391,0.508 -13.5,-2.191 -15.859,4.539 9.98,0.051 19.961,0.008 29.949,0.032 10.672,47.687 21.359,95.379 32.031,143.066 0.442,2.531 2.012,5.082 0.789,7.66 z"
       style="fill:#3c3c3c;fill-opacity:1;fill-rule:nonzero;stroke:none"
       id="path5798"
       inkscape:connector-curvature="0" /><path
       d="m 639.422,298.609 c 11.848,8.52 20.808,20.621 26.5,33.993 -2.102,-8.614 -4.141,-17.25 -5.402,-26.043 -5.598,-4.379 -9.95,-10.188 -15.969,-14.047 -12.93,-9.492 -29.129,-12.383 -44.621,-14.801 -6.641,-0.34 -13.309,-0.063 -19.91,-1.07 -15.34,-0.211 -30.692,-0.02 -46.032,-0.11 -4.957,-0.011 -10.25,-2.39 -12.578,-6.961 -1.711,-3.34 -2.351,-7.07 -3.148,-10.699 -4.711,-22.691 -9.321,-45.402 -14.102,-68.07 -0.73,-3.86 -2.648,-8.461 -7.148,-8.879 -8.973,-0.883 -18.032,-0.113 -27.043,-0.402 -3.707,-0.29 -7.629,0.859 -9.309,4.441 12.121,0.078 24.238,0.019 36.36,0.051 6.558,31.547 12.968,63.129 19.628,94.66 6.954,0.816 14.243,0.078 21.332,0.328 24.711,0.301 49.891,-1.141 74.051,5.141 9.809,2.359 19.27,6.41 27.391,12.468 z"
       style="fill:#363636;fill-opacity:1;fill-rule:nonzero;stroke:none"
       id="path5800"
       inkscape:connector-curvature="0" /><path
       d="m 644.551,292.512 c 6.019,3.859 10.371,9.668 15.969,14.047 -0.211,-1.797 -0.379,-3.598 -0.551,-5.411 -7.391,-6.82 -15.059,-13.636 -24.348,-17.757 -11.609,-5.102 -24.199,-7.692 -36.762,-8.922 -12.91,-1.578 -25.937,-0.879 -38.91,-1.09 -10.097,-0.188 -20.308,0.699 -30.301,-1.231 -4.148,-1.75 -6.418,-6.078 -7.168,-10.328 -5.339,-24.531 -10.039,-49.199 -15.41,-73.718 -0.8,-4.313 -3.39,-9.071 -8.211,-9.563 -10.609,-0.379 -21.238,-0.059 -31.859,-0.16 -2.629,0.121 -5.852,-0.391 -7.699,1.98 -1.621,1.43 -1.789,3.641 -2.012,5.629 0.84,-0.008 2.531,-0.019 3.371,-0.027 1.68,-3.582 5.602,-4.731 9.309,-4.441 9.011,0.289 18.07,-0.481 27.043,0.402 4.5,0.418 6.418,5.019 7.148,8.879 4.781,22.668 9.391,45.379 14.102,68.07 0.797,3.629 1.437,7.359 3.148,10.699 2.328,4.571 7.621,6.95 12.578,6.961 15.34,0.09 30.692,-0.101 46.032,0.11 6.601,1.007 13.269,0.73 19.91,1.07 15.492,2.418 31.691,5.309 44.621,14.801 z"
       style="fill:#666666;fill-opacity:1;fill-rule:nonzero;stroke:none"
       id="path5802"
       inkscape:connector-curvature="0" /><path
       d="m 635.621,283.391 c 9.289,4.121 16.957,10.937 24.348,17.757 -0.207,-1.82 -0.418,-3.636 -0.547,-5.457 -5.391,-3.531 -9.961,-8.191 -15.57,-11.39 -12.301,-7.403 -26.582,-10.5 -40.633,-12.481 -6.098,-0.39 -12.149,-1.429 -18.258,-1.32 -15.332,-0.172 -30.66,-0.078 -45.981,-0.16 -3.761,-0.442 -8.429,-0.031 -11.05,-3.301 -2.071,-2.699 -2.571,-6.18 -3.371,-9.391 -4.84,-23.179 -9.579,-46.386 -14.411,-69.57 -0.878,-3.937 -2.148,-8.258 -5.687,-10.629 -3.301,-2.41 -7.57,-2.051 -11.43,-2.09 -9.972,0.082 -19.961,-0.109 -29.929,0.09 -3.571,-0.008 -7.051,2.231 -8.461,5.512 -0.289,1.668 -0.2,3.359 -0.18,5.039 0.699,0 2.117,-0.012 2.828,-0.012 0.223,-1.988 0.391,-4.199 2.012,-5.629 1.847,-2.371 5.07,-1.859 7.699,-1.98 10.621,0.101 21.25,-0.219 31.859,0.16 4.821,0.492 7.411,5.25 8.211,9.563 5.371,24.519 10.071,49.187 15.41,73.718 0.75,4.25 3.02,8.578 7.168,10.328 9.993,1.93 20.204,1.043 30.301,1.231 12.973,0.211 26,-0.488 38.91,1.09 12.563,1.23 25.153,3.82 36.762,8.922 z"
       style="fill:#9b9b9b;fill-opacity:1;fill-rule:nonzero;stroke:none"
       id="path5804"
       inkscape:connector-curvature="0" /><path
       d="m 643.852,284.301 c 5.609,3.199 10.179,7.859 15.57,11.39 -0.043,-0.863 -0.121,-2.57 -0.16,-3.429 -4.981,-3.184 -9.332,-7.25 -14.5,-10.141 -17.071,-10.18 -37.313,-12.742 -56.762,-14.371 -15.98,-0.398 -31.98,-0.398 -47.961,-0.32 -2.961,-0.059 -6.148,-0.09 -8.719,-1.739 -2.461,-1.613 -3.082,-4.691 -3.73,-7.339 -4.809,-23.461 -9.711,-46.903 -14.531,-70.364 -1.02,-4.617 -2.278,-9.738 -6.25,-12.758 -3.719,-2.589 -8.45,-2.808 -12.821,-2.851 -9.328,0.019 -18.66,-0.008 -27.976,0.019 -4.211,0.082 -8.871,0.532 -12.133,3.473 -2.688,2.649 -2.52,6.66 -2.731,10.129 1.102,0 2.204,0.012 3.313,0 -0.02,-1.68 -0.109,-3.371 0.18,-5.039 1.41,-3.281 4.89,-5.52 8.461,-5.512 9.968,-0.199 19.957,-0.008 29.929,-0.09 3.86,0.039 8.129,-0.32 11.43,2.09 3.539,2.371 4.809,6.692 5.687,10.629 4.832,23.184 9.571,46.391 14.411,69.57 0.8,3.211 1.3,6.692 3.371,9.391 2.621,3.27 7.289,2.859 11.05,3.301 15.321,0.082 30.649,-0.012 45.981,0.16 6.109,-0.109 12.16,0.93 18.258,1.32 14.051,1.981 28.332,5.078 40.633,12.481 z"
       style="fill:#c8c8c8;fill-opacity:1;fill-rule:nonzero;stroke:none"
       id="path5806"
       inkscape:connector-curvature="0" /><path
       d="m 893.828,287.551 c -2.578,-13.082 -5.906,-26.012 -8.387,-39.11 -7.863,-12.453 -15.972,-24.929 -26.621,-35.211 -8.992,-8.3 -18.941,-15.558 -29.769,-21.269 -14.629,-7.473 -30.75,-11.691 -47.051,-13.391 -14.32,-0.359 -28.961,-0.832 -42.789,3.461 -0.402,0.297 -1.211,0.899 -1.609,1.188 0.617,0.09 1.859,0.25 2.476,0.332 29.594,-4.289 60.871,0.449 86.973,15.371 15.988,8.988 29.89,21.527 40.82,36.238 11.649,15.762 20.219,33.692 25.957,52.391 z"
       style="fill:#313131;fill-opacity:1;fill-rule:nonzero;stroke:none"
       id="path5810"
       inkscape:connector-curvature="0" /><path
       d="m 858.82,213.23 c 10.649,10.282 18.758,22.758 26.621,35.211 -0.632,-4.16 -1.441,-8.3 -2.011,-12.461 -1.481,-1.378 -2.91,-2.82 -4.059,-4.48 -8.512,-12.5 -19.16,-23.578 -31.301,-32.578 -17.8,-13.094 -39.129,-21.293 -61.07,-23.75 -8.609,-1.281 -17.352,-0.563 -26.02,-0.703 -19.71,0.883 -39.492,7.261 -55.019,19.64 -1.02,0.93 -1.883,2.032 -2.781,3.063 11.172,-7.102 23.89,-11.453 36.898,-13.621 -0.617,-0.082 -1.859,-0.242 -2.476,-0.332 0.398,-0.289 1.207,-0.891 1.609,-1.188 13.828,-4.293 28.469,-3.82 42.789,-3.461 16.301,1.7 32.422,5.918 47.051,13.391 10.828,5.711 20.777,12.969 29.769,21.269 z"
       style="fill:#636363;fill-opacity:1;fill-rule:nonzero;stroke:none"
       id="path5812"
       inkscape:connector-curvature="0" /><path
       d="m 666.66,242.629 c 4.18,-11.449 10.539,-22.051 18.84,-30.981 0.762,-1.839 1.551,-3.726 2.922,-5.226 12.129,-14.762 28.769,-25.883 47.137,-31.223 9.57,-2.91 19.55,-3.859 29.472,-4.66 25.188,-0.461 50.848,4.902 72.731,17.711 14.867,8.512 28.117,19.91 38.59,33.48 2.207,2.84 4.378,5.711 6.648,8.52 -0.078,-3.281 0.148,-6.559 0.5,-9.828 -4.129,-1.684 -6.219,-5.75 -9.328,-8.652 -4.32,-4.329 -8.551,-8.75 -13.051,-12.891 C 841.129,181.84 816.16,170.43 790,167.48 c -10.25,-1.781 -20.68,-0.8 -31.02,-1.019 -19.23,1.141 -38.359,7.078 -54.109,18.328 -12.992,9.289 -24.32,21.391 -31.18,35.93 -2.769,5.16 -4.601,10.75 -6.613,16.23 -0.777,1.813 -0.648,3.781 -0.418,5.68 z"
       style="fill:#d9d9d9;fill-opacity:1;fill-rule:nonzero;stroke:none"
       id="path5814"
       inkscape:connector-curvature="0" /><path
       d="m 879.371,231.5 c 1.149,1.66 2.578,3.102 4.059,4.48 -0.2,-1.91 -0.352,-3.82 -0.43,-5.73 -2.27,-2.809 -4.441,-5.68 -6.648,-8.52 -10.473,-13.57 -23.723,-24.968 -38.59,-33.48 -21.883,-12.809 -47.543,-18.172 -72.731,-17.711 -9.922,0.801 -19.902,1.75 -29.472,4.66 -18.368,5.34 -35.008,16.461 -47.137,31.223 -1.371,1.5 -2.16,3.387 -2.922,5.226 5.512,-5.277 11.391,-10.16 17.68,-14.476 0.898,-1.031 1.761,-2.133 2.781,-3.063 15.527,-12.379 35.309,-18.757 55.019,-19.64 8.668,0.14 17.411,-0.578 26.02,0.703 21.941,2.457 43.27,10.656 61.07,23.75 12.141,9 22.789,20.078 31.301,32.578 z"
       style="fill:#9e9e9e;fill-opacity:1;fill-rule:nonzero;stroke:none"
       id="path5816"
       inkscape:connector-curvature="0" /><path
       d="m 1219.629,226.219 c 8.422,1.922 17.41,-6.629 15.391,-15.168 -0.891,-7.02 -2.848,-13.832 -4.161,-20.762 -0.32,-5.629 -1.57,-11.508 -5.039,-16.07 -3.66,-3.52 -8.808,-5.41 -13.851,-5.508 -45.649,-0.012 -91.309,0.008 -136.969,-0.012 -12,0.18 -24.031,-0.41 -36,0.512 -9.352,-0.402 -18.77,-1.133 -28.078,0.148 -6.91,0.621 -14.531,-1.289 -20.703,2.821 -3.188,1.679 -3.778,7.449 -8.18,6.422 -2.57,-0.161 -4.719,-1.743 -6.93,-2.883 -16.82,-9.36 -37.289,-13.239 -56.019,-7.828 -14.738,4.371 -26.75,16.5 -31.27,31.168 -0.769,3.082 -2.968,6.25 -1.511,9.453 1.089,-2.75 2.48,-5.364 3.882,-7.973 3.649,-14.141 15.219,-25.867 29.239,-29.93 7.871,-2.847 16.359,-2.257 24.582,-2.039 11.5,1.192 22.797,4.821 32.699,10.828 2.68,1.653 5.519,3.024 8.43,4.25 3.55,-4.089 5.718,-10.66 12.031,-11.07 18.578,-0.879 37.199,0.402 55.797,-0.258 53.351,0.008 106.711,-0.082 160.07,0.059 5.602,-0.41 10.852,3.601 12.609,8.812 2.063,6.059 2.973,12.438 4.43,18.661 1.461,5.988 2.391,12.347 1.07,18.437 -2.039,4.59 -7.726,4.922 -11.918,6.199 0.098,0.434 0.301,1.301 0.399,1.731 z"
       style="fill:#eaeaea;fill-opacity:1;fill-rule:nonzero;stroke:none"
       id="path5818"
       inkscape:connector-curvature="0" /><path
       d="m 1218.469,220.898 c 0.23,1.204 0.492,2.403 0.761,3.59 4.192,-1.277 9.879,-1.609 11.918,-6.199 1.321,-6.09 0.391,-12.449 -1.07,-18.437 -1.457,-6.223 -2.367,-12.602 -4.43,-18.661 -1.757,-5.211 -7.007,-9.222 -12.609,-8.812 -53.359,-0.141 -106.719,-0.051 -160.07,-0.059 -18.598,0.66 -37.219,-0.621 -55.797,0.258 -6.313,0.41 -8.481,6.981 -12.031,11.07 -2.911,-1.226 -5.75,-2.597 -8.43,-4.25 -9.902,-6.007 -21.199,-9.636 -32.699,-10.828 -8.223,-0.218 -16.711,-0.808 -24.582,2.039 -14.02,4.063 -25.59,15.789 -29.239,29.93 2.289,-3.277 4.95,-6.269 7.797,-9.078 5.071,-10.789 16.692,-17.051 28,-19.242 15.653,-2.559 31.942,0.75 45.91,8.09 3.512,1.82 6.704,4.25 10.403,5.742 2.597,0.027 5.211,-0.071 7.828,-0.071 0.949,-4.71 3.351,-10.5 9.051,-10.48 13.59,-0.051 27.281,-0.809 40.789,0.84 10.59,-1.731 21.359,-0.711 32.043,-0.981 45.316,-0.007 90.629,0.012 135.949,-0.007 4.238,0.007 9.258,-0.282 12.41,3.136 3.32,4.141 3.949,9.621 5.129,14.633 1.469,7.629 4.25,15.328 2.738,23.18 -1.847,3.539 -6.179,4.277 -9.769,4.597 z"
       style="fill:#cacaca;fill-opacity:1;fill-rule:nonzero;stroke:none"
       id="path5820"
       inkscape:connector-curvature="0" /><path
       d="m 1218.469,220.898 c 3.59,-0.32 7.922,-1.058 9.769,-4.597 1.512,-7.852 -1.269,-15.551 -2.738,-23.18 -1.18,-5.012 -1.809,-10.492 -5.129,-14.633 -3.152,-3.418 -8.172,-3.129 -12.41,-3.136 -45.32,0.019 -90.633,0 -135.949,0.007 -10.684,0.27 -21.453,-0.75 -32.043,0.981 -13.508,-1.649 -27.199,-0.891 -40.789,-0.84 -5.7,-0.02 -8.102,5.77 -9.051,10.48 1.332,0.008 2.68,0.008 4.043,0.008 0.109,-2.879 0.887,-6.629 4.25,-7.258 13.457,-1.621 27.316,-1.851 40.578,1.372 3.691,0.097 7.18,-1.903 10.949,-1.704 12.641,-1.269 25.352,-0.57 38.039,-0.738 11.332,0.129 22.692,-0.25 34.024,0.18 6.968,1.308 13.949,-0.512 20.957,-0.199 13.011,0.148 26.051,-0.192 39.062,0.148 5.641,1 11.289,-0.789 16.949,0.07 4.661,0.653 9.372,0.379 14.071,0.621 3.16,0.008 5.73,2.54 6.961,5.282 1.609,3.84 2.207,8 3.129,12.027 0.91,4.731 2.5,9.383 2.468,14.25 -0.089,2.051 0.27,4.57 -1.609,5.949 -1.609,1.672 -4.102,1.461 -6.18,1.852 0.2,1.019 0.418,2.039 0.649,3.058 z"
       style="fill:#9b9b9b;fill-opacity:1;fill-rule:nonzero;stroke:none"
       id="path5822"
       inkscape:connector-curvature="0" /><path
       d="m 1217.82,217.84 c 2.078,-0.391 4.571,-0.18 6.18,-1.852 1.879,-1.379 1.52,-3.898 1.609,-5.949 0.032,-4.867 -1.558,-9.519 -2.468,-14.25 -0.922,-4.027 -1.52,-8.187 -3.129,-12.027 -1.231,-2.742 -3.801,-5.274 -6.961,-5.282 -4.699,-0.242 -9.41,0.032 -14.071,-0.621 -5.66,-0.859 -11.308,0.93 -16.949,-0.07 -13.011,-0.34 -26.051,0 -39.062,-0.148 -7.008,-0.313 -13.989,1.507 -20.957,0.199 -11.332,-0.43 -22.692,-0.051 -34.024,-0.18 -12.687,0.168 -25.398,-0.531 -38.039,0.738 -3.769,-0.199 -7.258,1.801 -10.949,1.704 -13.262,-3.223 -27.121,-2.993 -40.578,-1.372 -3.363,0.629 -4.141,4.379 -4.25,7.258 1.316,0.012 2.656,0 4.008,-0.008 2.359,-6.73 10.468,-4.031 15.859,-4.539 7.582,0.579 17.133,-2.269 22.711,4.528 2.531,0.043 5.078,0.043 7.629,0.011 1.98,-2.261 4.293,-4.96 7.66,-4.539 52.652,-0.019 105.313,-0.043 157.961,0.008 4.672,-0.25 7.391,4.531 8.27,8.512 1.441,6.309 3.031,12.641 3.859,19.059 0.199,3.101 -2.59,4.539 -5.008,5.558 0.231,1.082 0.438,2.184 0.699,3.262 z"
       style="fill:#6a6a6a;fill-opacity:1;fill-rule:nonzero;stroke:none"
       id="path5824"
       inkscape:connector-curvature="0" /><path
       d="m 1217.121,214.578 c 2.418,-1.019 5.207,-2.457 5.008,-5.558 -0.828,-6.418 -2.418,-12.75 -3.859,-19.059 -0.879,-3.981 -3.598,-8.762 -8.27,-8.512 -52.648,-0.051 -105.309,-0.027 -157.961,-0.008 -3.367,-0.421 -5.68,2.278 -7.66,4.539 55.519,0.051 111.043,0.008 166.562,0.02 2.079,9.52 4.071,19.059 6.18,28.578 z"
       style="fill:#3c3c3c;fill-opacity:1;fill-rule:nonzero;stroke:none"
       id="path5826"
       inkscape:connector-curvature="0" /><path
       d="m 948.871,185.391 c 14.758,4.55 27.539,13.859 38.41,24.621 -0.781,-4.032 -1.64,-8.051 -2.492,-12.071 -5.129,-2.66 -9.41,-6.64 -14.48,-9.402 -6.61,-3.66 -13.731,-6.449 -21.129,-8.019 -6.289,-1.508 -12.821,-1.141 -19.231,-0.981 -2.75,-0.019 -5.179,1.352 -7.539,2.563 8.918,-0.34 17.93,0.558 26.461,3.289 z"
       style="fill:#2f2f2f;fill-opacity:1;fill-rule:nonzero;stroke:none"
       id="path5828"
       inkscape:connector-curvature="0" /><path
       d="m 970.309,188.539 c 5.07,2.762 9.351,6.742 14.48,9.402 -0.461,-2.132 -0.898,-4.269 -1.34,-6.41 -6.621,-3.781 -12.808,-8.39 -20,-11.09 -8.949,-3.941 -18.738,-5.269 -28.41,-5.652 -9.801,0.801 -20.668,2.949 -27.398,10.75 4.73,-1.848 9.75,-2.758 14.769,-3.437 2.36,-1.211 4.789,-2.582 7.539,-2.563 6.41,-0.16 12.942,-0.527 19.231,0.981 7.398,1.57 14.519,4.359 21.129,8.019 z"
       style="fill:#555555;fill-opacity:1;fill-rule:nonzero;stroke:none"
       id="path5830"
       inkscape:connector-curvature="0" /><path
       d="m 897.988,191.461 c 3.024,-2.27 6.301,-4.172 9.653,-5.922 6.73,-7.801 17.597,-9.949 27.398,-10.75 9.672,0.383 19.461,1.711 28.41,5.652 7.192,2.7 13.379,7.309 20,11.09 -0.39,-1.832 -0.758,-3.66 -1.148,-5.48 -3.699,-1.492 -6.891,-3.922 -10.403,-5.742 -13.968,-7.34 -30.257,-10.649 -45.91,-8.09 -11.308,2.191 -22.929,8.453 -28,19.242 z"
       style="fill:#979797;fill-opacity:1;fill-rule:nonzero;stroke:none"
       id="path5832"
       inkscape:connector-curvature="0" /><path
       d="m 938.34,131.602 c 4.14,2.468 9.25,1.179 13.648,0.128 -0.508,-1.699 -1.039,-3.402 -1.558,-5.101 -2.25,-0.02 -4.801,1.019 -6.852,-0.199 -1.469,-1.75 -1.34,-4.301 -1.93,-6.418 2.102,0 4.223,-0.012 6.352,-0.012 -0.672,-2 -1.34,-3.988 -2,-5.988 -1.898,0 -3.781,-0.012 -5.66,-0.032 -1.711,-8.332 -3.469,-16.652 -5.199,-24.98 L 927,89 c 1.73,8.34 3.48,16.66 5.211,24.988 -1.75,0.012 -3.481,0.024 -5.211,0.024 0.648,2 1.32,3.988 2,5.976 1.488,0.024 3,0.024 4.52,0.032 1.019,3.992 0.96,9.082 4.82,11.582 z"
       style="fill:#000000;fill-opacity:1;fill-rule:nonzero;stroke:none"
       id="path5834"
       inkscape:connector-curvature="0" /><path
       d="m 992.43,131.66 c 4.14,2.391 9.191,1.121 13.57,0.059 -0.52,-1.699 -1.051,-3.391 -1.57,-5.09 -2.258,-0.02 -4.86,1.043 -6.891,-0.231 -1.41,-1.777 -1.309,-4.277 -1.891,-6.386 C 997.75,120 999.871,120 1002,120 c -0.672,-2 -1.34,-3.988 -2,-5.988 -1.898,0 -3.781,-0.012 -5.648,-0.024 C 992.621,105.66 990.871,97.328 989.141,89 L 981,89 c 1.73,8.34 3.48,16.66 5.211,24.988 -1.75,0.012 -3.481,0.024 -5.211,0.024 0.648,1.988 1.32,3.988 2,5.976 1.488,0.024 3,0.024 4.531,0.032 1.008,4.019 0.957,9.171 4.899,11.64 z"
       style="fill:#000000;fill-opacity:1;fill-rule:nonzero;stroke:none"
       id="path5836"
       inkscape:connector-curvature="0" /><path
       d="m 450.98,132 c 2.711,0 5.418,0.012 8.141,0 -1.062,-5.039 -2.082,-10.09 -3.18,-15.121 3.829,2.883 8.707,4.961 13.571,3.781 3.769,-0.832 6.386,-4.961 5.418,-8.719 -1.578,-7.652 -3.2,-15.293 -4.789,-22.941 -2.719,0 -5.43,0 -8.141,0.012 1.512,7.386 3.16,14.75 4.59,22.148 0.64,2.649 -2.442,4.36 -4.719,3.762 -4.141,-0.922 -7.223,-4.774 -8.09,-8.813 -1.332,-5.668 -2.41,-11.41 -3.64,-17.109 L 442,89 c 2.988,14.34 5.98,28.672 8.98,43 z"
       style="fill:#000000;fill-opacity:1;fill-rule:nonzero;stroke:none"
       id="path5838"
       inkscape:connector-curvature="0" /><path
       d="m 739,132 8.141,0 c -3,-14.328 -6,-28.66 -9,-43 -2.719,0 -5.442,0 -8.141,0.012 3,14.328 5.988,28.66 9,42.988 z"
       style="fill:#000000;fill-opacity:1;fill-rule:nonzero;stroke:none"
       id="path5840"
       inkscape:connector-curvature="0" /><path
       d="m 826.91,124.98 c 3.051,2.02 6.121,4.008 9.192,6.008 -0.704,-3.66 -1.411,-7.316 -2.122,-10.988 2,0.012 4,0 6.02,0 -0.672,-2 -1.34,-4 -2,-6 -1.73,0.012 -3.461,0 -5.172,0 -1.109,-6 -2.406,-11.969 -3.437,-17.98 0.16,-3.282 4.461,-1.899 6.621,-2.071 -0.703,-1.879 -1.391,-3.769 -2.09,-5.648 -3.512,-0.262 -7.434,-0.852 -10.531,1.219 -2.379,1.699 -2.77,4.992 -2.051,7.628 1.269,5.59 2.32,11.231 3.422,16.852 -1.602,0.012 -3.192,0.012 -4.762,0 0.66,2.012 1.32,4 2,6 l 3.93,0 c 0.332,1.66 0.648,3.328 0.98,4.98 z"
       style="fill:#000000;fill-opacity:1;fill-rule:nonzero;stroke:none"
       id="path5842"
       inkscape:connector-curvature="0" /><path
       d="m 499.949,112.609 c 2.699,8.032 12.813,9.981 19.961,7.332 3.149,-1.222 5.379,-4.519 5.07,-7.929 -0.46,-7.711 -4.101,-15.223 -2.492,-23.012 -2.519,0.012 -5.039,0 -7.547,0 -0.351,1.129 -0.679,2.25 -1,3.379 -2.882,-3.07 -7.312,-5.559 -11.57,-3.828 -7.09,2.73 -7.16,14.39 -0.422,17.57 4.629,2.18 9.961,1.367 14.762,2.957 0.008,1.621 0.867,3.793 -0.723,4.942 -2.59,1.941 -6.758,0.98 -8.16,-1.989 -2.629,0.168 -5.258,0.367 -7.879,0.578 z"
       style="fill:#000000;fill-opacity:1;fill-rule:nonzero;stroke:none"
       id="path5844"
       inkscape:connector-curvature="0" /><path
       d="m 602.539,115.57 c 4.109,5.039 11.652,6.75 17.633,4.371 6.656,-2.871 8.019,-11.793 6.019,-17.89 -6.769,-0.141 -13.543,0.008 -20.3,-0.063 -0.02,-3 0.988,-6.566 4.129,-7.687 3.261,-1.199 6.402,0.988 8.089,3.648 2.34,-0.609 4.68,-1.25 6.942,-2.148 -4.141,-7.922 -16.039,-10.621 -22.699,-4.371 -6.372,6.398 -5.313,17.519 0.187,24.14 z"
       style="fill:#000000;fill-opacity:1;fill-rule:nonzero;stroke:none"
       id="path5846"
       inkscape:connector-curvature="0" /><path
       d="m 666.941,112.621 c 2.731,8.008 12.84,9.988 20.008,7.309 2.762,-1.121 4.91,-3.809 5.012,-6.84 -0.012,-8.11 -4.199,-15.93 -2.473,-24.09 -2.519,0.012 -5.039,0 -7.547,-0.012 -0.363,1.141 -0.671,2.262 -1,3.391 -2.781,-2.918 -6.89,-5.367 -11.031,-4.008 -7.66,2.301 -7.89,14.758 -0.75,17.848 4.57,2.011 9.738,1.39 14.481,2.769 0.078,1.672 0.988,3.891 -0.692,5.063 -2.609,1.89 -6.73,0.929 -8.121,-2.02 -2.637,0.16 -5.269,0.367 -7.887,0.59 z"
       style="fill:#000000;fill-opacity:1;fill-rule:nonzero;stroke:none"
       id="path5848"
       inkscape:connector-curvature="0" /><path
       d="m 778.449,120.371 c 6.09,1.551 13.852,0.399 17.379,-5.371 3.852,-6.629 2.371,-15.59 -2.539,-21.301 -5.738,-7.078 -18.098,-7.879 -24.25,-0.969 -6.738,9.141 -1.969,24.848 9.41,27.641 z"
       style="fill:#000000;fill-opacity:1;fill-rule:nonzero;stroke:none"
       id="path5850"
       inkscape:connector-curvature="0" /><path
       d="m 886.441,120.359 c 6.09,1.571 13.84,0.422 17.379,-5.347 5.301,-9.184 0.539,-22.852 -9.699,-26.172 -6.242,-1.942 -14.402,-0.719 -18.031,5.238 -5.211,9.352 -0.52,23.594 10.351,26.281 z"
       style="fill:#000000;fill-opacity:1;fill-rule:nonzero;stroke:none"
       id="path5852"
       inkscape:connector-curvature="0" /><path
       d="m 1084.809,116.211 c 3.582,3.098 8.242,5.578 13.132,4.59 4.047,-0.563 6.918,-4.91 5.989,-8.871 -1.559,-7.649 -3.211,-15.282 -4.789,-22.93 L 1091,89 c 1.5,7.352 3.129,14.672 4.57,22.02 0.59,2.191 -1.5,4.191 -3.629,3.968 -3.492,-0.316 -6.421,-2.968 -7.882,-6.039 -2.637,-6.359 -3.329,-13.289 -4.918,-19.949 -2.719,0 -5.442,0 -8.141,0.012 2.148,10.316 4.34,20.636 6.48,30.968 2.7,0.032 5.418,0.032 8.141,0.02 -0.281,-1.262 -0.551,-2.52 -0.812,-3.789 z"
       style="fill:#000000;fill-opacity:1;fill-rule:nonzero;stroke:none"
       id="path5854"
       inkscape:connector-curvature="0" /><path
       d="m 548.988,119.988 c 2.672,0.012 5.332,0.024 8,0.012 1.211,-6.738 2.153,-13.539 3.563,-20.238 4.16,6.539 7.578,13.519 11.449,20.238 l 8,0 c -5.941,-10.34 -11.719,-20.77 -17.75,-31.051 -2.398,0.063 -4.801,0.063 -7.199,0.051 -2.031,10.328 -4.031,20.672 -6.063,30.988 z"
       style="fill:#000000;fill-opacity:1;fill-rule:nonzero;stroke:none"
       id="path5856"
       inkscape:connector-curvature="0" /><path
       d="m 1024.539,119.738 c 2.602,0.633 5.461,0.102 8.172,0.262 -1.59,-7.352 -3.481,-14.641 -4.902,-22.031 -0.688,-2.399 1.992,-4.258 4.16,-3.949 4.531,0.582 7.992,4.621 8.972,8.921 1.309,5.629 2.438,11.297 3.547,16.969 2.731,0.121 5.473,0.11 8.223,0.09 -2.191,-10.328 -4.402,-20.66 -6.602,-31 l -8.058,0 c 0.258,1.25 0.539,2.5 0.828,3.738 -3.93,-3.519 -9.609,-5.968 -14.84,-4.097 -4.027,1.488 -5.367,6.398 -4.367,10.25 1.457,6.98 3.199,13.91 4.867,20.847 z"
       style="fill:#000000;fill-opacity:1;fill-rule:nonzero;stroke:none"
       id="path5858"
       inkscape:connector-curvature="0" /><path
       d="m 610.34,113.801 c 1.988,1.629 5.262,1.648 7.031,-0.34 1.609,-1.742 1.539,-4.242 1.719,-6.461 -4.121,0 -8.231,-0.012 -12.352,0.02 0.633,2.492 1.403,5.199 3.602,6.781 z"
       style="fill:#ffffff;fill-opacity:1;fill-rule:nonzero;stroke:none"
       id="path5860"
       inkscape:connector-curvature="0" /><path
       d="m 780.512,114.371 c 3.449,1.699 8.226,-0.019 9.16,-3.93 0.949,-4.961 -0.512,-10.461 -3.942,-14.211 -2.449,-2.699 -7.23,-3.082 -9.742,-0.261 -2.457,2.672 -2.258,6.679 -1.418,9.961 0.852,3.379 2.559,6.98 5.942,8.441 z"
       style="fill:#ffffff;fill-opacity:1;fill-rule:nonzero;stroke:none"
       id="path5862"
       inkscape:connector-curvature="0" /><path
       d="m 888.5,114.371 c 3.441,1.699 8.219,-0.012 9.16,-3.902 0.961,-4.957 -0.488,-10.457 -3.91,-14.207 -2.289,-2.524 -6.602,-3.102 -9.23,-0.793 -2.758,2.359 -2.872,6.422 -2.122,9.703 0.782,3.637 2.481,7.609 6.102,9.199 z"
       style="fill:#ffffff;fill-opacity:1;fill-rule:nonzero;stroke:none"
       id="path5864"
       inkscape:connector-curvature="0" /><path
       d="m 506.59,101.34 c 2.621,1.769 5.91,1.93 8.922,2.601 -0.543,-3.91 -1.731,-9.371 -6.512,-9.91 -3.949,-0.711 -5.398,5.328 -2.41,7.309 z"
       style="fill:#ffffff;fill-opacity:1;fill-rule:nonzero;stroke:none"
       id="path5866"
       inkscape:connector-curvature="0" /><path
       d="m 673.559,101.32 c 2.621,1.789 5.929,1.95 8.953,2.621 -0.551,-3.89 -1.703,-9.269 -6.41,-9.91 -3.993,-0.801 -5.532,5.258 -2.543,7.289 z"
       style="fill:#ffffff;fill-opacity:1;fill-rule:nonzero;stroke:none"
       id="path5868"
       inkscape:connector-curvature="0" /><path
       d="m 1127,97 c 2.66,0.012 5.328,0.012 8,-0.012 -0.672,-2.66 -1.34,-5.316 -2,-7.988 -2.68,0 -5.352,0 -8,0.012 0.66,2.66 1.32,5.328 2,7.988 z"
       style="fill:#000000;fill-opacity:1;fill-rule:nonzero;stroke:none"
       id="path5870"
       inkscape:connector-curvature="0" /><path
       d="m 1161,97 c 2.66,0.012 5.328,0.012 8,0 -0.672,-2.672 -1.34,-5.328 -2,-8 l -8,0 c 0.66,2.672 1.32,5.34 2,8 z"
       style="fill:#000000;fill-opacity:1;fill-rule:nonzero;stroke:none"
       id="path5872"
       inkscape:connector-curvature="0" /><path
       d="m 1195,97 c 2.66,0.012 5.328,0.012 8,-0.012 -0.672,-2.66 -1.34,-5.316 -2,-7.988 -2.68,0 -5.352,0 -8,0.012 0.66,2.66 1.32,5.328 2,7.988 z"
       style="fill:#000000;fill-opacity:1;fill-rule:nonzero;stroke:none"
       id="path5874"
       inkscape:connector-curvature="0" /><path
       d="m 644.762,282.121 c 5.168,2.891 9.519,6.957 14.5,10.141 -0.09,-1.973 -0.172,-3.942 -0.223,-5.91 -7,-2.641 -12.461,-8.114 -19.34,-11.043 -17.168,-7.528 -36.097,-10.528 -54.738,-10.821 -16.473,-1.679 -33.09,-0.097 -49.582,-0.976 -3.68,-0.684 -4.238,-4.864 -4.91,-7.871 -4.949,-23.481 -9.629,-47.02 -14.649,-70.493 -1.129,-5.078 -2.961,-10.597 -7.82,-13.257 -8.199,-4.711 -18.02,-2.743 -27.02,-3.153 -8.902,0.434 -18.339,-1.418 -26.718,2.434 -5.543,2.43 -7.282,9.297 -6.453,14.816 0.832,0 2.511,0.012 3.339,0.012 0.211,-3.469 0.043,-7.48 2.731,-10.129 3.262,-2.941 7.922,-3.391 12.133,-3.473 9.316,-0.027 18.648,0 27.976,-0.019 4.371,0.043 9.102,0.262 12.821,2.851 3.972,3.02 5.23,8.141 6.25,12.758 4.82,23.461 9.722,46.903 14.531,70.364 0.648,2.648 1.269,5.726 3.73,7.339 2.571,1.649 5.758,1.68 8.719,1.739 15.981,-0.078 31.981,-0.078 47.961,0.32 19.449,1.629 39.691,4.191 56.762,14.371 z"
       style="fill:#e8e8e8;fill-opacity:1;fill-rule:nonzero;stroke:none"
       id="path5808"
       inkscape:connector-curvature="0" /></g><g
     inkscape:groupmode="layer"
     id="layer4"
     inkscape:label="bianco"
     style="display:inline"
     sodipodi:insensitive="true"><path
       style="fill:#ffffff;fill-opacity:1;fill-rule:nonzero;stroke:none;display:inline"
       d="m 207.34375,198.4376 c -4.37731,4.91743 -5.25247,21.91202 -0.46875,30.40625 -6.35831,8.30415 -11.88973,15.97061 -16.1875,24.625 -7.28501,14.0125 -10.03375,29.7675 -13.4375,45.03125 -0.3225,1.22625 -0.78375,2.38625 -1.375,3.5 -8.47125,15.77625 -16.62375,31.72625 -24.71875,47.6875 -5.865,12.35375 -10.46625,20.725 -12.46875,34.1875 -0.505,4.0625 -18.32141,99.7927 33.56008,138.96124 39.68626,29.96161 81.30273,38.43248 135.27304,25.56246 92.94063,-22.24005 88.83216,-145.54074 83.39788,-179.01523 -0.88875,-8.96 -7.69975,-24.86982 -10.19975,-33.50857 -4.385,-13.47625 -9.49,-27.14 -18.3125,-38.375 -2.8025,-3.82875 -7.03625,-6.27625 -9.9375,-9.9375 C 351.3075,277.65 348.545,268.03 345.78125,258.46875 337.62572,233.6333 332.93769,209.21528 321.8756,198.99632 279.45836,163.48978 234.31815,172.34635 207.34375,198.4376 z"
       id="path3091-4"
       inkscape:connector-curvature="0"
       sodipodi:nodetypes="cccccccscccccccc" /></g><g
     id="g3031"
     inkscape:groupmode="layer"
     inkscape:label="nero"
     transform="matrix(1.25,0,0,-1.25,0,625)"
     style="display:inline"
     sodipodi:insensitive="true"><g
       id="g3097"><g
         clip-path="url(#clipPath3101)"
         id="g3099"><g
           id="g3105" /></g></g><path
       style="fill:#000000;fill-opacity:1;fill-rule:nonzero;stroke:#ffffff;stroke-width:4;stroke-linecap:round;stroke-linejoin:round;stroke-miterlimit:4;stroke-opacity:1;stroke-dasharray:none"
       d="m 291.275,424.52504 c 3.68006,-14.45174 2.06239,-29.76659 3.825,-44.575 1.37194,-11.52631 1.30301,-23.50898 5.25,-34.425 2.49152,-6.89069 7.401,-12.657 11.35,-18.825 11.879,-17.05 24.365,-33.679 36.225,-50.75 6.3,-9.621 11.777,-19.733 17,-29.975 4.137,-9.11 8.922,-18.072 11,-27.95 4.961,-17.551 2.81363,-35.31447 -0.45637,-53.07647 -2.3727,-8.24184 -8.65416,-19.4084 -14.4387,-21.44897 -17.29639,2.34892 -23.51263,8.50013 -26.73777,25.12842 3.293,10.891 -0.56091,30.87313 -2.89313,43.24166 -8.58592,24.73846 -12.50349,33.45678 -23.84903,48.2054 13.96789,-22.54034 22.80588,-38.81436 26.81926,-70.85058 0.64565,-9.07028 1.31192,-12.7184 -1.03251,-20.74011 -8.52833,-1.7443 -16.5942,-7.62073 -21.67401,-12.63089 3.1464,35.60321 0.90967,51.74736 -7.08774,75.44658 -4.77186,14.14075 -12.27246,25.97706 -22.6,38.65 -0.929,7.93 -3.70469,15.626 -5.91569,23.275 -2.359,8.57 -10.06631,18.153 -14.10931,26.075 -2.729,7.348 -4.4311,16.01193 -10.575,24.8 -14.74414,21.0896 -54.46412,19.04408 -75.31766,4.96658 -9.34668,-6.30962 -9.31475,-17.03056 -10.55734,-32.14166 -5.08665,-7.77469 -9.51178,-12.77649 -12.95,-19.7 -5.828,-11.21 -8.027,-23.814 -10.75,-36.025 -0.258,-0.981 -0.627,-1.909 -1.1,-2.8 -6.777,-12.621 -13.299,-25.381 -19.775,-38.15 -7.83598,-17.32396 -11.33934,-42.23882 -12.4573,-60.57914 -6.01985,5.34172 -7.94641,9.41248 -8.975412,15.46248 -2.59972,16.19406 1.250642,34.23609 6.997912,50.08234 3.42559,9.44494 8.40054,18.17948 15.9348,25.58432 -8.6539,-9.55858 -13.69119,-17.41664 -17.36937,-27.6652 -5.435686,-15.14556 -9.189798,-30.62963 -6.187006,-47.87622 1.816386,-10.98769 7.013306,-15.00351 17.256376,-23.05858 14.012,-11.051 28.27,-21.79 42.2,-32.95 4.582,-4.238 9.145,-9.054 10.875,-15.225 1.039,-3.391 -0.087,-6.907 -1.325,-10.075 -3.332,-6 -13.57742,-11.447424 -24.42842,-9.928424 C 110.77026,86.626624 71.911809,138.28766 71.1,170 c -0.078,30.679 11.936,59.826 29.925,84.275 12.60586,17.79946 25.69708,35.86985 37.65,52.125 2.48,3.59 5.136,7.162 6.725,11.275 3.59,8.617 3.83928,18.08414 4.5,27.275 1.59251,22.1525 -4.20095,44.59218 -1.33137,66.61569 3.87007,35.47022 18.62441,58.79835 50.88185,65.56765 37.92364,7.95838 80.8877,-9.97056 91.82452,-52.6083 z"
       id="path4142"
       inkscape:connector-curvature="0"
       sodipodi:nodetypes="cssccccccccccccscccsscccccccscsccccccccccscsc" /><path
       style="fill:#000000;fill-opacity:1;fill-rule:nonzero;stroke:#ffffff;stroke-width:4;stroke-linecap:round;stroke-linejoin:round;stroke-miterlimit:4;stroke-opacity:1;stroke-dasharray:none"
       d="m 296.82601,95.367664 c 0.25,-4.187 13.87603,-27.846112 13.02403,-31.994112 C 295.76038,46.330072 193.55875,38.83028 150.645,52.393 149.49874,54.734624 140.0061,73.817328 142.38392,79.626296 166.01745,52.88856 276.53038,62.189088 296.82601,95.367664 z"
       id="path3091"
       inkscape:connector-curvature="0" /></g><g
     inkscape:groupmode="layer"
     id="layer3"
     inkscape:label="occhi"
     style="display:inline"
     sodipodi:insensitive="true"><path
       inkscape:connector-curvature="0"
       id="path3133"
       style="fill:#ffffff;fill-opacity:1;fill-rule:nonzero;stroke:none;display:inline"
       d="m 222.719,416.32 c 6.621,4.758 16.07,4.309 22.84,0.09 8.339,-5.922 12.421,-16.449 12.632,-26.422 0.028,-7.488 -0.73,-15.508 -5.363,-21.707 -17.42814,-8.32873 -19.87851,1.24428 -37.469,13.047 -3.879,9 -2.839,19.703 1.211,28.442 1.641,2.539 3.77,4.71 6.149,6.55 z"
       transform="matrix(1.25,0,0,-1.25,0,625)"
       sodipodi:nodetypes="ccccccc" /><path
       inkscape:connector-curvature="0"
       id="path3145"
       style="fill:#000000;fill-opacity:1;fill-rule:nonzero;stroke:none;display:inline"
       d="m 231.621,403.512 c 6.68,2.636 14.559,-3.403 14.399,-10.461 0.25,-7.403 0.761,-16.762 -6.231,-21.43 -4.609,1.488 -9.027,3.488 -13.469,5.399 -1.648,5.851 -1.781,12.031 -0.879,18.011 0.618,3.539 2.539,7.309 6.18,8.481 z"
       transform="matrix(1.25,0,0,-1.25,0,625)" /><path
       transform="matrix(1.25,0,0,-1.25,0,625)"
       inkscape:connector-curvature="0"
       id="path3137"
       style="fill:#ffffff;fill-opacity:1;fill-rule:nonzero;stroke:none;display:inline"
       d="m 162.461,407.602 c 3.58104,5.54536 8.59341,10.59631 17.84,8.597 11.24782,-4.75106 13.44416,-26.12493 10.78469,-34.21984 -7.69742,-9.64506 -6.954,-14.69026 -21.29863,-17.48337 -10.18476,11.36244 -12.59248,34.36659 -7.32606,43.10621 z"
       sodipodi:nodetypes="ccccc" /><path
       inkscape:connector-curvature="0"
       id="path3167"
       style="fill:#000000;fill-opacity:1;fill-rule:nonzero;stroke:none;display:inline"
       d="m 209.27183,130.02993 c 1.91963,-8.33742 14.83172,-9.78905 18.91033,-2.45554 3.97265,6.93455 5.26469,15.22271 4.44082,23.11043 -5.68643,1.9954 -8.13629,6.78276 -13.12232,10.12563 -10.42266,-5.6433 -12.4125,-20.69915 -10.22883,-30.78052 z"
       sodipodi:nodetypes="ccccc" /></g><g
     inkscape:groupmode="layer"
     id="layer5"
     inkscape:label="giallo"
     style="display:inline"
     sodipodi:insensitive="true"><g
       transform="matrix(1.3107652,0,0,-1.3311137,-12.730576,653.40936)"
       style="display:inline"
       id="g3213"><g
         clip-path="url(#clipPath3217)"
         id="g3215"><g
           id="g3221" /></g></g><g
       id="g5887"
       style="fill:#ffc500;fill-opacity:1;stroke:#cd7d00;stroke-width:5;stroke-linecap:round;stroke-linejoin:round;stroke-miterlimit:4;stroke-opacity:1;stroke-dasharray:none"><path
         sodipodi:nodetypes="ccccccccccccccccccccc"
         d="m 109.59952,425.11189 c -6.26977,-0.0844 -12.722957,3.29109 -15.350857,9.04761 -3.66735,6.32527 -7.7818,12.4256 -12.54336,17.98786 -3.79727,4.40813 -9.519301,7.70305 -15.480801,7.09468 -9.24542,-0.98924 -19.15705,-2.15742 -27.89422,1.81617 -4.05076,1.48386 -5.08511,6.35595 -5.47872,10.16594 0.40762,7.76824 1.40375,15.48663 1.91074,23.25998 0.57194,8.8559 1.28911,17.72841 1.91073,26.58558 0.66239,7.34903 -3.37308,13.84429 -4.96536,20.79839 l -0.51336,0.13037 c -1.87125,6.1604 -4.92078,12.12653 -5.25453,18.6563 -0.11464,3.62978 2.83681,6.61028 6.27487,7.22505 26.027637,5.92351 49.843257,11.5272 73.498428,18.56172 7.6052,2.74143 16.61357,5.43941 22.96452,8.65651 17.09218,8.78304 36.75113,14.18426 56.01264,11.1539 17.41082,-4.03344 31.65182,-26.60832 27.51716,-40.92832 -2.83171,-9.57674 -7.75759,-18.3585 -12.67328,-26.97028 -4.90678,-7.93823 -9.7333,-15.95059 -15.2859,-23.45554 -6.45957,-9.47066 -12.89748,-18.9656 -19.4615,-28.37235 -6.80223,-10.50463 -13.46433,-21.08851 -20.3812,-31.5024 -8.84162,-11.37966 -20.54414,-29.56888 -34.806,-29.91117 z"
         style="fill:#ffc500;fill-opacity:1;stroke:#cd7d00;stroke-width:5;stroke-linecap:round;stroke-linejoin:round;stroke-miterlimit:4;stroke-opacity:1;stroke-dasharray:none;display:inline"
         id="path3371-6"
         inkscape:connector-curvature="0" /><path
         sodipodi:nodetypes="ccccccaccccccccccc"
         d="m 371.57723,432.44798 c -1.41967,0.0397 -2.84446,0.28592 -4.28461,0.80135 -4.61105,3.11567 -5.14103,9.36625 -6.17538,14.39492 -3.06894,21.73335 4.19395,47.28373 0.50953,66.47663 -1.55025,8.55463 -3.37572,17.07978 -5.21528,25.5844 -2.33112,12.33062 -6.50565,24.6215 -5.18583,37.34318 3.00595,22.02274 15.57986,30.69894 30.43267,34.19674 16.10766,3.79332 35.30374,-5.99244 46.08489,-18.46067 17.91029,-16.5117 35.1348,-30.83633 56.07123,-39.55749 10.46127,-5.06329 23.12822,-7.56224 30.56324,-17.2439 4.07084,-5.39921 6.81369,-10.77152 5.53356,-17.72344 -4.11052,-7.90842 -13.37439,-10.0586 -19.70978,-15.41678 -8.18135,-6.78652 -15.4218,-14.91548 -20.89694,-24.04068 -5.73629,-9.60729 -2.41561,-21.5866 -6.81544,-31.57341 -2.19031,-4.73377 -7.67185,-5.16458 -12.22658,-4.90943 -33.27886,5.83305 -48.71988,4.13593 -68.8684,-5.71058 -5.32536,-2.86436 -13.64531,-4.3365 -19.81685,-4.16084 z"
         style="fill:#ffc500;fill-opacity:1;stroke:#cd7d00;stroke-width:5;stroke-linecap:round;stroke-linejoin:round;stroke-miterlimit:4;stroke-opacity:1;stroke-dasharray:none;display:inline"
         id="path3053-6"
         inkscape:connector-curvature="0" /><path
         sodipodi:nodetypes="ccccccccccccccccacccccc"
         inkscape:connector-curvature="0"
         id="path3259"
         d="m 249.98085,146.58781 c -3.46173,0.0519 -6.90249,0.57239 -10.22527,1.73179 -11.28439,3.71248 -19.89743,12.38467 -28.37545,20.39799 -3.55349,3.59267 -7.34815,7.13876 -9.73374,11.67786 -1.61355,3.17204 -0.34866,7.23381 0.49153,10.41518 7.34622,4.9725 1.67453,2.61367 8.33673,5.21114 7.90241,4.68553 12.47489,6.50847 20.20674,7.77121 17.18281,0.90514 35.18165,-0.12829 49.9946,-9.91464 9.31955,-6.08319 18.84946,-13.90444 29.06754,-16.47253 0.60426,1.14475 -0.38454,-0.46361 0.2289,0.69579 -12.9157,3.38747 -21.03107,11.2995 -31.64847,17.93404 -9.71277,5.50548 -20.08741,7.39915 -30.99298,8.43875 -9.71399,0.36872 -18.42085,0.18603 -26.30118,-3.02195 -6.04131,-2.25224 -13.15941,-6.66832 -18.67783,-10.54169 2.63727,5.60532 11.68508,10.87702 14.92661,15.97785 6.61411,9.48951 16.11322,17.0702 27.22852,20.20099 8.87387,2.1524 17.99206,-0.23394 26.349,-3.13079 11.44325,-3.96668 19.81973,-13.53471 30.99269,-18.963 6.98375,-3.78036 16.17912,-7.07225 18.81639,-15.91085 0.83364,-5.39234 1.38678,-10.88318 2.22698,-16.20764 -3.41061,-7.20132 -12.35002,-6.51047 -18.74525,-8.78801 -14.09053,-3.97573 -24.81502,-10.06744 -37.12611,-14.50648 -5.44361,-1.84625 -11.2752,-3.07753 -17.03995,-2.99501 z"
         style="fill:#ffc500;fill-opacity:1;fill-rule:nonzero;stroke:#cd7d00;stroke-width:5;stroke-linecap:round;stroke-linejoin:round;stroke-miterlimit:4;stroke-opacity:1;stroke-dasharray:none;display:inline" /><path
         inkscape:transform-center-x="0.062612849"
         inkscape:transform-center-y="-2.4949984"
         inkscape:connector-curvature="0"
         id="path5710"
         d="m 259.42366,156.00667 c 2.8649,0.44233 5.73198,0.91945 8.55266,1.58091 -0.25206,4.27988 -5.74898,2.05875 -7.71153,-0.12115 z"
         style="fill:#ffc500;fill-opacity:1;fill-rule:nonzero;stroke:#cd7d00;stroke-width:5;stroke-linecap:round;stroke-linejoin:round;stroke-miterlimit:4;stroke-opacity:1;stroke-dasharray:none;display:inline" /><path
         inkscape:connector-curvature="0"
         id="path5708"
         d="m 233.23842,159.63884 c 2.09663,-1.43561 4.43784,-2.44024 6.91403,-2.99781 -0.73112,3.21556 -4.14567,4.13281 -6.91403,2.99781 z"
         style="fill:#ffc500;fill-opacity:1;fill-rule:nonzero;stroke:#cd7d00;stroke-width:5;stroke-linecap:round;stroke-linejoin:round;stroke-miterlimit:4;stroke-opacity:1;stroke-dasharray:none;display:inline" /></g></g><g
     inkscape:groupmode="layer"
     id="layer6"
     inkscape:label="mano"
     style="display:inline"
     sodipodi:insensitive="true"><path
       transform="matrix(1.25,0,0,-1.25,0,625)"
       style="fill:#000000;fill-opacity:1;fill-rule:nonzero;stroke:#ffffff;stroke-width:4;stroke-linecap:round;stroke-linejoin:round;stroke-miterlimit:4;stroke-opacity:1;stroke-dasharray:none;display:inline"
       d="m 335.74706,167.71422 c 10.13854,0.11523 35.2154,-5.96678 31.92794,-22.61422 -1.86,-5.328 -5.25,-9.982 -9.5,-13.65 -10.56514,-8.42886 -20.70098,-8.38187 -32.575,-4.55 -9.959,3.83203 -16.41842,8.46346 -16.4299,17.54706 1.26018,12.73081 17.11221,23.14066 26.57696,23.26716 z"
       id="path4140"
       inkscape:connector-curvature="0" /></g><g
     inkscape:groupmode="layer"
     id="layer1"
     inkscape:label="birra"
     style="display:inline"
     sodipodi:insensitive="true"><path
       inkscape:connector-curvature="0"
       id="path3393"
       style="fill:#e5e5e5;fill-opacity:1;fill-rule:nonzero;stroke:none"
       d="m 236.94556,427.92956 c 3.14669,1.35765 4.65947,5.07786 6.63536,7.24355 -1.9875,1.78625 -3.95,3.59875 -5.9225,5.41 -1.3525,-3.72625 -0.57625,-7.725 -0.80125,-11.5725 z"
       sodipodi:nodetypes="ccccc" /><path
       transform="matrix(1.25,0,0,-1.25,0,625)"
       inkscape:connector-curvature="0"
       id="path3323"
       style="fill:#bfbebf;fill-opacity:1;fill-rule:nonzero;stroke:none"
       d="m 213.309,186.199 c 7.179,1.711 14.289,4.321 21.781,4.199 7.93,0.321 15.637,-1.796 23.262,-3.648 2.277,-0.609 4.425,-1.59 6.543,-2.629 -6.137,0.699 -12.293,1.66 -18.137,3.68 -5.641,2.051 -11.77,1.301 -17.621,0.808 -3.059,-0.25 -4.305,-3.757 -7.086,-4.679 -6.442,-2.258 -13.289,-3.66 -19.25,-7.039 -3.313,-2.301 -7.21981,-6.93212 -8.17851,-8.77042 -0.33765,-1.3021 -0.74106,-5.20428 -0.51349,-7.83158 -0.777,1.383 -2.086,2.563 -2.379,4.16 0.071,2.262 0.77,4.442 1.184,6.653 3.566,8.25 12.305,12.328 20.395,15.097 z"
       sodipodi:nodetypes="ccccccccccccc" /><path
       transform="matrix(1.25,0,0,-1.25,0,625)"
       inkscape:connector-curvature="0"
       id="path3327"
       style="fill:#dddddd;fill-opacity:1;fill-rule:nonzero;stroke:none"
       d="m 222.051,183.93 c 2.781,0.922 4.027,4.429 7.086,4.679 5.851,0.493 11.98,1.243 17.621,-0.808 5.844,-2.02 12,-2.981 18.137,-3.68 0.375,-0.18 1.132,-0.551 1.515,-0.742 3.281,-4.527 8.617,-7.867 9.805,-13.688 0.656,-4.421 -0.781,-10.339 -5.805,-11.543 -3.461,-1.679 -6.976,0.563 -10.297,1.5 -11.129,3.922 -23.148,4.153 -34.793,3.012 -9.672,-0.07 -18.269,-4.949 -27.422,-7.351 -1.609,1.371 -2.722,3.179 -3.789,4.98 -0.629,3.81 -0.24593,6.50673 0.37207,7.90229 1.48903,3.42929 5.00693,6.39871 8.31993,8.69971 5.961,3.379 12.808,4.781 19.25,7.039 z"
       sodipodi:nodetypes="cccccccccccccc" /><path
       transform="matrix(1.25,0,0,-1.25,0,625)"
       inkscape:connector-curvature="0"
       id="path3329"
       style="fill:#cbc4c3;fill-opacity:1;fill-rule:nonzero;stroke:none"
       d="m 266.41,183.379 c 5.914,-2.699 9.774,-8.098 13.125,-13.391 2.379,-4.539 -1.113,-9.168 -3.707,-12.758 -3.23,-0.73 -6.64,-0.789 -9.73,-1.968 -4.516,-3.121 -8.305,-7.403 -13.418,-9.621 -5.387,-1.422 -11.098,-1.082 -16.598,-0.621 -2.844,0.171 -5.305,1.671 -7.512,3.32 2.825,1.988 6.399,1.808 9.68,2.25 -5.871,1.91 -12.07,0.539 -18.105,0.898 -3.372,0.313 -6.278,-1.629 -9.387,-2.519 -3.18,0.929 -5.742,3.429 -9.074,4.16 -1.317,0.633 -2.571,1.371 -3.786,2.18 9.153,2.402 17.75,7.281 27.422,7.351 11.645,1.141 23.664,0.91 34.793,-3.012 3.321,-0.937 6.836,-3.179 10.297,-1.5 5.024,1.204 6.461,7.122 5.805,11.543 -1.188,5.821 -6.524,9.161 -9.805,13.688 z" /><path
       transform="matrix(1.25,0,0,-1.25,0,625)"
       inkscape:connector-curvature="0"
       id="path3331"
       style="fill:#e8e9e9;fill-opacity:1;fill-rule:nonzero;stroke:none"
       d="m 237.43,177.699 c 6.55,1.762 13.57,-0.679 19.961,1.879 6.113,-1.156 11.875,-4.156 16.273,-8.527 1.031,-1.992 -0.215,-4.281 -1.074,-6.121 -1.813,-2.481 -5.328,-2.039 -8.02,-1.789 -5.41568,-1.45436 -11.03466,0.90096 -15.273,1.058 -7.774,0.141 -15.543,-0.039 -23.32,-0.078 -5.172,0.141 -10.114,-1.57 -15.207,-2.191 -4.012,-1.032 -8.458,-3.731 -12.438,-1.059 6.129,6.617 15.172,9.859 23.797,11.938 5.519,0.32 9.906,4.082 15.301,4.89 z"
       sodipodi:nodetypes="ccccccccccc" /><path
       transform="matrix(1.25,0,0,-1.25,0,625)"
       inkscape:connector-curvature="0"
       id="path3391"
       style="fill:#736c6c;fill-opacity:1;fill-rule:nonzero;stroke:none"
       d="m 188.145,159.762 c 0.335,-0.532 1.09007,-1.43722 1.41407,-1.96422 L 189.453,157.039 c -0.305,-0.211 -0.54845,-0.74707 -0.85345,-1.62582 0.88187,-9.43275 -2.34555,-17.36218 1.63045,-25.67518 1.52,-2.808 3.082,-6.148 6.383,-7.226 10.762,-5.403 22.367,-9.864 34.578,-10.192 9.207,-1.492 18.766,-0.5 27.657,2.16 7.414,3.231 15.523,6.559 20.273,13.418 3.281,4.743 3.484,10.633 4.527,16.082 l 0.696,-0.878 c 0.445,-7.704 0.468,-15.473 -1.051,-23.063 0.09,0.859 0.262,2.57 0.355,3.43 -11.476,-8.321 -25.246,-13.297 -39.332,-14.879 -10.613,-0.121 -21.519,-0.52 -31.675,3.039 -5.266,1.66 -10.164,4.223 -15.379,6.012 -3.801,1.168 -5.907,4.757 -8.68,7.289 -0.113,-0.52 -0.344,-1.551 -0.465,-2.071 -1.164,12.243 -1.359,24.68 0.028,36.903 z"
       sodipodi:nodetypes="ccccccccccccccccccc" /><path
       transform="matrix(1.25,0,0,-1.25,0,625)"
       inkscape:connector-curvature="0"
       id="path3403"
       style="fill:#bbb1af;fill-opacity:1;fill-rule:nonzero;stroke:none"
       d="m 282.32,154.398 c 0.051,-0.359 0.16,-1.07 0.211,-1.418 0.133,-3.429 -0.25,-6.859 -1.019,-10.199 -3.28026,0.23252 -5.723,-1.371 -6.532,-3.902 -1.8669,-4.85244 -0.57128,-7.10702 -7.304,-4.848 -7.938,-2.992 -16.535,-4.351 -23.875,-8.742 -5.125,-1.129 -10.512,-2.289 -15.746,-1.059 -4.293,0.899 -8.172,3.211 -12.539,3.872 -2.043,0.468 -4.321,0.429 -6.145,1.527 -2.398,2.293 -4.223,5.562 -7.676,6.441 -1.398,0.301 -3.383,-0.922 -4.234,0.649 -1.172,2.851 -1.883,5.871 -3.016,8.742 -1.062,-0.449 -2.125,-0.891 -3.179,-1.34 -0.387,1.231 -0.782,2.438 -1.164,3.66 1.597,1.449 3.187,2.899 4.8,4.328 0.739,-0.711 1.496,-1.398 2.297,-2.078 3.149,-2.5 6.621,-4.66 10.418,-6.082 11.121,-4.23 23.242,-6.179 35.141,-5.09 6.601,0.582 13.133,2.18 19.207,4.782 4.75,1.808 9.094,4.48 13.035,7.64 5.56874,-5.19464 6.5976,-2.23481 7.32,3.117 z"
       sodipodi:nodetypes="ccccccccccccccccccccc" /><path
       transform="matrix(1.25,0,0,-1.25,0,625)"
       inkscape:connector-curvature="0"
       id="path3395"
       style="fill:#e1e1e2;fill-opacity:1;fill-rule:nonzero;stroke:none"
       d="m 275,151.281 c 2.277,2.571 4.129,5.547 6.875,7.68 0.16,-1.52 0.313,-3.039 0.445,-4.563 -0.363,-2.957 -0.65929,-4.99076 -0.95229,-7.95876 -2.258,1.742 -4.00945,2.89318 -6.36771,4.84176 z"
       sodipodi:nodetypes="ccccc" /><path
       transform="matrix(1.25,0,0,-1.25,0,625)"
       inkscape:connector-curvature="0"
       id="path3333"
       style="fill:#878484;fill-opacity:1;fill-rule:nonzero;stroke:none"
       d="m 192.785,158.301 c -3.07,3.769 -2.18,8.898 0.129,12.801 -0.414,-2.211 -1.113,-4.391 -1.184,-6.653 0.843,-2.297 1.752,-3.027 2.679,-4.31 1.8533,-3.49837 3.91883,-5.03232 7.275,-7.01 0.609,-1.207 2.00382,-2.19787 2.63282,-3.40487 -4.26052,2.40439 -8.58513,5.86162 -11.53182,8.57687 z"
       sodipodi:nodetypes="ccccccc" /><path
       transform="matrix(1.25,0,0,-1.25,0,625)"
       inkscape:connector-curvature="0"
       id="path3397"
       style="fill:#aba09e;fill-opacity:1;fill-rule:nonzero;stroke:none"
       d="m 188.5642,155.51925 c 0.12822,1.09088 0.40702,1.52088 1.03022,2.15615 0.184,-3.078 -0.58642,-6.9134 0.50758,-9.8944 0.382,-1.222 0.777,-2.429 1.164,-3.66 1.054,0.449 2.117,0.891 3.179,1.34 1.133,-2.871 1.844,-5.891 3.016,-8.742 0.851,-1.571 2.836,-0.348 4.234,-0.649 3.453,-0.879 5.278,-4.148 7.676,-6.441 1.824,-1.098 4.102,-1.059 6.145,-1.527 4.367,-0.661 8.246,-2.973 12.539,-3.872 5.234,-1.23 10.621,-0.07 15.746,1.059 14.76161,8.14418 24.27628,6.65444 31.39113,15.21635 5.64193,3.74124 7.6426,3.29651 7.33887,12.47465 l 1.055,-0.851 c 0.211,-2.699 0.293,-5.43 0.062,-8.149 -1.046,-5.449 -1.246,-11.339 -4.527,-16.082 -4.75,-6.859 -12.859,-10.187 -20.273,-13.418 -8.891,-2.66 -18.45,-3.652 -27.657,-2.16 -12.211,0.328 -23.816,4.789 -34.578,10.192 -3.301,1.078 -4.863,4.418 -6.383,7.226 -3.976,8.313 -1.42033,16.84347 -1.6658,25.78125 z"
       sodipodi:nodetypes="ccccccccccccccccccccc" /><path
       transform="matrix(1.25,0,0,-1.25,0,625)"
       inkscape:connector-curvature="0"
       id="path3399"
       style="fill:#b9afad;fill-opacity:1;fill-rule:nonzero;stroke:none"
       d="m 266.098,155.262 c 3.09,1.179 6.5,1.238 9.73,1.968 -4.293,-5.082 -9.965,-9.089 -16.324,-11.218 -9.387,-3.672 -19.633,-4.782 -29.668,-4.313 -15.59449,2.23163 -20.3334,4.68816 -26.96875,8.76759 -0.3108,1.27771 -1.28136,2.26858 -1.64287,2.87454 2.71697,-1.11145 16.66845,-1.70684 18.92062,-1.85313 6.035,-0.359 12.234,1.012 18.105,-0.898 -3.281,-0.442 -6.855,-0.262 -9.68,-2.25 2.207,-1.649 4.668,-3.149 7.512,-3.32 5.5,-0.461 11.211,-0.801 16.598,0.621 5.113,2.218 8.902,6.5 13.418,9.621 z"
       sodipodi:nodetypes="cccccccccccc" /><path
       style="fill:#33302f;fill-opacity:1;fill-rule:nonzero;stroke:none"
       d="m 235.7275,468.8375 c 2.79982,2.4399 8.6389,8.09615 13.53573,9.85906 11.49871,4.82745 23.52586,9.19086 36.15925,10.34505 17.62825,0.42355 24.90945,-0.16591 38.24317,-3.4212 11.03722,-3.20533 21.58157,-8.20305 30.89435,-14.95666 0.56335,11.04098 -15.24826,13.06924 -21.98034,16.07189 -16.31414,5.35616 -29.40832,5.69775 -42.04707,5.57168 -16.26495,0.44063 -35.43656,-4.12291 -51.3594,-13.92984 -3.06865,-1.39902 -3.13022,-0.7738 -4.28538,-10.6448 z"
       id="path3457"
       inkscape:connector-curvature="0"
       sodipodi:nodetypes="cccccccccc" /><path
       transform="matrix(1.25,0,0,-1.25,0,625)"
       inkscape:connector-curvature="0"
       id="path3321"
       style="fill:#0c0909;fill-opacity:1;fill-rule:nonzero;stroke:none"
       d="m 215.68,190.289 c 9.476,3.172 19.264,3.352 29.496,2.141 12.285,-1.989 26.035,-5.5 33.551,-16.168 1.578,-2.832 3.281,-5.782 3.441,-9.09 0.937,-4.774 1.5893,-11.76843 2.72407,-29.92142 0.0503,-10.19626 -1.32505,-19.69748 -2.67571,-23.79901 -0.3212,1.33913 1.29075,17.15705 1.22345,23.0967 -0.45352,7.40889 -0.86681,15.16854 -1.56481,22.41273 -2.746,-2.133 -4.598,-5.109 -6.875,-7.68 -10.63674,-9.06426 -26.98945,-12.6834 -37.59909,-12.89784 -18.47649,0.27419 7.84117,4.07163 14.90584,5.06898 1.59719,0.22548 -12.40479,-1.98483 -9.93634,-1.55545 13.9251,1.72211 25.95763,6.6333 33.45759,15.33331 2.594,3.59 6.086,8.219 3.707,12.758 -3.351,5.293 -7.211,10.692 -13.125,13.391 -0.383,0.191 -1.14,0.562 -1.515,0.742 -2.118,1.039 -4.266,2.02 -6.543,2.629 -7.625,1.852 -15.332,3.969 -23.262,3.648 -7.492,0.122 -14.602,-2.488 -21.781,-4.199 -8.09,-2.769 -16.829,-6.847 -20.395,-15.097 -2.309,-3.903 -3.199,-9.032 -0.129,-12.801 13.94324,-10.64557 16.99823,-14.34666 40.46325,-16.67022 8.00099,0.14923 9.68211,0.26295 16.20963,1.40485 4.45316,0.77903 -4.76329,-4.31335 -16.42583,-4.52393 -3.57314,-0.0343 -26.0111,2.53853 -35.83305,11.5193 -3.82199,3.01048 -6.67352,5.86974 -9.054,9.731 0.17518,4.66226 0.398,8.84 2.625,12.738 4.109,10.039 15.015,14.961 24.91,17.789 z"
       sodipodi:nodetypes="ccccccccccscccccccccccsccccc" /><path
       style="fill:#404040;fill-opacity:1;fill-rule:nonzero;stroke:none"
       d="m 248.57559,582.89217 c 3.96855,10.08715 12.52207,18.5241 23.15792,21.22996 10.12487,2.97578 20.81341,3.94181 31.32901,3.36338 12.17718,-0.89093 24.17501,-5.88616 32.68377,-14.77429 1.4953,-1.4223 3.93625,-5.08957 3.36584,-0.94744 -1.49987,5.72917 -5.70888,9.48647 -10.08431,12.54037 -12.19345,7.84654 -27.25939,9.14093 -41.40171,8.44069 -11.72555,-0.59656 -23.52857,-4.30522 -32.7695,-11.68874 -4.45203,-4.16007 -7.05524,-11.22064 -6.28102,-18.16393 z"
       id="path3535"
       inkscape:connector-curvature="0"
       sodipodi:nodetypes="ccccccccc" /><path
       style="fill:#120f0f;fill-opacity:1;fill-rule:nonzero;stroke:none"
       d="m 354.50444,475.1275 c -10.09071,8.68863 -22.81182,11.60655 -35.38962,14.7262 -9.03243,2.05016 -18.05639,2.12078 -26.61716,2.28388 -16.88442,-0.19068 -28.9223,-2.94766 -38.62823,-6.7713 -7.53098,-3.26257 -12.83379,-5.17378 -17.77184,-9.59592 2.75766,14.24737 8.23351,32.75873 14.16126,45.9412 4.38283,10.06923 7.50615,20.90164 6.97695,31.98152 0.69455,6.41201 -2.77319,13.97631 1.92722,19.34039 4.50486,7.04595 10.92894,13.5298 19.45765,15.12762 13.82691,3.81798 28.36987,2.5211 41.4926,-3.31178 5.72837,-2.57625 9.53438,-5.84865 12.2644,-9.11097 -0.0673,-3.95494 -0.66508,-5.94222 -0.94199,-8.3058 -3.53874,-17.08246 1.62235,-34.54978 9.23508,-49.79451 5.95434,-12.38396 10.48625,-24.57714 13.01281,-38.41345 0.19261,-1.15826 0.6424,-2.93656 0.82087,-4.09708 z"
       id="path3539"
       inkscape:connector-curvature="0"
       sodipodi:nodetypes="ccccccccccccccc" /><path
       style="fill:#404040;fill-opacity:1;fill-rule:nonzero;stroke:none"
       d="m 253.0444,574.9173 c 3.69762,9.23073 11.56811,16.93084 21.35957,19.32378 11.87567,3.21567 24.59729,4.35203 36.70857,1.78051 9.67286,-2.15588 18.37986,-7.77254 24.83372,-15.23236 1.24898,6.2157 -4.73519,10.51474 -9.12031,13.6885 -11.41765,6.7197 -25.16604,8.12294 -38.16398,7.3733 -11.01146,-0.75061 -22.51658,-3.98418 -30.58428,-11.86507 -3.63907,-3.99345 -6.31416,-9.57548 -5.03329,-15.06866 z"
       id="path3206"
       inkscape:connector-curvature="0" /><path
       sodipodi:nodetypes="ccccccccc"
       inkscape:connector-curvature="0"
       id="path3208"
       style="fill:#404040;fill-opacity:1;fill-rule:nonzero;stroke:none"
       d="m 256.7283,567.8327 c 1.59214,3.72956 4.07985,7.01766 7.22223,9.88435 5.15559,5.01672 12.45534,6.66315 19.63986,7.97323 12.96651,1.80601 26.5667,2.00763 38.05629,-4.54657 4.24325,-2.22838 7.56579,-5.10271 10.78149,-8.36883 1.20668,4.91255 -3.80122,8.31245 -7.46733,11.02625 -9.11186,5.4018 -20.44532,6.82426 -31.06764,6.90968 -11.14071,-0.27673 -21.28332,-1.94262 -30.71132,-8.54314 -4.03622,-3.15446 -7.86433,-8.81755 -6.45358,-14.33497 z" /></g></svg>