<?xml version="1.0" encoding="utf-8"?>
<!-- Generator: Adobe Illustrator 16.0.0, SVG Export Plug-In . SVG Version: 6.00 Build 0)  -->
<!DOCTYPE svg PUBLIC "-//W3C//DTD SVG 1.1//EN" "http://www.w3.org/Graphics/SVG/1.1/DTD/svg11.dtd">
<svg version="1.1" id="Layer_1" xmlns="http://www.w3.org/2000/svg" xmlns:xlink="http://www.w3.org/1999/xlink" x="0px" y="0px"
	 width="126.5px" height="149.333px" viewBox="0 0 126.5 149.333" enable-background="new 0 0 126.5 149.333" xml:space="preserve">
<g id="Layer_3" display="none">
	<rect x="-41.667" y="-23.667" display="inline" fill="#FFFFFF" width="576.667" height="185.333"/>
</g>
<g id="Layer_2">
</g>
<g id="Layer_4">
	<g id="layer4">
		<path id="path3091-4" fill="#FFFFFF" d="M49.146,48.996c-1.002,1.146-1.225,5.042-0.11,7.009c-1.447,1.93-2.729,3.711-3.73,5.685
			c-1.67,3.243-2.302,6.879-3.105,10.386c-0.066,0.278-0.179,0.557-0.289,0.821c-1.951,3.632-3.842,7.307-5.73,10.98
			c-1.338,2.84-2.395,4.787-2.844,7.9c-0.122,0.946-4.229,22.995,7.739,32.037c9.129,6.904,18.746,8.866,31.198,5.887
			c21.389-5.127,20.483-33.563,19.246-41.262c-0.211-2.059-1.77-5.73-2.387-7.734c-1.03-3.119-2.163-6.271-4.2-8.852
			c-0.635-0.891-1.638-1.448-2.305-2.282c-0.253-2.283-0.892-4.511-1.56-6.737c-1.893-5.734-2.95-11.356-5.479-13.694
			C65.818,40.957,55.381,42.964,49.146,48.996z"/>
	</g>
	<g id="g3031" transform="matrix(1.25,0,0,-1.25,0,625)">
		<g id="g3097">
			<g>
				<g>
					<defs>
						<path id="SVGID_1_" d="M49.728,492.816c-1.905,0.002-3.864-0.336-5.67-0.975c-1.579-0.516-3.043-1.375-4.255-2.478
							c-0.475-0.411-0.887-0.888-1.242-1.38c-0.401-0.58-0.713-1.211-0.979-1.879c-0.189-0.681-0.268-1.38-0.298-2.092
							c0.03-0.66,0.164-1.286,0.388-1.907c0.223-0.709,0.623-1.342,1.069-1.96c0.579-0.847,1.47-1.424,2.175-2.185
							c0.496-0.087,0.986-0.176,1.476-0.275c0.706-0.257,1.291-0.745,1.648-1.38c2.316-0.04,4.677,0.074,7.015-0.165
							c0.416,0.617,0.891,1.12,1.515,1.555c1.536,1.146,3.827,1.024,5.43,0.039c0.981,0.718,2.05,1.425,2.763,2.449
							c0.444,0.59,0.8,1.246,1.069,1.958c0.178,0.585,0.269,1.209,0.356,1.839c-0.009,0.698-0.091,1.37-0.269,2.032
							c-0.266,0.68-0.62,1.351-1.002,1.963c-0.399,0.494-0.779,0.975-1.223,1.383c-1.248,1.105-2.67,1.961-4.273,2.463
							C53.595,492.48,51.678,492.813,49.728,492.816L49.728,492.816z"/>
					</defs>
					<clipPath id="SVGID_2_">
						<use xlink:href="#SVGID_1_"  overflow="visible"/>
					</clipPath>
					<g id="g3099" clip-path="url(#SVGID_2_)">
						<g id="g3105">
						</g>
					</g>
				</g>
			</g>
		</g>
		<path id="path4142" fill="#010101" stroke="#FFFFFF" stroke-width="0.9224" stroke-linecap="round" stroke-linejoin="round" d="
			M68.238,480.007c0.873-3.335,0.456-6.855,0.891-10.281c0.313-2.67,0.269-5.431,1.22-7.925c0.56-1.603,1.72-2.939,2.61-4.364
			c2.759-3.919,5.609-7.749,8.366-11.713c1.429-2.204,2.676-4.543,3.918-6.902c0.934-2.094,2.051-4.166,2.498-6.458
			c1.155-4.042,0.684-8.139-0.091-12.234c-0.534-1.883-1.961-4.463-3.298-4.946c-4.004,0.552-5.429,1.958-6.2,5.802
			c0.771,2.516-0.12,7.106-0.654,9.966c-1.959,5.723-2.866,7.735-5.52,11.119c3.212-5.211,5.255-8.951,6.23-16.342
			c0.094-2.091,0.272-2.938-0.262-4.766c-1.959-0.403-3.832-1.776-4.988-2.933c0.713,8.23,0.178,11.929-1.653,17.405
			c-1.109,3.251-2.798,6.012-5.204,8.907c-0.202,1.827-0.886,3.609-1.339,5.39c-0.564,1.96-2.33,4.187-3.291,6.012
			c-0.625,1.692-0.988,3.696-2.406,5.7c-3.415,4.878-12.578,4.408-17.388,1.158c-2.171-1.469-2.139-3.919-2.449-7.407
			c-1.158-1.811-2.182-2.969-2.984-4.548c-1.336-2.594-1.841-5.504-2.484-8.309c-0.053-0.223-0.142-0.445-0.231-0.657
			c-1.561-2.905-3.073-5.845-4.584-8.784c-1.784-4.006-2.591-9.75-2.852-13.981c-1.384,1.247-1.828,2.181-2.089,3.566
			c-0.582,3.738,0.308,7.902,1.632,11.566c0.772,2.166,1.929,4.194,3.664,5.887c-2.002-2.19-3.159-4.009-4.006-6.368
			c-1.248-3.517-2.111-7.08-1.425-11.044c0.42-2.538,1.608-3.47,3.975-5.336c3.238-2.539,6.532-5.005,9.738-7.58
			c1.069-0.978,2.093-2.09,2.494-3.514c0.267-0.79,0-1.598-0.294-2.318c-0.775-1.386-3.135-2.65-5.629-2.298
			c-7.527,0.608-16.505,12.502-16.691,19.839c-0.007,7.062,2.756,13.779,6.898,19.421c2.92,4.098,5.92,8.284,8.68,12.026
			c0.578,0.846,1.202,1.647,1.557,2.59c0.845,1.996,0.891,4.179,1.026,6.316c0.398,5.082-0.938,10.282-0.294,15.356
			c0.898,8.162,4.3,13.543,11.738,15.104C55.801,493.972,65.745,489.843,68.238,480.007L68.238,480.007z"/>
		<path id="path3091" fill="#010101" stroke="#FFFFFF" stroke-width="0.9224" stroke-linecap="round" stroke-linejoin="round" d="
			M69.509,404.094c0.066-0.976,3.186-6.421,3.002-7.386c-3.205-3.927-26.805-5.646-36.713-2.52c-0.266,0.539-2.45,4.928-1.902,6.277
			C39.362,394.295,64.855,396.439,69.509,404.094z"/>
	</g>
	<g id="layer3">
		<path id="path3133" fill="#FFFFFF" d="M65.544,27.374c1.946-1.386,4.618-1.27,6.62-0.046c2.336,1.719,3.562,4.732,3.565,7.621
			c0.027,2.17-0.184,4.456-1.519,6.256c-5.054,2.423-5.723-0.357-10.813-3.752c-1.12-2.612-0.806-5.677,0.39-8.19
			C64.261,28.506,64.82,27.883,65.544,27.374L65.544,27.374z"/>
		<path id="path3145" fill="#010101" d="M68.13,31.051c1.919-0.773,4.144,0.998,4.144,3.01c0.056,2.146,0.224,4.838-1.78,6.174
			c-1.334-0.424-2.671-1.001-3.894-1.557c-0.474-1.671-0.559-3.453-0.253-5.179C66.486,32.492,67.045,31.388,68.13,31.051
			L68.13,31.051z"/>
		<path id="path3137" fill="#FFFFFF" d="M48.157,29.883c1.045-1.609,2.492-3.061,5.164-2.499c3.229,1.385,3.859,7.557,3.118,9.881
			c-2.227,2.771-2.004,4.246-6.18,5.028C47.363,39.012,46.641,32.389,48.157,29.883L48.157,29.883z"/>
		<path id="path3167" fill="#010101" d="M49.592,33.223c0.445-1.923,3.437-2.26,4.358-0.558c0.931,1.607,1.208,3.506,1.042,5.339
			c-1.337,0.449-1.895,1.562-3.039,2.333C49.536,39.012,49.091,35.56,49.592,33.223z"/>
	</g>
	<g id="layer5">
		<g id="g3213" transform="matrix(1.3107652,0,0,-1.3311137,-12.730576,653.40936)">
			<g>
				<g>
					<defs>
						<path id="SVGID_3_" d="M54.724,463.033c-0.63-0.001-1.232-0.085-1.822-0.295c-1.957-0.628-3.486-2.133-4.972-3.513
							c-0.637-0.627-1.315-1.254-1.718-2.048c-0.278-0.544-0.066-1.15,0.092-1.714c0.606-0.014,1.185-0.143,1.754-0.376
							c0.892-0.795,1.826-1.715,3.1-1.721c3.03-0.161,6.304,0.09,8.895,1.804c1.66,1.046,3.189,2.341,5.139,2.844
							c0.086-0.21,0.17-0.409,0.301-0.587c-0.98-0.417-2-0.835-2.848-1.504c-1.103-0.558-1.994-1.405-3.093-1.924
							c-1.733-0.961-3.68-1.212-5.591-1.4c-1.487-0.063-3.016-0.189-4.375,0.355c-1.062,0.401-1.656,1.673-2.875,1.685
							c0.456-0.974,1.686-1.142,2.238-2.04c1.189-1.653,2.845-2.949,4.799-3.493c1.572-0.377,3.139,0.167,4.651,0.543
							c2.072,0.711,3.397,2.635,5.352,3.596c1.271,0.628,2.957,0.92,3.397,2.426c0.17,0.96,0.253,1.883,0.422,2.809
							c-0.603,1.247-2.208,1.125-3.309,1.538c-1.785,0.418-3.397,1.422-5.178,1.883c-0.343,0.377-0.887,0.458-1.363,0.626
							C56.766,462.859,55.743,463.071,54.724,463.033L54.724,463.033z"/>
					</defs>
					<clipPath id="SVGID_4_">
						<use xlink:href="#SVGID_3_"  overflow="visible"/>
					</clipPath>
					<g id="g3215" clip-path="url(#SVGID_4_)">
						<g id="g3221">
						</g>
					</g>
				</g>
			</g>
		</g>
		<g id="g5887">
			<path id="path3371-6" fill="#FFC60A" stroke="#CC7E29" stroke-width="1.153" stroke-linecap="round" stroke-linejoin="round" d="
				M26.607,101.295c-1.445-0.049-2.943,0.729-3.532,2.063c-0.86,1.452-1.807,2.884-2.889,4.169c-0.875,1.001-2.205,1.776-3.59,1.619
				c-2.121-0.223-4.404-0.502-6.413,0.436c-0.94,0.334-1.17,1.457-1.27,2.336c0.101,1.789,0.325,3.569,0.439,5.354
				c0.124,2.05,0.288,4.097,0.443,6.125c0.159,1.711-0.778,3.2-1.156,4.799l-0.114,0.038c-0.427,1.42-1.125,2.792-1.21,4.292
				c-0.021,0.841,0.654,1.527,1.447,1.667c5.995,1.376,11.497,2.654,16.951,4.29c1.76,0.628,3.839,1.243,5.289,1.999
				c3.949,2.018,8.473,3.254,12.911,2.568c4.009-0.932,7.295-6.133,6.345-9.443c-0.632-2.215-1.781-4.234-2.896-6.225
				c-1.158-1.822-2.271-3.672-3.553-5.391c-1.458-2.201-2.96-4.387-4.463-6.558c-1.562-2.406-3.116-4.853-4.728-7.245
				C32.614,105.544,29.892,101.356,26.607,101.295L26.607,101.295z"/>
			<path id="path3053-6" fill="#FFC60A" stroke="#CC7E29" stroke-width="1.153" stroke-linecap="round" stroke-linejoin="round" d="
				M87.046,102.968c-0.318,0.002-0.636,0.058-0.97,0.173c-1.111,0.722-1.226,2.167-1.447,3.334
				c-0.713,5.01,0.979,10.906,0.113,15.32c-0.337,1.982-0.781,3.938-1.228,5.9c-0.555,2.857-1.449,5.678-1.209,8.612
				c0.75,5.079,3.658,7.082,7.033,7.877c3.748,0.879,8.18-1.366,10.649-4.246c4.121-3.799,8.121-7.11,12.913-9.125
				c2.447-1.157,5.344-1.741,7.03-3.972c0.981-1.242,1.603-2.489,1.313-4.072c-0.985-1.837-3.108-2.333-4.56-3.559
				c-1.889-1.561-3.562-3.448-4.792-5.557c-1.333-2.22-0.553-4.965-1.563-7.29c-0.546-1.063-1.775-1.174-2.881-1.114
				c-7.678,1.336-11.239,0.945-15.824-1.334C90.396,103.256,88.418,102.919,87.046,102.968L87.046,102.968z"/>
			<path id="path3259" fill="#FFC60A" stroke="#CC7E29" stroke-width="1.153" stroke-linecap="round" stroke-linejoin="round" d="
				M59,37.06c-0.825,0.002-1.615,0.114-2.391,0.393c-2.564,0.836-4.568,2.84-6.518,4.676c-0.835,0.835-1.724,1.669-2.252,2.726
				c-0.364,0.724-0.086,1.67,0.12,2.394c1.687,1.137,0.375,0.613,1.909,1.19c1.837,1.093,2.895,1.495,4.676,1.816
				c3.952,0.176,8.117-0.055,11.495-2.288c2.187-1.439,4.344-3.223,6.71-3.834c0.189,0.277-0.032-0.104,0.081,0.167
				c-3.006,0.778-4.896,2.615-7.345,4.153c-2.227,1.246-4.596,1.691-7.101,1.94c-2.243,0.085-4.266,0.03-6.068-0.694
				c-1.392-0.502-3.062-1.559-4.33-2.449c0.602,1.313,2.717,2.506,3.439,3.701c1.559,2.2,3.729,3.926,6.291,4.649
				c2.06,0.501,4.176-0.055,6.096-0.723c2.646-0.891,4.565-3.117,7.122-4.343c1.644-0.89,3.77-1.669,4.344-3.673
				c0.224-1.278,0.332-2.506,0.556-3.739c-0.79-1.66-2.896-1.498-4.338-2.048c-3.23-0.893-5.763-2.324-8.573-3.34
				C61.676,37.292,60.336,37.009,59,37.06L59,37.06z"/>
			<path id="path5710" fill="#FFC60A" stroke="#CC7E29" stroke-width="1.153" stroke-linecap="round" stroke-linejoin="round" d="
				M61.171,39.232c0.663,0.086,1.309,0.192,1.977,0.337c-0.095,1-1.336,0.499-1.804-0.002L61.171,39.232z"/>
			<path id="path5708" fill="#FFC60A" stroke="#CC7E29" stroke-width="1.153" stroke-linecap="round" stroke-linejoin="round" d="
				M55.107,40.067c0.496-0.334,1.054-0.56,1.609-0.721C56.551,40.12,55.771,40.3,55.107,40.067z"/>
		</g>
	</g>
	<g id="layer6">
		<path id="path4140" fill="#010101" stroke="#FFFFFF" stroke-width="0.9224" stroke-linecap="round" stroke-linejoin="round" d="
			M98.1,99.018c2.938-0.005,10.152,1.725,9.235,6.518c-0.553,1.549-1.552,2.887-2.779,3.946c-3.01,2.438-5.902,2.414-9.351,1.325
			c-2.895-1.113-4.76-2.448-4.773-5.059C90.861,102.075,95.426,99.07,98.1,99.018L98.1,99.018z"/>
	</g>
	<g id="layer1">
		<path id="path3393" fill="#E5E5E5" d="M53.797,104.888c0.67,0.289,0.993,1.083,1.415,1.544c-0.424,0.381-0.842,0.768-1.263,1.152
			c-0.289-0.793-0.123-1.646-0.172-2.467L53.797,104.888z"/>
		<path id="path3323" fill="#C0BEBF" d="M60.127,97.281c1.914-0.456,3.809-1.151,5.805-1.118c2.113-0.086,4.167,0.479,6.2,0.971
			c0.606,0.164,1.18,0.425,1.744,0.701c-1.636-0.186-3.276-0.441-4.834-0.979c-1.503-0.546-3.138-0.347-4.697-0.216
			c-0.815,0.066-1.147,1.002-1.888,1.247c-1.717,0.602-3.542,0.976-5.131,1.876c-0.884,0.613-1.925,1.847-2.18,2.337
			c-0.09,0.347-0.197,1.387-0.137,2.087c-0.207-0.369-0.556-0.684-0.634-1.109c0.019-0.603,0.206-1.184,0.314-1.772
			C55.642,99.106,57.971,98.019,60.127,97.281L60.127,97.281z"/>
		<path id="path3327" fill="#DEDEDD" d="M62.457,97.885c0.74-0.245,1.072-1.18,1.888-1.247c1.56-0.132,3.193-0.331,4.697,0.216
			c1.558,0.538,3.198,0.794,4.834,0.98c0.1,0.047,0.302,0.146,0.403,0.197c0.874,1.206,2.297,2.096,2.613,3.648
			c0.175,1.178-0.208,2.755-1.547,3.076c-0.923,0.447-1.859-0.15-2.745-0.399c-2.966-1.045-6.169-1.106-9.272-0.803
			c-2.578,0.019-4.869,1.317-7.309,1.959c-0.429-0.365-0.726-0.849-1.01-1.327c-0.167-1.016-0.065-1.734,0.1-2.105
			c0.396-0.914,1.334-1.707,2.218-2.318C58.915,98.861,60.74,98.487,62.457,97.885L62.457,97.885z"/>
		<path id="path3329" fill="#CBC4C3" d="M74.28,98.034c1.576,0.719,2.604,2.157,3.498,3.568c0.635,1.209-0.296,2.443-0.986,3.4
			c-0.861,0.194-1.771,0.209-2.595,0.523c-1.203,0.832-2.213,1.973-3.575,2.564c-1.437,0.379-2.958,0.287-4.425,0.166
			c-0.758-0.045-1.413-0.445-2.002-0.885c0.754-0.531,1.706-0.482,2.58-0.601c-1.564-0.509-3.217-0.144-4.825-0.24
			c-0.898-0.083-1.674,0.435-2.501,0.673c-0.849-0.248-1.53-0.914-2.419-1.109c-0.351-0.168-0.685-0.366-1.009-0.581
			c2.439-0.642,4.73-1.94,7.309-1.959c3.104-0.306,6.307-0.243,9.272,0.803c0.885,0.249,1.822,0.847,2.745,0.399
			c1.339-0.321,1.722-1.898,1.547-3.076C76.576,100.129,75.154,99.239,74.28,98.034z"/>
		<path id="path3331" fill="#E8E9E9" d="M66.556,99.545c1.746-0.469,3.617,0.182,5.32-0.5c1.63,0.309,3.166,1.107,4.337,2.272
			c0.274,0.531-0.058,1.142-0.286,1.632c-0.483,0.661-1.42,0.543-2.138,0.478c-1.443,0.388-2.941-0.24-4.07-0.282
			c-2.072-0.038-4.143,0.011-6.215,0.021c-1.379-0.039-2.696,0.418-4.053,0.584c-1.069,0.274-2.255,0.994-3.315,0.283
			c1.634-1.765,4.044-2.629,6.342-3.183C63.949,100.764,65.118,99.762,66.556,99.545L66.556,99.545z"/>
		<path id="path3391" fill="#746D6D" d="M53.42,104.327c0.089,0.143,0.291,0.383,0.376,0.523l-0.028,0.203
			c-0.082,0.056-0.146,0.199-0.228,0.433c0.234,2.515-0.625,4.627,0.435,6.843c0.405,0.75,0.821,1.64,1.701,1.926
			c2.868,1.44,5.961,2.629,9.216,2.718c2.454,0.397,5.001,0.133,7.371-0.576c1.976-0.86,4.137-1.748,5.403-3.576
			c0.875-1.264,0.929-2.834,1.207-4.286l0.186,0.233c0.119,2.053,0.125,4.124-0.28,6.147c0.024-0.229,0.07-0.686,0.096-0.916
			c-3.06,2.219-6.729,3.545-10.483,3.967c-2.829,0.031-5.735,0.139-8.441-0.812c-1.403-0.442-2.708-1.125-4.099-1.602
			c-1.014-0.312-1.575-1.269-2.312-1.942c-0.031,0.139-0.093,0.413-0.124,0.553C53.103,110.899,53.051,107.585,53.42,104.327z"/>
		<path id="path3403" fill="#BBB1AF" d="M78.52,105.756c0.015,0.096,0.043,0.285,0.058,0.377c0.035,0.914-0.067,1.828-0.272,2.719
			c-0.874-0.062-1.525,0.365-1.741,1.04c-0.498,1.293-0.151,1.894-1.946,1.292c-2.116,0.797-4.407,1.158-6.363,2.33
			c-1.366,0.301-2.801,0.609-4.196,0.281c-1.144-0.239-2.178-0.855-3.342-1.031c-0.545-0.125-1.152-0.114-1.638-0.407
			c-0.64-0.61-1.125-1.481-2.046-1.717c-0.372-0.08-0.901,0.246-1.129-0.173c-0.312-0.76-0.502-1.565-0.804-2.33
			c-0.283,0.119-0.565,0.238-0.847,0.357c-0.104-0.328-0.208-0.65-0.311-0.977c0.427-0.387,0.851-0.771,1.279-1.153
			c0.197,0.189,0.398,0.372,0.612,0.554c0.839,0.668,1.765,1.242,2.776,1.621c2.965,1.129,6.194,1.647,9.366,1.357
			c1.759-0.154,3.5-0.581,5.119-1.275c1.266-0.48,2.424-1.193,3.474-2.035C78.053,107.972,78.328,107.183,78.52,105.756z"/>
		<path id="path3395" fill="#E1E1E2" d="M76.569,106.586c0.607-0.685,1.102-1.478,1.833-2.045c0.042,0.404,0.083,0.81,0.118,1.215
			c-0.097,0.789-0.176,1.33-0.253,2.121C77.664,107.413,77.198,107.107,76.569,106.586z"/>
		<path id="path3333" fill="#878484" d="M54.657,104.715c-0.818-1.004-0.581-2.371,0.033-3.411c-0.109,0.59-0.297,1.17-0.314,1.772
			c0.225,0.612,0.467,0.807,0.714,1.149c0.494,0.933,1.044,1.341,1.938,1.868c0.163,0.32,0.534,0.586,0.702,0.906
			C56.595,106.361,55.442,105.44,54.657,104.715L54.657,104.715z"/>
		<path id="path3397" fill="#AB9F9E" d="M53.532,105.458c0.033-0.291,0.107-0.404,0.273-0.574c0.049,0.82-0.156,1.843,0.135,2.637
			c0.103,0.326,0.208,0.646,0.311,0.977c0.281-0.121,0.563-0.238,0.847-0.357c0.302,0.765,0.492,1.57,0.804,2.33
			c0.228,0.419,0.757,0.093,1.128,0.173c0.922,0.233,1.407,1.104,2.047,1.717c0.485,0.292,1.093,0.282,1.638,0.407
			c1.164,0.176,2.198,0.792,3.342,1.031c1.396,0.328,2.831,0.02,4.196-0.281c3.935-2.171,6.47-1.773,8.367-4.055
			c1.503-0.998,2.036-0.879,1.956-3.325l0.28,0.227c0.058,0.72,0.079,1.447,0.018,2.173c-0.279,1.452-0.332,3.021-1.207,4.286
			c-1.267,1.828-3.428,2.716-5.403,3.576c-2.37,0.709-4.917,0.974-7.371,0.576c-3.255-0.087-6.348-1.277-9.216-2.718
			c-0.88-0.286-1.296-1.176-1.701-1.926C52.916,110.113,53.598,107.84,53.532,105.458z"/>
		<path id="path3399" fill="#BAAFAD" d="M74.196,105.526c0.823-0.314,1.732-0.33,2.595-0.523c-1.146,1.354-2.657,2.422-4.352,2.99
			c-2.502,0.979-5.231,1.274-7.906,1.149c-4.156-0.595-5.42-1.25-7.188-2.337c-0.083-0.342-0.341-0.605-0.438-0.766
			c0.725,0.295,4.443,0.455,5.043,0.494c1.607,0.096,3.261-0.271,4.825,0.239c-0.875,0.117-1.827,0.07-2.58,0.601
			c0.589,0.438,1.244,0.838,2.002,0.885c1.467,0.123,2.988,0.213,4.425-0.166C71.983,107.499,72.993,106.358,74.196,105.526z"/>
		<path id="path3457" fill="#343130" d="M53.537,113.61c0.597,0.52,1.842,1.727,2.886,2.102c2.452,1.029,5.016,1.959,7.709,2.207
			c3.759,0.09,5.312-0.037,8.154-0.729c2.354-0.683,4.602-1.749,6.587-3.188c0.12,2.354-3.251,2.787-4.688,3.427
			c-3.478,1.142-6.271,1.215-8.965,1.188c-3.468,0.095-7.556-0.879-10.951-2.97c-0.653-0.298-0.667-0.165-0.914-2.27L53.537,113.61z
			"/>
		<path id="path3321" fill="#0E0C0C" d="M60.759,96.191c2.525-0.846,5.134-0.894,7.861-0.571c3.273,0.53,6.938,1.467,8.941,4.31
			c0.42,0.755,0.875,1.541,0.917,2.423c0.25,1.271,0.424,3.136,0.727,7.975c0.013,2.719-0.354,5.25-0.713,6.344
			c-0.085-0.357,0.344-4.573,0.325-6.156c-0.121-1.975-0.23-4.043-0.417-5.973c-0.731,0.567-1.226,1.36-1.833,2.045
			c-2.834,2.416-7.192,3.381-10.021,3.438c-4.925-0.073,2.089-1.085,3.972-1.351c0.426-0.061-3.306,0.529-2.647,0.414
			c3.711-0.459,6.918-1.768,8.917-4.086c0.69-0.957,1.622-2.19,0.986-3.4c-0.893-1.411-1.921-2.85-3.498-3.568
			c-0.102-0.052-0.304-0.15-0.402-0.199c-0.564-0.276-1.138-0.537-1.744-0.701c-2.032-0.493-4.086-1.057-6.2-0.971
			c-1.997-0.033-3.892,0.664-5.805,1.118c-2.156,0.738-4.485,1.825-5.437,4.023c-0.614,1.041-0.853,2.407-0.035,3.411
			c3.717,2.838,4.531,3.824,10.784,4.443c2.133-0.039,2.581-0.07,4.321-0.375c1.187-0.207-1.271,1.149-4.378,1.207
			c-0.953,0.008-6.934-0.678-9.551-3.07c-1.019-0.803-1.778-1.564-2.413-2.594c0.046-1.244,0.105-2.356,0.7-3.396
			C55.215,98.256,58.122,96.944,60.759,96.191L60.759,96.191z"/>
		<path id="path3535" fill="#414141" d="M56.276,137.928c0.848,2.15,2.67,3.949,4.938,4.527c2.159,0.633,4.438,0.84,6.68,0.717
			c2.597-0.19,5.154-1.256,6.969-3.15c0.318-0.303,0.84-1.085,0.718-0.202c-0.32,1.222-1.218,2.022-2.15,2.675
			c-2.6,1.672-5.812,1.948-8.828,1.799c-2.5-0.127-5.017-0.918-6.986-2.492C56.666,140.915,56.111,139.409,56.276,137.928
			L56.276,137.928z"/>
		<path id="path3539" fill="#141112" d="M78.862,114.952c-2.15,1.853-4.863,2.475-7.546,3.139c-1.926,0.438-3.849,0.453-5.675,0.488
			c-3.6-0.041-6.167-0.629-8.236-1.443c-1.605-0.696-2.736-1.104-3.789-2.047c0.588,3.039,1.755,6.984,3.02,9.795
			c0.935,2.147,1.601,4.457,1.487,6.82c0.147,1.366-0.592,2.979,0.411,4.123c0.96,1.502,2.329,2.885,4.147,3.227
			c2.948,0.814,6.049,0.537,8.847-0.706c1.222-0.55,2.033-1.247,2.615-1.943c-0.014-0.843-0.142-1.267-0.201-1.771
			c-0.755-3.643,0.347-7.366,1.97-10.617c1.27-2.641,2.234-5.24,2.773-8.189C78.728,115.579,78.824,115.2,78.862,114.952
			L78.862,114.952z"/>
		<path id="path3206" fill="#414141" d="M57.229,136.228c0.789,1.968,2.466,3.61,4.555,4.12c2.531,0.686,5.244,0.928,7.826,0.379
			c2.062-0.459,3.919-1.657,5.294-3.247c0.268,1.325-1.009,2.242-1.943,2.918c-2.436,1.433-5.366,1.731-8.138,1.572
			c-2.348-0.16-4.801-0.851-6.521-2.53C57.526,138.588,56.956,137.399,57.229,136.228L57.229,136.228z"/>
		<path id="path3208" fill="#414141" d="M58.015,134.718c0.339,0.795,0.87,1.495,1.54,2.106c1.099,1.069,2.656,1.42,4.188,1.7
			c2.765,0.386,5.665,0.429,8.113-0.969c0.905-0.476,1.613-1.088,2.299-1.785c0.258,1.048-0.81,1.772-1.592,2.351
			c-1.942,1.152-4.358,1.457-6.624,1.474c-2.375-0.06-4.538-0.414-6.548-1.821C58.53,137.102,57.714,135.894,58.015,134.718
			L58.015,134.718z"/>
	</g>
</g>
</svg>
