<?xml version="1.0" encoding="utf-8"?>
<!-- Generator: Adobe Illustrator 16.0.0, SVG Export Plug-In . SVG Version: 6.00 Build 0)  -->
<!DOCTYPE svg PUBLIC "-//W3C//DTD SVG 1.1//EN" "http://www.w3.org/Graphics/SVG/1.1/DTD/svg11.dtd">
<svg version="1.1" id="Layer_1" xmlns="http://www.w3.org/2000/svg" xmlns:xlink="http://www.w3.org/1999/xlink" x="0px" y="0px"
	 width="171.622px" height="170.27px" viewBox="0 0 171.622 170.27" enable-background="new 0 0 171.622 170.27"
	 xml:space="preserve">
<path d="M88.666,40.08c0.5,0.37-0.477,0.627-0.783,0.734C87.882,40.3,88.496,40.416,88.666,40.08z"/>
<path d="M90.407,40.814c0.39,0.157,0.542,0.569,0.62,1.059C90.578,41.787,90.31,41.165,90.407,40.814z"/>
<path d="M74.316,66.237c0.38,0.264,0.788,0.474,1.224,0.657c-0.161,0.438-1.072-0.052-1.457-0.164
	C74.048,66.442,74.237,66.372,74.316,66.237z"/>
<path d="M105.627,78.384c-0.112,0.635-1.362,0.221-1.722,0.083C103.982,77.449,104.902,78.581,105.627,78.384z"/>
<path d="M102.142,78.71c0.23,0.204-0.152,1.057-0.429,1.304C101.529,79.547,102.027,79.146,102.142,78.71z"/>
<path d="M80.523,87.678c-0.395,0.025-0.708-0.045-0.903-0.248c0-0.115,0-0.215,0-0.33C80.13,86.923,80.543,87.12,80.523,87.678z"/>
<path d="M78.317,87.184c-0.169,0.33-0.554,0.416-0.784,0.653c-0.148-0.024-0.075-0.21-0.085-0.325
	C77.827,87.481,77.974,87.227,78.317,87.184z"/>
<path d="M95.013,115.042c0.614,1.092-0.973,2.842-1.84,1.838C92.1,115.63,93.787,113.596,95.013,115.042z M93.712,116.519
	C96.285,115.541,92.175,114.331,93.712,116.519L93.712,116.519z"/>
<path d="M140.568,68.203c3.264,4.19,6.5,14.659,6.498,21.185c0.074,0.403-1.043-0.514-0.855-1.266
	C145.953,83.554,142.217,71.926,140.568,68.203z"/>
<g>
	<path d="M25.242,80.871c-0.08,0.001-0.071-0.089-0.092-0.155c0.629,0.676,1.481,2.048,0.611,2.911
		c-0.059,0.409,0.256,0.387,0.258,0.723c-0.449,0.646-0.775,1.199-0.311,2.13c-0.601,0.024-0.819-0.357-1.309-0.428
		c-0.029,1.016,1.308,1.288,2.009,1.789c-0.202,1.184,0.292,2.715-0.645,3.533c0.175,0.682,0.404,1.635,0.175,2.283
		c-0.922-0.506-1.993-0.85-2.914-1.355c0.269-0.254,0.473,0.268,0.911,0.134c0.24-0.422,0.249-1.061,0.575-1.415
		c-0.07-0.572-0.628-0.635-0.71-1.191c0.913-0.321,1.295,0.633,2.069,0.723c1.311-1.462-1.689-1.431-2.056-2.436
		c0.904,0.06,1.283,0.712,2.243,0.72c0.548-1.307-1.875-1.448-2.633-2.173c0.224-0.582-0.012-0.795-0.127-1.381
		c0.874-0.424,1.109,0.479,1.805,0.493c-0.541-1.075-2.305-1.65-1.921-3.181c0.658-0.374,1.753,0.587,2.223,0.399
		C26.184,82.666,25.5,81.621,25.242,80.871z M23.698,82.981c-0.448,0.956,0.677,1.553,1.539,1.646
		C25.428,83.624,24.498,83.145,23.698,82.981z M25.627,91.954c-0.28-1.27-1.755-0.154-1.139,0.62
		c0.146,0.155,0.553,0.213,0.914,0.118C25.568,92.43,25.702,92.309,25.627,91.954z"/>
	<path d="M21.186,87.655c-0.158-0.504-0.615-1.283-0.232-1.873C22.471,85.082,22.628,88.073,21.186,87.655z M21.358,86.008
		c-0.091,0.27-0.25,0.766-0.021,1.067c0.23-0.015,0.536,0.018,0.63-0.106C22.173,86.541,22.069,85.76,21.358,86.008z"/>
</g>
<g>
	<path d="M78.99,125.183c-1.073-0.302-1.839,1.386-2.806,1.994c-1.181,0.146-1.411-1.69-0.874-2.412
		C76.048,123.796,79.45,123.119,78.99,125.183z M76.072,126.397c0.445-0.67,0.618-1.043,1.114-1.602
		C76.311,124.013,74.969,125.821,76.072,126.397z"/>
	<path d="M77.826,129.545c0.396,0.305,0.393,0.709-0.016,0.995c-0.047,1.405,1.486,2.843,0.127,4.297
		c-0.405,0.008-0.94-0.592-1.347-0.464C76.077,132.788,76.137,130.926,77.826,129.545z M77.841,133.851
		c0.307-1.005,0.153-1.928-0.768-2.724C76.539,132.096,76.46,133.59,77.841,133.851z"/>
	<path d="M97.027,109.494c0.899,0.958,2.51,2.575,2.168,3.581c0.613,1.109,0.754,1.804,1.377,2.852
		c0.037,0.99-0.006,1.973,0.584,3.043c-0.673,0.831,0.594,1.901-0.033,2.729c0.23,0.193,0.1,0.35,0.33,0.565
		c-0.611,0.059-1.303,0.91-0.701,1.466c-1.016,1.154-1.002,2.154-1.828,3.271c-0.004,0.149,0.152,0.323,0.305,0.485
		c-0.764,0.607-1.148,1.6-2.143,1.944c-0.218,0.199,0.104,0.485-0.17,0.665c-0.369,0.221-1.258,0.146-1.289,0.77
		c-0.867,0.461-1.666,0.062-2.562,0.674c-0.889-0.27-1.73-0.99-2.729-0.367c-0.108,0.376,0,0.782,0.162,1.204
		c-0.775,0.624-1.396,1.698-2.461,2.397c-0.178,0.145-0.551,0.217-0.92,0.418c-0.843,0.496-1.317,1.334-1.964,0.9
		c0.048-0.795,0.826-1.85-0.242-2.704c-0.361-0.299-0.937-0.141-1.281-0.323c-1.345-0.84-1.573-3.205-1.354-4.302
		c0.166-0.974,0.897-1.899,0.625-3.058c-0.538-0.684-0.078-1.258-0.92-1.982c0.143-0.145,0.229-0.287,0.153-0.449
		c0.397,0.074,0.833,0.071,1.227,0.218c1.148-0.669,2.606,0.138,3.602,1.224c0.549,0.619,0.84,1.631,1.688,1.772
		c0.473-0.468,0.92-0.468,1.379-0.626c0.074-0.686,0.417-1.432,0-1.983c-0.613-0.797-2.6-0.387-3.75-2.153
		c-0.159-0.239-0.13-0.609-0.499-0.938c0.033-0.925,1.028-1.168,1.651-1.715c0.529-0.414,0.605-1.033,1.064-1.422
		c-0.023-0.219,0.154-0.42-0.076-0.664c0.91-0.458,1.457-1.929,2.529-1.766C92.568,113.117,94.247,110.363,97.027,109.494z
		 M94.791,111.936c-0.162,0.131-0.391,0.076-0.469,0.18c-1.83,1.811-3.525,4.708-3.066,6.574c0.342-0.079,0.613-0.191,0.845-0.532
		c1.071-0.087,2.222-0.896,3.142-0.182c1.705-0.442,3.182,0.983,4.792,1.253c0.394-1.088-0.19-2.486-0.804-3.707
		c-0.65-1.303-1.535-2.529-2.332-3.539c-0.65,1.215,0.24,2.617,0.123,3.91c-1.305-1.139-0.444-2.969-1.241-4.41
		C95.261,111.293,95.066,111.754,94.791,111.936z M89.187,118.257c-1.092,0.334-1.475,1.876-2.454,2.304
		c0.229,1.6,1.993,2.967,3.374,2.333c-0.076-0.634,0.307-1.237-0.154-1.931c-0.361-0.18-0.459,0.519-0.732,0.146
		c0.02-0.562,1.019-0.996,1.193-1.533c-0.16-0.205-0.314-0.521-0.537-0.533c-0.27,0.385-0.768,0.818-1.227,1.066
		c-0.461-0.598,0.613-0.982,0.613-1.506c0.905-0.482,1.762-1.255,1.25-2.219C89.494,116.594,89.275,117.584,89.187,118.257z
		 M86.972,133.143c0.145-1.167,2.158-2.092,1.217-3.397c-1.072,0.192-1.963,1.382-3.054,1.411c0.447-0.928,2.288-0.94,2.671-2.15
		c-0.531-0.686-1.151-0.528-1.686-0.855c-0.385-0.707-1.113-0.64-1.305-1.156c0.845-0.104,1.668,0.322,2.454,0.78
		c0.505-0.28,0.517-0.603,0.537-0.921c-1.226-2.054-2.818-3.411-4.523-3.024c0.46,1.088,0.613,2.124,0.384,3.12
		c-0.92,0.982-0.691,2.084-1.106,3.129c0.339,1.719,1.989,2.398,3.238,3.375c0.066,0.398,0.089,0.827,0.336,1.25
		c1.901,0.369,5.208-3.506,2.897-4.389c-0.541,0.93-1.15,2.17-2.109,2.865C86.962,133.161,86.962,133.152,86.972,133.143z
		 M91.333,121.425c0.92-0.292,1.073-1.309,0.508-2.144C90.927,119.686,90.82,120.657,91.333,121.425z M93.408,120.952
		c0.635-0.76,0.869-1.565,0.148-2.492C92.407,118.866,92.33,120.627,93.408,120.952z M95.548,120.117
		c0.535-0.241,0.609-1.109,0.691-1.538c-0.461-0.299-0.998-0.315-1.533-0.076C94.322,119.167,94.628,120.573,95.548,120.117z
		 M91.64,123.565c0.834-0.384,1.227-1.307,0.688-2.067C91.41,122.106,91.103,122.785,91.64,123.565z M92.943,123.383
		c0.724,0.039,1.457-1.13,0.766-1.816C92.789,121.704,92.867,122.743,92.943,123.383z M96.7,119.965
		c0.382,0.396,0.382,0.81,0.794,0.918c1.046-0.58,0.355-1.226,0.238-1.835c-0.057-0.077-0.151-0.013-0.197-0.146
		C96.929,119.013,96.929,119.644,96.7,119.965z M91.013,124.477c0.09,0.615-0.293,1.159,0.396,1.848
		c0.316-0.074,0.69-0.281,0.997-0.288c-0.261,0.364-0.817,0.676-0.46,1.114c1.675-0.506,1.202-2.046,1.073-3.121
		C92.407,123.694,91.7,124.243,91.013,124.477z M97.236,123.981c0.152-0.109,0.301-0.234,0.449-0.34
		c-0.219-0.762-0.5-1.791-1.139-2.422C95.78,122.026,96.972,123.057,97.236,123.981z M98.447,121.286
		c0.709,1.038,1.777-0.021,1.779-0.862C99.23,119.276,98.304,120.192,98.447,121.286z M94.009,125.141
		c0.237,0.252,0.256,0.467,0.405,0.699c0.232,0.016,0.496-0.105,0.752-0.268c0.081-0.16-0.077-0.34,0.11-0.494
		c0.455-0.105,0.963-0.526,1.451-0.918c-0.335-0.313-0.26-0.589-0.566-0.897c-0.382,0.349-0.754,0.536-1.068,0.387
		c0.02-0.179,0.084-0.378-0.158-0.601C94.419,123.723,94.247,124.43,94.009,125.141z M88.957,128.325
		c0.39,0.357,1.121,0.257,1.457-0.318c-0.153-0.192-0.043-0.32-0.262-0.518C89.766,127.639,88.726,127.524,88.957,128.325z
		 M90.205,129.706c-0.084-0.168-0.113-0.365-0.328-0.551C88.88,128.862,89.489,130.487,90.205,129.706z M98.693,123.878
		c0.626-0.079,1.67-0.995,1.143-1.603C98.962,122,98.001,123.031,98.693,123.878z M90.874,129.393
		c0.613,1.074,3.165-0.561,2.146-1.762C92.279,127.266,90.49,128.683,90.874,129.393z M93.603,128.237
		c0.184,0.242,0.344,0.467,0.566,0.588c0.66-0.533,1.131-1.105,0.92-1.736C94.476,126.817,93.663,127.639,93.603,128.237z
		 M98.308,125.001c-0.459-0.656-1.455,0.179-1.964,0.789c-0.489,0.596-0.507,1.448-0.183,2.001c0.064-0.012,0.096-0.003,0.154,0.078
		C97.542,127.643,98.718,125.592,98.308,125.001z M98.848,125.18c0.396-0.328,0.664-0.691,0.151-1.147
		C98.462,124.348,98.593,124.763,98.848,125.18z M93.25,130.038c0.459,0.725,2.106-0.326,1.451-1.199
		C94.113,129.239,92.755,129.241,93.25,130.038z M95.869,129.457c0.328-0.261,0.524-0.522,0.754-0.78
		C96.037,127.543,94.86,129.002,95.869,129.457z"/>
</g>
<g>
	<path d="M136.414,69.175c1.697,1.219,2.199,5.607,2.302,7.496c0.226,3.357,0.151,6.506-0.128,9.871
		c-0.277,3.479-0.412,6.895-0.256,10.381c0.076,1.58,0.139,3.221-0.303,4.771c-1.647,0.229-3.074-0.861-4.7-0.66
		c0.485,1.773,0.631,3.738,0.319,5.555c-0.371,1.869-1.682,3.42-1.973,5.206c1.736,0.585,3.852,0.034,5.658,0.355
		c2.119,0.386,4.13,0.831,6.281,0.748c2.332-0.093,9.246-0.866,9.744-3.962c-2.176-0.678-3.586,0.445-5.449-1.537
		c-1.914-1.992-1.638-2.912-1.605-5.525c0.08-4.523,0.409-9.459-0.104-14.036c2.081,0.204,0.459,10.755,1.098,16.099
		c0.229,1.957,1.395,4.037,3.43,4.382c0.847,0.149,1.466,0.151,2.203-0.262c1.399-0.788,1.727,1.245,0.729,1.944
		c-1.779,1.275-3.905,2.752-6.071,3.267c-1.586,0.358-4.384,0.194-5.646,1.304c1.101,3.232-0.598,3.242-3.655,2.855
		c-3.332-1.829-2.383,2.414-5.013,1.396c-2.229-0.861-2.149-2.373-5.006-1.328c-0.884,0.309-4.815,1.789-3.433-1.129
		c0.904-1.852,2.08-2.992-1.074-3.314c-1.994-0.219-2.963,0.404-3.766,2.23c-0.783,1.695-2.062,1.969-3.388,2.846
		c-1.433,0.951-2.433-2.146-3.427-2.507c-0.535,0.427-1.455-0.282-1.688,0.157c-0.457,0.812-1.533,1.012-2.527,1.073
		c-1.381,0.103-2.88-2.929-3.295-1.952c-1.152-0.828-3.064-0.025-4.018-1.246c-0.955-1.182,0.818-3.027,1.885-3.309
		c1.594-0.426,3.319-0.025,4.814-0.736c2.326-1.121,2.375-1.434,2.453-4.084c0.148-3.582-0.229-8.552,1.309-11.885
		c0.455-0.988,1.479-4.428,0.912-5.339c-1.186-1.794-2.223-3.188-3.141-5.159c-0.632,0.095-2.838,3.095-3.297,3.712
		c-0.689,1.604-0.72,3.44-1.609,4.967c-0.939,1.595-1.701,2.949,0,4.383c2.106,1.763,1.838,2.98-0.844,3.768
		c-2.411,0.734-0.92,2.267-2.607,3.303c-1.269,0.8-2.529-0.35-3.756-1.016c-0.848,0.248-1.305,1.569-2.453,1.783
		c-0.92,0.184-1.625-0.396-2.684-0.336c-1.074,0.051-2.175-0.072-3.23,0.182c0.777,1.283,1.85,1.975,0.732,3.506
		c-0.799,1.141-2.102,0.26-3.176,0.654c-1.016,0.363-0.919,1.684-1.558,2.357c-0.204,0.435-0.896,0.662-2.044,0.049
		c-0.384,0-1.611-0.793-1.874-0.777c-1.652,0.075-0.043,2.854,0.263,3.697c0.691,1.838,1.533,2.955,3.25,3.83
		c2.036,1.014-0.031,1.152-0.259,2.002c-2.085-0.252-4.274,0.43-6.36-0.08c-1.537-0.375-2.937-1.557-4.084-2.488
		c-1.056-0.856-2.282-3.68-3.693-2.536c-0.292,0.243-2.27,1.8-2.159,1.856c-0.144,0.235-3.177,1.69-3.638,1.914
		c-1.992,0.885-4.982,2.013-7.01,2.877c-1.193,0.521-1.736,0.274-2.823-0.254c-1.666-0.818-2.58-0.711-4.354-0.423
		c-1.762,0.284-4.059,0.431-5.513-0.665c-1.075-0.83-2.073-0.52-3.222-0.037c-2.372,1.004-3.915,0.211-6.313-0.164
		c-2.575-0.387-3.445-1.957-6.093-1c-0.617,0.229-3.542-0.598-3.564-0.304c-0.484-1.524-3.799-2.143-4.653-3.415
		c-1.888,0.174-3.081-2.963-0.309-2.938c3.385,0.055,6.054,1.492,6.051-3.284c-0.001-1.608,0.234-3.199,0.236-4.801
		c0.003-2.479-1.865-1.471-3.527-1.667c-0.996-0.112-5.142-3.523-3.235-4.273c2.468-0.971,4.542-1.154,6.337-3.623
		c1.56-2.138,1.361-5.895,0.946-8.347c-0.6-3.354-0.21-6.763-0.529-10.127c-0.528-5.122,0.973-11.923,2.701-16.603
		c0.527-1.519,1.835-5.914,2.401-6.952c1.039-1.932,2.113-3.657,3.363-5.38c1.586-2.187,3.418-3.55,5.77-4.89
		c0.963-0.558,2.256-1.073,3.253-1.414c0.687-0.606,1.663-0.854,2.223-1.141c1.436-0.715,1.196,0.046,1.993-1.53
		c1.008-2.038,2.172-4.014,3.48-5.881c1.504-2.173,4.263-4.74,7.069-4.757c-0.464,0.768-5.321,1.356-10.263,12.959
		c-0.21-0.362,0.02,0.401,0,0c-3.967,1.15-9.001,2.803-11.625,6.127c-2.869,3.667-4.838,8.057-6.217,12.507
		c-1.628,5.354-3.155,11.234-3.297,16.871c-0.134,5.257,1.917,11.682,0.537,16.796c-0.613,2.251-1.748,4.249-3.844,5.478
		c-2.061,0.049-3.901,2.322-0.984,3.258c0.765,0.236,3.634-0.08,3.524-1.225c-0.165-1.683,1.542-3.86,2.08-5.617
		c2.04-2.926,2.904-4.332,6.747-5.668c4.354-1.515,8.655-4.435,12.025-7.374c-0.766-1.304-2.222-1.936-2.947-3.265
		c-0.721-1.281-1.268-2.519-1.969-3.785c-1.437-2.503-1.218-5.508-2.333-7.954c-0.95-2.09-0.156-6.125,0.11-8.389
		c0.2-1.983,1.005-5.955,2.466-7.494c0.918,0.611-0.922,6.85-1.016,8.027c-0.312,3.257-0.356,6.564,0.045,9.818
		c0.432,3.515,4.341,13.683,9.551,11.367c1.225-0.549,2.557-0.624,3.836-1.099c0.17-0.985,0.727-3.145,0.539-4.159
		c-0.308-1.871-1.918-4.178-2.498-6.104c-0.924-3.052-2.038-6.112-1.967-9.262c0.017-1.411-0.957-7.504,1.063-7.94
		c0.947,2.725-0.816,5.618,0.255,8.317c0.385-0.739,1.537-2.944,1.918-3.45c0.92-1.365,2.151-2.04,3.526-3.317
		c1.069-0.843,2.08-2.075,3.45-0.98c1.151,0.929,0.384,1.937,2.146,1.284c0.92-0.346,1.84-0.81,2.454-1.608
		c-0.888-1.073-3-0.815-4.176-1.896c-0.96-0.893-2.877-3.058-2.963-4.46c-0.137-1.331,1.466-3.118,2.846-3.018
		c1.611,0.126,1.38,2.508,2.913,2.691c0.107-1.842,0.302-4.359,1.84-5.632c2.999-2.496,3.85,2.289,3.794,4.327
		c3.146,0.164,0.423-8.471-0.566-9.94c-0.468-0.746-1.082-1.634-1.652-2.325c-1.039-1.223-3.93-2.534-4.987-2.675
		c-3.37-0.454-5.482-0.636-5.769-0.307c-0.072,0.088,0.677-0.127,1.406-0.887c3.48-0.127,7.391,0.697,9.92,3.243
		c1.293,1.292,2.072,3.174,2.777,4.824c0.735,1.677,1.44,0.064,2.283-0.815c1.121-1.122,2.76-2.224,4.092-3.054
		c1.452-0.9,3.286-0.548,4.629-1.478c2.936-2.085,5.386-4.978,9.219-5.327c-0.92,0.748-2.126,0.959-3.144,1.627
		c-1.803,1.145-3.332,2.51-4.685,4.118c-0.223,1.232-0.836,2.041-1.218,3.203c-0.231,0.608-0.307,1.1-0.384,1.726
		c-0.172,1.691,0.153,0.764,1.037,1.711c0.727-1.447,2.928-7.258,5.235-3.523c0.78,1.294,0.222,2.002-0.085,3.26
		c-0.213,0.908,1.402,2.211,2.17,2.952c1.023-1.309,0.92-3.294,2.223-4.411c0.598-0.507,2.453-1.09,3.503-0.276
		c0.483,0.388,0.87,1.123,0.483,3.078c-0.461,1.184-0.689,4.031,0.473,4.136c2.914,0.267,4.354-7.56,4.045-9.56
		c-0.454-2.935-1.146-5.541-3.784-7.311c0.896-0.554,4.124,3.555,4.001,4.075c1.322,2.103-0.148,5.472,1.782,7.253
		c1.149,2.113,2.501,3.081,3.296,4.707c1.402,2.833,2.912,6.416,3.096,9.654c0.123,1.757-0.184,3.137,1.922,2.503
		c1.576-0.474,3.121-1.16,4.719-1.702c3.181-1.111,7.455,0.645,10.148,2.365c1.893,1.211,4.035,2.928,5.465,4.398
		c2.328,2.419,9.457,9.659,9.626,14.401c-0.239-1.447-11.132-17.376-18.411-19.753c-3.838-1.257-7.593-0.544-11.35,1.038
		c-0.615,0.264-3.782,1.66-3.068,2.76c0.521,0.807,1.994,1.895,0.922,3.162c-0.797,0.97-1.229-1.579-1.305-1.895
		c-0.4-1.531-2.485-2.162-3.841-2.339c-4.056-0.538-7.583,1.24-9.882,4.502c-2.223,3.106-3.201,8.514-1.566,12.163
		c1.49,3.353,1.234,0.821,3.229,0.71c2.368-0.127,2.478,2.459,3.243,3.912c0.768-0.349,0.993-1.079,1.975-0.975
		c-0.606-2.103-1.184-5.084,1.24-6.292c2.459-1.251,4.127,1.723,4.605,3.766c1.304-0.251,1.686-1.935,2.326-2.859
		c0.511-0.729,1.939-0.839,2.348-0.892c0.312,0.258,0.484,0.616,0.464,1.061c0.767-0.006,1.53,0.102,2.222,0.326
		c1.326,0.404,2.461,1.19,3.525,2.063c0.998,0.821,2.111,1.596,3.068,2.416c1.26,1.1,1.686,2.874,2.992,3.913
		c0.764-2.046,0.455-6.315,0.303-8.121c-0.139-1.338-0.405-3.003-0.885-4.265c-0.385-1.035-1.579-1.848-1.34-3.016
		c0.615-0.202,0.613,0.877,1.221,0.893c0.418-0.705,0.103-3.535,1.619-2.93c-1.84,2.774-0.307,5.948,0.076,8.987
		c0.455,3.421,0.029,7.21,0.237,10.534c0.429,6.169,0.888,13.564,6.28,17.675c2.002,1.527,5.62,3.465,5.184-0.612
		c-0.397-3.54-0.43-7.22-0.174-10.831c0.204-3.034,0.422-6.156,0.359-9.195c-0.004-1.482,0.02-2.784-0.186-4.254
		C137.595,73.22,137.248,69.934,136.414,69.175C137.019,69.596,136.794,69.525,136.414,69.175z M82.287,30.873
		c-0.844,0.063-2.071,0.722-2.146,0.761c-2.224,0.932-5.904,3.636-6.579,5.268c-1.088,2.777,1.135,7.937,2.915,10.252
		c1.277,1.625,1.585,0.126,2.132-1.214c0.918-2.03,1.802-3.728,3.564-4.969c0.88-0.604-0.423-2.206-0.506-2.93
		c-0.299-2.339,1.463-4.658,0.955-6.926C82.823,31.699,82.305,30.907,82.287,30.873C81.524,30.929,82.363,31.046,82.287,30.873z
		 M87.269,33.317c0.691,0.029,1.15,0.253,1.533,0.566C89.22,33.091,87.347,32.177,87.269,33.317z M86.579,33.861
		c-1.457,0.55-2.299,3.081-1.523,4.099c2.137-0.206,0.833-3.802,3.67-3.257c-0.415-0.964-1.686-1.244-2.606-0.901
		C85.058,34.208,87.592,33.461,86.579,33.861z M94.625,35.105c1.004,0.267,1.537,1.055,2.435,1.468
		C97.236,35.174,95.626,34.066,94.625,35.105z M96.393,37.491c-0.167-0.835-2.575-2.887-3.072-1.241
		c0.312,0.714,1.001-0.009,1.462,0.985c0.549,1.191-0.154,2.581,0.152,3.825c0.92-0.921,1.775-1.022,1.688-2.583
		C96.546,37.533,96.623,38.477,96.393,37.491z M83.054,37.634c0.535,0.025,0.265-0.757-0.083-0.649
		C82.822,37.22,82.823,37.435,83.054,37.634C83.283,37.645,82.968,37.315,83.054,37.634z M109.267,54.27
		c1.404-4.574-2.205-13.56-5.361-16.583c-1.451-1.377-1.993,0.31-2.409,1.62c-0.581,1.852-1.653,2.566-3.11,3.542
		c-0.844,0.932-1.047,2.145-2.225,2.772c-1.578,0.172-2.76,1.011-4.062,1.839c-1.556,1.013-5.827,4.731-6.133,0.282
		c-0.562-0.804-2.3-7.361-3.526-6.414c-2.071,1.656-3.297,5.217-4.064,7.637c0.46,1.163,0.46,2.042,0.767,3.094
		c0.372,1.319,2.485,0.889,3.306,1.713c-0.314,0.113-0.625,0.253-0.956,0.408c0.992,1.297,1.934,2.667,2.289,4.286
		c0.422,1.776-0.727,3.069,0.959,3.963c1.605,0.836,3.142,1.799,4.292,3.177c0.797,0.93,1.451,3.676,2.721,3.977
		c0.04-1.263-0.037-2.52,0.004-3.781c0.036-1.741,0.982-2.958,1.106-4.55c0.045-1.006-0.41-1.968-1.091-2.685
		c-0.67-0.703-2.971-1.004-3.277-1.701c0.768-1.519,3.277,0.753,3.911,1.318c1.763,1.583,2.851-0.087,4.304-1.157
		c0.711-0.54,1.522-1.343,2.331-1.672c0.113-1.235-0.042-2.092-0.349-3.292c-0.23-0.95-2.3-5.011-1.073-5.708
		c0.497,1.501,2.073,8.405,3.659,8.109C103.752,53.987,107.28,55.551,109.267,54.27C109.733,53.216,108.888,54.518,109.267,54.27z
		 M84.509,40.322c0.514,2.124,1.993,10.77,5.751,7.868c0.688-0.513,1.197-1.163,1.84-1.668c0.468-0.377,0.997-0.619,1.608-0.738
		c0.078-0.243,0.078-0.486,0.078-0.731c0.932-0.082,1.762-0.85,1.84-1.814c-0.46-0.684-0.385-1.06,0.23-1.13
		c0.428,0.099,0.689-0.038,0.854-0.4c-1.237-0.554-2.602,0.197-3.922-0.284c-1.609-0.565-1.762-2.146-2.996-2.688
		c-0.836-0.354-2.062,0.682-2.984,0.725c-1.247,0.058-2.146-1.173-2.97-1.173C83.697,39.088,83.9,39.77,84.509,40.322
		C84.705,41.156,84.049,39.925,84.509,40.322z M66.88,40.404c1.178-0.256,2.195-0.235,3.447-0.082
		C70.398,37.901,66.801,38.045,66.88,40.404z M66.01,44.726c0.965,0.855,2.862-3.384,2.782-4.077
		C66.187,40.139,65.702,42.748,66.01,44.726C66.264,44.945,65.651,42.475,66.01,44.726z M76.36,48.721
		c-0.207-1.277-2.046-4.649-3.042-5.382c-0.905-0.688-1.519,0.229-2.002,0.812c-1.135,1.266-2.215,1.243-3.671,1.304
		c-2.684,0.12-3.196-1.525-5.06-3.091c-0.724,0.115-3.214,1.438-1.968,2.607c0.435-0.334,1.439-1.726,1.653-2.124
		c0.543,1.093-0.073,1.86,0.782,3.003c1.141,1.462,2.97,2.008,4.668,2.763c1.839,0.807,3.373,2.335,5.29,2.274
		c1.849-0.057,3.643,0.499,5.444,0.765C78.454,50.304,77.304,49.449,76.36,48.721C76.23,47.842,77.292,49.43,76.36,48.721z
		 M95.842,43.588c0.013,0.857-0.812,0.973-0.982,1.708c1.017,0.201,1.981-1.132,1.765-1.957
		C96.316,43.301,96.077,43.381,95.842,43.588C95.855,44.516,96.086,43.504,95.842,43.588z M66.34,48.31
		c-0.926-0.159-2.606-0.409-3.142-1.197c-0.38-0.535-1.544-2.859-2.407-1.657c0.489,3.354,4.763,4.902,7.654,4.486
		C68.211,48.906,66.953,48.949,66.34,48.31C65.344,48.138,66.953,48.938,66.34,48.31z M68.487,52.008
		c0.537-0.12,1.15-0.389,2.224-1.003c-0.767-1.046-2.923-0.875-2.888,0.893C67.844,52.19,68.03,52.04,68.487,52.008z M83.054,61.432
		c0.153-4.325-1.84-7.978-6.054-9.42c-3.148-1.103-8.684-0.771-10.276,2.744c-0.844,1.848-4.677,10.107,0.416,9.203
		c0.351-1.352,0.336-5.415,2.88-4.41c1.28,0.504,1.718,1.075,1.874,2.397c0.272,2.413-0.062,2.724,2.496,2.905
		c0.307-1.422,0.23-3.328,1.303-4.468c1.611-1.737,3.68-0.162,3.91,1.738c0.153,1.576-0.32,3.428,1.976,3.142
		C82.699,65.121,82.706,62.222,83.054,61.432C83.283,55.931,82.905,61.7,83.054,61.432z M56.369,56.026
		c-1.785,2.086-2.985,4.214-2.943,6.958c0.035,2.576,2.422,6.922,3.484,9.459c0.921-2.764,1.993-5.158,3.603-7.599
		c1.272-1.909,2.3-3.156,1.917-5.477c-0.384-2.449,0.153-4.702-0.727-7.196C58.98,52.386,57.956,54.143,56.369,56.026
		C55.927,56.507,57.782,54.334,56.369,56.026z M66.417,52.14c-1.423,0.525-3.282,0.829-3.269,2.567
		c0.012,1.556-0.104,4.368,0.584,5.75c0.91-1.443,0.782-3.275,1.585-4.786C65.421,55.427,69.024,51.164,66.417,52.14
		C65.573,52.451,66.724,52.029,66.417,52.14z M68.871,60.86c0.609-0.075,1.078-0.244,1.38-0.651
		C69.713,59.738,68.793,60.057,68.871,60.86z M78.534,61.103c0.014-1.129-1.215-1.128-1.92-0.728c0.182,1.001,0.153,0.18,0.79,0.893
		c-0.601,0.127-1.909-0.398-1.939,0.654c2.223-0.466,2.392,1.926,2.531,3.504c1.217,0.124,1.302-1.426,1.22-2.261
		C79.118,62.47,78.536,61.107,78.534,61.103C78.549,59.946,78.623,61.351,78.534,61.103z M68.357,61.679
		c-0.407,0.805-0.856,4.068,0.334,3.366c0.645-2.239,0.41-3.424,2.609-3.532C71.039,60.4,69.024,61.464,68.357,61.679
		C67.829,62.695,69.024,61.47,68.357,61.679z M93.708,84.658c-1.072-5.104-0.432-9.646-2.896-14.518
		c-1.18-2.381-3.006-4.354-4.845-6.264c-2.913-1.173-2.634-1.481-3.757,1.634c-0.69,2.032-1.628,3.017-0.382,4.886
		c0.46,0.685,0.92,1.418,1.687,1.795c0.307,1.605,0.683,3.201,1.148,4.762c0.767,2.584,2.071,4.864,3.451,7.174
		c0.809,1.345,2.898,4.321,4.369,4.772C93.277,87.629,93.173,86.016,93.708,84.658C92.933,80.931,93.192,85.971,93.708,84.658z
		 M64.04,62.983c-1.993-0.426-4.446,4.672-5.087,6.12c-1.273,2.754-2.116,5.681-2.075,8.705c1.857,0.032,3.151-1.098,4.25-2.278
		c0.971-1.052,2.704-2.254,3.651-3.558c0.785-1.082,2.603-4.266,1.72-5.313C65.958,65.986,64.807,63.141,64.04,62.983
		C63.437,62.854,64.884,63.156,64.04,62.983z M66.34,65.426c0.384,0.052,0.613-0.076,0.975-0.083
		C67.457,64.237,65.875,64.399,66.34,65.426z M77.229,65.914c-1.458,0.112-2.149,0.092-3.606-0.553
		c-2.111-0.94-0.69,1.549-2.308,1.615c0.622-1.674-3.978-1.237-3.978-1.209c-0.46,1.173,3.22,4.105,3.986,4.271
		c1.763,0.36,4.37,1.851,6.268,0.237c1.015-0.887,1.705-2.089,2.089-3.381C80.357,64.722,78.735,65.801,77.229,65.914
		C77.073,65.922,78.07,65.848,77.229,65.914z M80.099,67.217c-0.112,1.27-2.182,2.242-2.029,3.508
		C79.066,70.446,82,67.344,80.099,67.217C80.08,67.314,80.37,67.23,80.099,67.217z M67.566,68.682
		c-0.559,0.912-0.919,1.932-1.227,2.936c0.925-0.144,2.147-0.203,2.914-0.893C69.1,70.479,67.644,68.684,67.566,68.682
		C67.031,69.545,67.928,68.693,67.566,68.682z M80.601,69.745c-0.92,0.301-1.397,1.139-2.146,1.708
		c1.148,0.914,1.993,2.145,2.604,3.439c0.452,0.979,0.461,3.446,1.689,3.113C85.582,77.249,81.897,71.286,80.601,69.745
		C79.604,70.055,82.287,71.761,80.601,69.745z M102.986,71.618c0.75-0.474,1.84-0.575,2.859-0.731
		C105.517,69.292,102.748,70.009,102.986,71.618z M110.728,70.725c-1.225,3.487-4.062,6.829-8.049,6.045
		c-1.559-0.31-2.115,2.226-3.526,2.918c-2.13,1.042,0.153,1.566,1.149,2.196c1.268,1.774,2.301,3.796,3.373,5.521
		c1.764,0.122,3.287-3.232,4.09-4.397c1.311-1.851,1.889-4.152,2.744-6.263c0.371-0.829,0.832-1.532,1.009-2.43
		c0.361-1.581-0.581-0.431-1.251-0.739c-0.146-0.745,1.387-1.15,1.744-0.466c0.481,0.992-0.189,1.936-0.518,2.832
		c-0.576,1.394-1.17,2.756-1.761,4.193c-0.538,1.374-1.993,3.448-2.585,4.77c1.051-1.28,2.278-2.243,2.812-3.235
		c0.692-1.155,1.305-2.557,1.766-3.636c0.688-1.571,0.954-3.215,1.07-4.866C112.628,72.433,112.031,69.48,110.728,70.725
		C110.053,72.656,111.035,70.45,110.728,70.725z M60.704,79.112c-0.266,0.63-0.47,1.286-0.573,1.962
		c-0.265-0.45-0.385-0.942-0.385-1.468c-0.762-0.699-1.998-0.797-2.956-0.735c-2.108,0.138-3.983,1.232-5.858,2.121
		c-3.911,1.84-6.809,5.561-10.971,6.95c-3.737,1.229-7.323,2.809-9.306,6.414c-2.032,3.684-2.568,7.451-2.769,11.584
		c-0.065,1.513-0.337,3.852,1.809,3.677c2.299-0.184,1.469-1.665,2.234-3.208c0.698-1.396,2.188-1.183,3.28-0.395
		c2.151,1.582,2.494,0.655,3.666-1.308c4.619-2.075,4.825,4.351,4.947,7.666c0.086,1.937-0.562,3.506-0.788,5.371
		c0.767,0.847,3.805,1.38,4.886,1.382c0.215-0.463-0.212-1.92-0.206-2.379c0.134-1.367,1.3-2.688,0.073-3.601
		c-1.801-1.313-2.752-5.673-2.625-7.782c0.1-2.58,0.328-5.269,0.863-7.802c0.379-1.765,0.156-6.183,1.808-7.358
		c0.762,1.823-0.662,6.784-0.981,8.764c-0.52,3.215-0.979,6.529-0.213,9.756c0.689,2.89,2.099,4.797,4.941,5.78
		c1.506,0.523,3.339,1.106,4.953,1.035c2.142-0.093,4.213,1.153,6.282,0.976c0.866-0.077,2.071,0.743,2.878,0.253
		c1.264-0.776-0.194-2.674-0.348-3.585c-1.823-1.955-4.371-2.825-6.058-4.824c-1.569-1.818-2.529-5.426-2.497-7.804
		c0.044-2.755-1.566-7.444-0.087-9.949c0.744,2.938,0.369,6.018,1.244,8.913c0.896-0.314,1.563-2.776,2.056-3.549
		c0.791-1.162,1.862-2.455,3.185-3.169c0.085-0.062,2.232-1.437,2.079-1.458c1.417-0.583,3.626-1.141,4.829-2.041
		c-0.187-1.412-2.452-2.938-1.825-4.644c0.925-2.394,1.719-0.806,3.206-0.571c0.69-1.734,1.38-4.582,3.756-4.628
		c3.067-0.066,2.018,3.81,1.997,5.612c2.451-0.229,1.704-1.633,2.004-3.378c0.369-1.972,2.208-1.636,1.826-3.72
		c-0.307-1.856,0.122,0.543,0,0c-0.914-4.978-4.754-6.994-9.447-6.768C67.738,71.387,61.907,75.341,60.704,79.112 M107.662,74.39
		c0.529-3.582-5.52-3.652-4.829-1.057c1.687-0.978,3.45,0.464,3.603,2.196C107.048,75.36,107.433,74.979,107.662,74.39
		C107.664,74.147,107.585,74.88,107.662,74.39z M116.542,87.018c-2.357,1.381-2.669,3.383-3.357,5.643
		c-0.617,2.057-0.999,4.688-1.306,6.898c-0.384,2.615-0.386,5.304-0.153,7.932c0.33,3.869,2.993,3.064,5.947,3.734
		c0.93,0.215,1.566,1.123,2.521,1.225c1.287,0.146,2.528-0.572,3.826-0.322c1.582,1.204,4.111,1.57,5.645,0.169
		c2.812-2.583,5.033-9.944,1.741-12.762c-3.659-3.124-4.886-9.382-5.428-13.939c-0.285-2.159-0.073-3.56-1.146-5.507
		c-1.47-2.701-3.707-4.852-6.133-6.708c-1.266-0.968-5.049-3.561-5.365-0.294c-0.137,1.45-0.229,2.794-0.689,4.201
		c-0.405,1.193-1.049,2.413-1.533,3.542c-0.975,2.109,0.459,3.613,1.516,5.296c0.246,0.645,0.553,2.48,1.705,1.723
		C114.666,87.624,116.63,86.644,116.542,87.018C114.911,87.985,116.554,86.955,116.542,87.018z M96.009,75.042
		c0.69-0.042,1.316-0.171,1.533-0.734C97.006,73.917,95.855,74.248,96.009,75.042z M96.625,75.612
		c0.842,0.105,1.762,0.113,2.375,0.411C99.306,74.198,96.982,74.497,96.625,75.612z M96.162,77.972
		c-0.953,1.959-0.995,4.854-1.608,6.972c-0.771,2.674-1.643,5.328-2.53,7.962c-0.703,2.146-1.227,4.304-2.146,6.37
		c-0.768,1.711-1.916,3.124,0.613,3.607c4.217,0.832,7.129-2.553,9.66-5.169c1.456-1.503,2.146-2.542,3.172-4.374
		c0.707-1.264,2.271-4.43,2.271-5.828c-1.472,0.045-2.082,2.297-2.99-0.097c-0.555-1.57-1.381-2.77-2.412-4.128
		c-0.785-1.012-1.422-1.425-2.408-2.109C96.592,80.335,98.308,78.036,96.162,77.972C95.708,78.861,96.853,77.998,96.162,77.972z
		 M80.983,95.172c-0.382-0.199-0.382-0.133-0.767-0.379c-0.399-0.277-0.92-0.517-0.92-0.517c-0.402,2.304-0.319,4.653-0.23,6.979
		c0.138,2.385-0.077,3.002,2.175,3.686c3.987,1.215,4.954-4.259,5.599-6.984c0.671-2.812,1.197-21.94-5.013-18.516
		c0.589,1.346,0.842-0.478,0,0c0.87,2.013,0.689,4.978,1.057,7.172c0.477,3.099,1.028,5.884,0.783,7.303
		C83.144,96.518,80.983,95.172,80.983,95.172z M73.576,81.479c0.737-0.262,1.451-0.502,2.271-0.651
		C75.616,79.625,73.47,80.344,73.576,81.479z M80.012,81.398c0.632-0.077,0.971,0.108,1.48,0.162
		C82.134,80.157,79.603,80.158,80.012,81.398z M73.664,81.967c-1.803,1.035-2.57,4.467,0.343,4.487
		c-0.257-1.262,0-2.454,0.307-3.671c0.537-0.69,1.647-0.236,2.221-0.898C75.77,80.84,74.488,81.491,73.664,81.967
		C72.322,82.712,74.39,81.553,73.664,81.967z M80.099,82.214c0.577,0.264,1.01,0.67,1.305,1.222
		C82.878,82.789,80.294,81.086,80.099,82.214C80.687,82.458,80.216,81.595,80.099,82.214z M69.575,83.846
		c0.292,1.401,0.5,1.369,1.653,1.464C71.017,84.535,70.61,83.593,69.575,83.846C69.713,84.458,70.634,83.59,69.575,83.846z
		 M69.024,84.658c-0.33,0.553-0.211,1.742,0.307,1.956C69.944,86.333,69.944,84.567,69.024,84.658z M78.223,85.23
		c-1.072,0.527-2.001,1.238-3.143,1.616c-1.048,0.332-3.775-0.89-3.85-0.764c-0.566,0.922,0.377,2.059,1.244,2.449
		c1.917,0.846,3.066,0.545,4.736,2.267c0.685,0.714,3.851,4.364,5,4.019c1.922-0.592,0.078-7.346,0-8.691
		c-0.996-0.025-1.38,0.932-2.257,0.047C79.603,85.83,78.839,84.922,78.223,85.23C77.073,85.78,78.915,84.879,78.223,85.23z
		 M88.015,97.367c-0.551,1.595-1.053,3.206-1.566,4.812c1.971,0.911,3.111-5.604,3.296-6.583c0.496-2.197,0.325-4.044,0.208-6.216
		c-0.076-1.832-0.783-1.976-1.852-3.335C87.689,89.82,88.574,93.605,88.015,97.367C87.474,98.955,88.574,93.61,88.015,97.367z
		 M75.926,90.526c-0.309-1.581-2.554-1.318-3.742-1.465c-0.627-0.732-1.832-2.112-2.775-2.126
		C70.405,89.586,73.452,90.254,75.926,90.526C75.617,89.034,72.917,90.2,75.926,90.526z M91.179,89.543
		c-0.297,1.369-0.689,2.93-0.306,4.325C91.716,93.692,93.327,89.251,91.179,89.543C90.949,90.758,91.863,89.454,91.179,89.543z
		 M70.793,90.445c-2.843,0.281-5.527,1.622-7.721,3.459c-0.719,0.604-2.022,1.047-2.368,1.995c-0.574,1.701-0.727,2.777-2.213,3.874
		c-1.502,1.089,0.46,7.077,1.633,6.008c0.775-0.747,1.463-1.754,2.572-2.06c1.498-0.4,2.264,0.864,3.568,0.985
		c0.225-1.076,0.844-1.795,0.69-3.041c-0.23-1.838-2.45-1.847-2.511-3.159c1.141-0.373,2.281,0.496,3.354,0.661
		c1.283-0.821,1.874-1.91,2.667-3.132C71.39,94.584,73.087,91.467,70.793,90.445C69.873,90.53,71.196,90.618,70.793,90.445z
		 M83.752,117.26c-1.874-1.201-2.922-3.877-3.765-5.781c-1.074-2.42-1.411-5.354-1.993-7.938c-0.634-2.898-0.429-5.479-0.264-8.42
		c0.193-3.972-1.889-4.135-5.372-4.677c0.651,3.655-1.035,6.302-3.1,9.132c-1.079,1.551-0.075,4.043,0.378,5.799
		c0,0.813,0.537,1.787,1.185,2.241c-0.035,0.89-0.418,1.915,0.425,2.607c0.997,0.85,0.537,1.815,1.457,3.299
		c0.843,1.401,2.07,2.319,3.25,3.378c0.812,0.725,2.5,1.475,3.567,1.682c0.849,0.158,5.219,0.465,5.373-0.681
		C84.587,117.585,84.203,117.36,83.752,117.26C83.225,116.917,84.176,117.51,83.752,117.26z M102.449,96.803
		c-0.996,0-3.462,3.449-4.084,4.393c0.559,0.246,2.303,2.455,3.051,1.156c0.877-1.474-0.27-2.402,1.916-2.934
		c2.373-0.576,2.01-1.833-0.097-2.693C104.367,96.793,102.261,93.847,102.449,96.803C102.279,96.803,102.378,96.211,102.449,96.803z
		 M95.013,102.833c0.229,1.135,1.732,0.252,1.697-0.574C96.073,102.038,95.548,102.649,95.013,102.833z M66.801,105.77
		c0.229,0.891,2.099,1.205,2.146,0.004c0-0.865-0.14-2.289-0.996-2.776C67.951,104.02,66.572,104.709,66.801,105.77
		C66.969,106.53,66.63,104.854,66.801,105.77z M82.056,109.184c1.004,0.141,2.606,2.055,3.452-0.441
		c0.957-2.741,4.675-0.044,4.175-2.682c-0.344-1.82-3.074-3.857-4.408-2.174c-1.839,2.35-3.602,2.596-6.056,1.303
		c0,1.117,0.356,2.13,0.594,3.197C80.216,110.172,80.676,108.998,82.056,109.184C83.054,109.321,81.214,109.075,82.056,109.184z
		 M29.177,111.836c-0.786,4.244,5.394,6.142,8.336,6.937c5.828,1.572,5.753-5.706,5.277-9.675c-0.215-1.521-1.443-5.805-3.454-3.242
		c-1.083,1.371-1.958,2.506-3.708,1.635c-1.717-0.844-3.117-1.209-3.4,1.183c-0.128,1.214,0.149,1.265-1.079,1.472
		C30.207,110.297,29.387,110.837,29.177,111.836C28.971,112.991,29.397,110.658,29.177,111.836z M67.951,115.293
		c1.149-0.709,3.45-1.964,3.191-3.666c-0.165-1.018-1.428-1.429-1.351-2.631c0.257-2.676-1.135-1.271-2.824-1.683
		c-0.549-0.909-2.542-3.073-3.617-2.808c-2.069,0.512-1.916,2.016-3.215,3.199c-1.154,1.082,1.99,2,2.485,2.166
		c1.268,0.431,3.261,1.236,3.721,2.658C66.821,114.087,65.7,116.735,67.951,115.293C68.871,114.734,67.526,115.576,67.951,115.293z
		 M111.955,110.658c-1.381-0.5-10.076,0.181-9.676,2.355c1.363,0.088,2.847-0.136,4.156,0.308c1.449,0.496,0.797,2.43,2.648,2.309
		c1.305-0.089,2.279-1.158,3.635-1.185c1.769-0.043,1.619,1.748,2.762,2.651c2.167,0.231,5.982-2.895,3.451-4.574
		C116.933,111.202,113.566,112.729,111.955,110.658C109.58,109.825,113.699,112.891,111.955,110.658z M27.467,111.961
		c-1.953,1.107-4.274,0.848-6.36,0.488c0.382,2.387,4.057,3.908,6.057,4.498c1.313,0.395,3.835,0.562,2.223-1.244
		C29.015,115.31,27.55,111.961,27.467,111.961C25.63,113.008,27.473,111.961,27.467,111.961z M139.677,113.913
		c-2.959-2.266-5.98-0.654-9.391-0.98c-1.24,1.084-4.647,1.822-4.785,3.91c2.018,0.455,3.857-0.852,5.852-0.721
		c0.928,1.23,2.68,2.666,3.902,1.136c1.627-2.075,2.73-0.611,4.912-0.29C143.242,117.422,140.552,114.594,139.677,113.913
		C139.177,113.538,140.503,114.552,139.677,113.913z M52.388,115.539c-0.767-0.176-1.84-0.181-2.55-0.635
		c-1.513-0.938-1.582,2.579-1.43,3.292c0.377,1.635,3.213,0.752,4.469,0.453C53.587,117.37,53.836,115.893,52.388,115.539
		C52.266,115.516,52.738,115.622,52.388,115.539z M54.917,116.761c-2.833,4.528,4.676,2.857,8.434,0.692
		c-1.304-0.33-9.139-2.168-8.996-0.611C54.151,116.749,55.3,116.761,54.917,116.761C54.458,117.502,54.935,116.761,54.917,116.761z"
		/>
	<path d="M92.407,24.272c0,0,4.968-0.3,6.333,0.733l1.333,1.69c0,0-2.913-2.885-9.046-1.65L92.407,24.272z"/>
</g>
<g>
	<path d="M147.009,48.23c-0.914,0.58-1.318-0.21-2.009-0.235c-1.306,1.082-3.983,4.242-5.674,5.705
		c-1.044,0.895-2.226,1.185-2.069,2.248c0.118,0.658,0.906,1.409,1.375,1.683c0.998,0.574,2.152-0.201,3.04,0.421
		c-1.05,0.728-2.274,1.5-3.407,1.376c-1.316-1.875-3.24-3.63-4.23-5.462c0.639-0.43,1.232,0.3,1.953,0.101
		c1.127-0.321,1.73-1.801,2.656-2.692c1.704-1.628,4.055-3.053,5.252-4.512c0.191-0.64-0.637-1.693,0.225-2.074
		C145.072,45.993,146.167,46.754,147.009,48.23z"/>
	<path d="M133.239,35.401c1.101-0.088,2.64,0.222,3.097,1.461c-0.764,0.914-2,1.646-2.918,0.855
		c-1.475,1.511-2.297,2.272-3.432,4.412c-1.928,4.417,2.666,9.065,7.019,5.175c1.274-1.152,2.415-3.363,3.776-4.772
		c1.549,1.669-2.307,5.671-3.955,6.785c-2.362,1.619-6.012,1.27-7.625-0.507c-1.451-1.567-1.76-5.067-0.535-7.669
		C130.048,38.133,130.873,37.664,133.239,35.401z"/>
	<path d="M127.692,29.234c3.353,4.342,0.507,10.774-5.116,11.329c-4.52,0.446-8.779-5.12-6.525-9.65
		c1.361-2.77,5.336-4.789,7.477-4.397C125.066,26.804,126.498,27.657,127.692,29.234z M120.003,28.94
		c-1.885,1.499-2.988,5.451-2.001,7.583c0.835,1.856,3.232,3.218,4.911,2.81c2.152-0.531,4.072-4.292,4.303-5.495
		c0.293-1.359-0.512-3.225-1.385-4.358C124.162,27.363,122.199,27.163,120.003,28.94z"/>
	<path d="M110.961,27.401c-1.535,1.463-1.699,3.558-2.38,5.427c-1.227,0.085-2.453-1.229-3.098-1.659
		c1.871-0.377,2.191-1.616,2.945-3.081c1.193-2.409,2.299-5.306,3.329-7.563c-0.229-0.61-0.979-1.02-0.799-1.768
		c2.454,0.378,8.894,3.925,6.28,7.784C115.87,28.499,112.72,29.009,110.961,27.401z M113.873,21.612
		c-0.919,1.573-2.254,2.929-2.072,4.989C115.005,29.095,117.552,22.573,113.873,21.612z"/>
</g>
<g>
	<path d="M66.493,144.268c1.534-0.85,2.149-2.624,2.838-4.369c0.837-0.141,1.84-0.536,2.707-0.152
		c-1.557,1.91-1.346,7.586-0.442,10.104c-0.969,0.084-2.379,0.624-3.182,0c-0.118-1.057,0.961-0.891,1.07-1.67
		c-0.137-1.786,0.46-3.635,0-5.279c-1.533,0.831-1.687,3.042-2.841,4.215c-1.605-1.012-2.002-3.22-3.479-4.365
		c-0.658,1.645-0.044,3.894,0,5.734c0.191,0.779,1.496,0.483,1.336,1.659c-1.201-0.499-3.027,0.474-4.063-0.294
		c0.293-0.839,1.147-1.111,1.533-1.824c-0.077-3.113,0.187-6.52-1.073-8.433C64.274,139.035,65.068,142.352,66.493,144.268z"/>
	<path d="M76.548,139.899c-0.625,0.77-1.161,1.148-1.032,2.852c0.101,1.451-0.283,4.357,0,5.43c0.254,0.918,1.481,1.199,1.032,1.964
		c-1.238-0.052-2.771,0.167-3.461-0.444c-0.085-0.766,0.843-0.469,0.92-1.062c0-3.024,0.077-6.914-0.307-9.044
		C74.118,139.671,76.153,139.303,76.548,139.899z"/>
	<path d="M82.134,139.747c0.229,1.122-1.055,0.766-1.223,1.52c-0.081,2.617,0.215,4.838,0.15,7.371
		c0.767,0.572,1.762,0.61,2.592,0.305c0.897-0.353,1.01-1.736,1.776-1.371c1.28,3.281-4.779,2.987-7.053,2.428
		c-0.382-0.736,0.997-0.887,1.208-1.514c-0.365-2.905,0.556-6.592-0.901-8.586C79.787,139.904,81.481,139.248,82.134,139.747z"/>
	<path d="M96.445,139.593c2.861,1.479,3.498,5.217,5.852,7.224c0.152-1.326,0.595-2.977,0.307-4.363
		c-0.23-1.135-1.227-1.453-1.059-2.25c0.293-0.861,1.906-0.033,2.889-0.152c0.096,0.923-0.686,0.919-0.91,1.516
		c-0.498,2.66,0.384,6.722-0.613,8.875c-2.377-1.787-3.297-5.021-5.58-6.937c-0.598,1.983-0.861,5.384,1.057,6.044
		c-1.073,1.199-4.371,0.215-6.155,0.744c-0.245-0.982,0.561-1.565,0.147-2.268c-0.67-0.627-3.422-0.979-3.922,0
		c-0.113,0.992,0.807,0.915,0.589,1.973c-0.695,0.246-2.462,0.635-2.85-0.148c-0.014-0.834,0.691-0.941,1.074-1.365
		c0.92-2.761,1.314-6.075,2.684-8.434c1.381-0.375,1.354,1.082,1.686,1.812c0.998,2.255,2.148,5.249,3.451,7.231
		C97.542,147.596,95.703,142.697,96.445,139.593z M89.193,146.227c0.79-0.037,1.715,0.104,2.294-0.15
		c-0.134-1.414-0.613-2.416-1.227-3.326C89.876,143.885,89.187,144.724,89.193,146.227z"/>
	<path d="M109.091,139.899c3.281-0.543,5.855,1.457,6.315,4.215c1.146,6.816-8.741,9.187-10.531,3.154
		C103.752,143.478,105.746,140.452,109.091,139.899z M109.091,149.549c5.469,1.008,6.383-9.034,0.295-8.283
		C104.826,141.811,105.874,148.941,109.091,149.549z"/>
</g>
<g>
	<path d="M82.266,7.382c3.242-0.653,2.935,5.024-0.147,4.816C79.681,12.037,80.141,7.807,82.266,7.382z M81.061,9.943
		c-0.002,1.684,2.612,1.665,2.835,0.151c0.153-1.022-0.153-1.448-1.335-1.36C81.611,8.809,81.061,9.11,81.061,9.943z"/>
	<path d="M86.482,7.382c3.495-1.362,4.18,4.986,0.736,4.816C85.275,12.104,84.562,8.125,86.482,7.382z M86.629,10.999
		c1.791,0.279,2.787-1.066,1.791-2.265C86.655,7.785,85.18,10.028,86.629,10.999z"/>
	<path d="M90.843,11.748c-1.121-2.761,0.644-4.594,2.713-3.766C96.5,9.177,94.169,13.668,90.843,11.748z M93.863,10.245
		c0.077-1.179-1.994-1.934-2.725-0.603C90.949,11.771,93.724,11.617,93.863,10.245z"/>
	<path d="M76.077,8.134c4.293-1.393,4.14,5.063,0.613,4.366C75.157,12.198,74.3,9.099,76.077,8.134z M75.77,10.245
		c-0.018,1.753,3.518,1.96,2.87-0.302c-0.186-0.697-1.223-1.013-1.95-0.755C75.896,9.475,75.771,9.972,75.77,10.245z"/>
	<path d="M99.421,9.188c0.422,0.725,0.345,2.073,0.148,3.01c-1.414,2.21-4.941,0.867-4.068-2.405
		C95.988,8.033,97.953,8.084,99.421,9.188z M96.24,11.448c0.689,0.992,2.848,0.745,2.592-0.902
		C98.386,9.496,95.596,9.314,96.24,11.448z"/>
	<path d="M71.4,8.585c2.3-0.477,3.68,3.294,1.84,4.517C69.867,15.298,68.186,9.264,71.4,8.585z M73.24,11.298
		c0.041-1.065-1.015-1.568-2.145-1.053C68.624,11.402,73.087,13.954,73.24,11.298z"/>
	<path d="M101.376,14.008c-0.273-1.031-0.793-2.292-0.307-3.312c1.126-2.264,5.104-0.715,4.369,2.104
		C105.132,14.085,102.948,15.305,101.376,14.008z M104.522,12.5c0.228-1.188-1.128-1.863-1.921-1.502
		C100.226,12.026,104.068,15.001,104.522,12.5z"/>
	<path d="M65.257,9.943c4.053-1.254,3.861,5.773,0,4.668C63.58,14.13,63.453,10.492,65.257,9.943z M64.653,12.5
		c0.188,1.418,2.837,1.292,2.991-0.453C66.953,10.628,64.424,11.016,64.653,12.5z"/>
	<path d="M110.574,12.198c0.134,1.344-0.228,2.205-0.613,3.016C103.906,18.21,106.579,6.789,110.574,12.198z M107.115,12.5
		c-0.292,1.736,1.238,2.36,2.539,1.659C110.549,12.456,108.121,11.388,107.115,12.5z"/>
	<path d="M63.273,12.5c0.3,2.513-1.302,4.329-3.603,3.313c-0.478-0.871-0.856-2.071-0.613-3.013
		C59.644,10.804,62.091,11.053,63.273,12.5z M59.824,14.611c0.229,0.391,0.749,0.608,1.807,0.603
		C64.807,12.869,58.063,11.613,59.824,14.611z"/>
	<path d="M115.547,13.253c1.011,4.949-5.354,5.163-4.515,0.907C111.361,12.323,114.228,11.494,115.547,13.253z M112.068,15.664
		c0.425,0.598,2.311,0.68,2.725,0c-0.009-0.74-0.307-1.209-0.459-1.806C113.032,12.936,111.263,14.045,112.068,15.664z"/>
	<path d="M54.384,13.708c2.143-2.185,5.287,1.201,3.769,3.31C56.685,19.055,53.438,16.819,54.384,13.708z M57.71,15.664
		c0.197-1.499-3.025-2.221-2.562,0.451C55.991,16.834,57.599,16.633,57.71,15.664z"/>
	<path d="M115.398,17.922c0.314-2.269,2.134-4.767,4.215-2.859c1.389,1.299,0.518,4.388-1.678,4.366
		C116.655,19.413,116.48,18.393,115.398,17.922z M116.429,17.017c0.357,1.6,2.901,1.805,3.033-0.151
		C118.921,15.55,116.691,15.254,116.429,17.017z"/>
	<path d="M50.472,15.214c3.449-1.306,4.534,4.415,1.226,4.666C49.551,20.042,48.444,15.992,50.472,15.214z M50.168,17.922
		c0.315,1.329,3.261,1.511,2.885-0.905C51.928,15.918,49.786,16.293,50.168,17.922z"/>
	<path d="M121.846,17.167c1.38-0.387,2.685-0.129,3.017,0.907c0.665,2.148-1.217,3.618-2.71,3.46
		C119.853,21.292,120.005,17.699,121.846,17.167z M121.087,19.13c-0.086,1.705,3.545,2.013,2.889-0.302
		c-0.215-0.675-1.199-0.926-1.823-0.754C121.233,18.322,121.13,18.772,121.087,19.13z"/>
	<path d="M45.359,22.592c-0.254-1.167-1.252-1.854-1.031-3.162c0.375-2.258,4.227-2.198,4.805,0
		C49.627,21.378,48.185,23.364,45.359,22.592z M48.245,20.03c-0.399-1.495-3.753-1.419-2.738,1.051
		C46.642,22.183,48.633,21.622,48.245,20.03z"/>
	<path d="M125.007,21.837c0.67,0.945,2.199,1.97,3.332,0.755c0.406-0.883-0.251-2.149-1.205-2.262
		c-0.841-0.092-1.301,0.851-1.977,0.602c0.059-2.33,3.702-1.875,4.215-0.3C130.279,24.225,124.903,25.682,125.007,21.837z"/>
	<path d="M43.724,21.382c1.228,3.203-2.299,5.246-3.913,3.013C38.353,20.996,41.318,19.668,43.724,21.382z M43.111,23.044
		c0.035-1.511-3.217-2.126-2.704,0.602C41.348,24.554,43.085,24.139,43.111,23.044z"/>
	<path d="M133.587,25.75c1.906-1.376,4.582,0.144,3.33,2.562c0.818,0.356,1.775-0.37,2.713,0c0.74,0.717,1,1.892,0.91,3.465
		c0.854,0.414,1.35-0.44,2.389-0.301c0.62,0.669,1.148,1.387,1.07,2.404c-0.239,2.924-5.365,3.063-4.369-0.9
		c-2.086-0.069-3.775-0.538-3.457-3.012c-2.521,0.424-3.832-0.881-3.175-3.159c-1.11,0.214-3.274,0.206-3.774-1.058
		c-0.172-1.931,0.494-3.036,1.362-3.913C132.751,21.896,134.804,23.269,133.587,25.75z M132.999,24.847
		c0.187-1.05-0.958-1.58-1.647-1.501C127.592,23.76,132.535,27.646,132.999,24.847z M135.414,29.063
		c0.546-0.433,0.917-1.095,0.91-2.104C134.419,24.91,132.271,29.341,135.414,29.063z M138.408,31.927
		c0.84-0.024,1.303-0.695,1.223-1.96C137.255,27.709,135.977,31.988,138.408,31.927z M142.169,35.24
		c0.535-0.371,0.869-0.952,0.76-1.961C140.86,30.979,138.794,35.475,142.169,35.24z"/>
	<path d="M36.487,28.612c-0.841-1.208-1.277-3.776,0-4.517c1.799-1.044,4.161,1.294,3.625,3.315
		C39.814,28.489,38.131,29.102,36.487,28.612z M39.354,26.354c-0.172-2.113-3.833-0.716-2.719,0.905
		C38.025,28.003,39.436,27.658,39.354,26.354z"/>
	<path d="M35.594,31.927c-2.439,1.082-4.375-1.04-4.065-3.014C32.072,25.337,38.492,28.516,35.594,31.927z M35.29,29.664
		c-0.094-0.638-0.535-1.127-1.68-0.901C29.738,29.531,35.771,33.139,35.29,29.664z"/>
	<path d="M29.242,35.993c1.312,5.623-6.175,3.481-3.761-0.903c0.819-0.422,1.684-0.234,2.722-0.152
		c-1.346-5.109,5.494-4.025,4.657-0.151C32.607,35.998,30.99,36.441,29.242,35.993z M28.942,33.58
		c-0.471,2.131,3.818,2.52,3.035-0.151c-0.211-0.646-0.904-0.792-1.516-0.751C29.265,32.765,29.061,33.146,28.942,33.58z
		 M27.761,38.551c0.605-0.297,0.692-1.117,0.884-1.809C27.088,33.764,23.808,38.84,27.761,38.551z"/>
	<path d="M144.302,35.542c3.686-1.242,3.475,3.879,1.342,4.367C142.929,40.522,141.654,36.421,144.302,35.542z M143.388,37.345
		c-0.154,1.62,3.146,2.3,2.999-0.3C145.595,36.159,143.519,36.041,143.388,37.345z"/>
	<path d="M25.027,43.219c-0.525-0.075-0.968-0.225-1.631-0.151c0.853,1.985,0.478,4.606-2.434,4.066
		c0.681,2.096-0.007,4.048-2.388,3.914c0.872,1.659,0.885,4.539-1.828,4.216c0.564,1.792,0.698,3.965-1.485,4.064
		c0.059,1.219,0.69,1.393,0.591,2.26c-0.266,2.722-5.019,1.779-4.658-0.9c0.138-1.11,1.635-1.019,1.943-2.264
		c-1.229-1.474-0.315-3.897,1.824-3.765c-0.974-1.433-0.432-3.077,0.743-3.915c0.666,0.075,1.117-0.077,1.649-0.15
		c0.094-0.73-0.979-1.505-0.607-3.008c0.674-0.654,1.128-1.506,2.582-1.358c-0.596-2.46,0.05-4.395,3.005-3.765
		c0.007-1.395-0.585-1.402-0.458-2.403c0.3-2.327,4.069-1.769,4.523,0.149C26.705,41.536,25.868,42.531,25.027,43.219z
		 M25.633,40.809c-0.042-1.795-3.881-1.908-2.842,0.902C23.972,42.407,25.687,42.121,25.633,40.809z M22.943,44.875
		c0.095-1.322-0.833-1.621-1.829-1.355C17.924,44.367,22.643,48.047,22.943,44.875z M19.179,50.143
		c0.549-0.439,1.333-0.647,1.185-1.801C18.653,45.863,15.852,49.897,19.179,50.143z M15.852,54.208
		c2.194,1.851,3.506-3.768,0.296-2.256C15.204,52.404,15.13,53.605,15.852,54.208z M13.9,58.424
		c1.457,0.583,2.534-0.318,2.396-1.802C15.273,54.741,12.137,56.644,13.9,58.424z M14.962,60.839
		c-0.101-0.774-0.613-1.21-1.672-1.057C9.146,60.386,15.369,64.501,14.962,60.839z"/>
	<path d="M149.712,40.059c1.56,4.478-5.855,4.549-3.922,0.149C146.765,39.426,148.754,38.917,149.712,40.059z M146.238,40.809
		c-0.166,1.484,0.523,2.104,1.979,1.958C150.13,41.603,147.773,39.262,146.238,40.809z"/>
	<path d="M151.974,46.679c0.921,0.38,2.172,0.434,2.697,1.209c0.141,1.129-0.165,1.837-0.45,2.555
		c0.288,0.567,1.308,0.403,1.97,0.605c3.463,2.583-2.896,6.334-3.76,3.01c-0.381-1.43,0.542-1.84,0.902-2.858
		c-1.262,0.087-2.126-0.188-3.031-0.456c-0.56-1.096,0.449-2.361,0.15-3.158c-0.183-0.449-1.016-0.266-1.634-0.303
		c-3.146-2.704,2.862-6.279,3.612-2.857C152.621,45.368,151.978,45.667,151.974,46.679z M149.119,46.228
		c1.012,0.492,2.475,0.221,2.396-1.204c-0.111-0.033-0.162-0.124-0.152-0.299C150.284,43.884,148.437,44.822,149.119,46.228z
		 M151.058,49.09c-0.088,0.873,0.535,1.255,1.373,1.503C155.835,49.513,151.37,46.547,151.058,49.09z M154.671,54.51
		c0.826-0.014,1.367-0.659,1.215-1.952C153.511,50.327,152.276,54.559,154.671,54.51z"/>
	<path d="M159.038,56.471c1.878,3.983-4.881,5.266-4.216,1.051C155.13,55.591,157.412,54.868,159.038,56.471z M157.698,59.176
		c0.413-0.519,0.747-1.266,0.442-2.103C155.733,55.4,154.373,59.778,157.698,59.176z"/>
	<path d="M160.408,61.139c0.311,0.578,0.332,1.464,0.303,2.406c-1.052,1.351-3.904,1.641-4.367-0.153
		C155.735,61.119,158.492,59.462,160.408,61.139z M158.886,63.847c0.602-0.316,0.838-0.972,0.91-1.807
		C158.006,59.474,155.512,63.733,158.886,63.847z"/>
	<path d="M12.683,67.913c0.606,1.116,1.294,2.403,0.303,3.61c-0.61,0.146-1.188,0.308-1.791,0.454
		c2.979,1.057,2.363,5.153-0.75,4.821c-2.328-0.249-2.831-3.962-0.152-4.669c-1.77-0.609-2.017-4.191,0.152-4.671
		c-1.761-4.275,3.78-5.153,4.366-2.251C15.058,66.567,14.118,67.665,12.683,67.913z M11.343,66.557
		c0.511,0.279,1.103,0.498,1.947,0.449C15.941,64.682,10.045,62.831,11.343,66.557z M12.683,69.721
		c-0.031-0.93-0.695-1.601-2.089-1.054C7.619,69.819,12.866,72.999,12.683,69.721z M12.381,74.687
		c0.094-1.024-0.409-1.728-1.787-1.351C7.111,74.278,12.138,77.65,12.381,74.687z"/>
	<path d="M157.847,68.516c-0.738-4.475,4.773-3.824,4.507-0.756C162.194,69.688,158.714,70.701,157.847,68.516z M160.71,68.818
		c0.467-0.354,0.844-1.195,0.453-1.963C158.885,64.867,157.345,69.318,160.71,68.818z"/>
	<path d="M159.492,73.936c-0.489-0.691-0.805-1.002-0.756-1.808c0.218-2.767,5.362-2.773,4.82,0.453
		C163.337,73.883,161.318,74.412,159.492,73.936z M159.644,72.279c0.443,1.693,3.063,1.463,2.71-0.756
		C161.56,70.558,159.662,70.842,159.644,72.279z"/>
	<path d="M163.556,78.302c-1.691,0.863-4.064,0.536-4.064-1.353C159.492,73.876,165.398,74.336,163.556,78.302z M161.761,78.302
		c2.645-0.26-0.623-4.507-1.354-0.9C160.821,77.845,161.15,78.359,161.761,78.302z"/>
	<path d="M8.166,78.604c1.52-2.517,5.065-0.992,4.517,1.805C12.208,82.94,7.152,82.289,8.166,78.604z M8.77,79.654
		c0.079,0.881,1.376,1.587,2.573,1.208C13.51,78.307,8.536,77.014,8.77,79.654z"/>
	<path d="M162.354,83.567c0.735,0.916,2.353,1.176,1.812,3.017c-0.616,2.105-4.704,1.467-4.522-0.9
		c0.076-0.905,0.616-1.051,1.369-1.816c-0.6-0.869-1.297-0.775-1.521-1.5c-1.008-3.515,4.34-3.876,4.521-1.053
		C164.087,82.37,163.093,82.982,162.354,83.567z M160.254,81.014c0.001,1.407,1.821,2.258,2.7,1.054
		C163.498,79.826,160.861,79.705,160.254,81.014z M160.558,86.434c1.17,1.846,3.74-0.437,2.094-1.809
		C161.381,84.641,160.476,85.043,160.558,86.434z"/>
	<path d="M7.274,85.685c0-0.706,0-1.41,0-2.117c1.366-1.812,4.559-0.779,4.659,1.208C12.062,87.153,8.26,88.153,7.274,85.685z
		 M8.316,85.985c0.503,0.215,1.283,0.141,1.976,0.15C13.199,83.325,6.238,82.547,8.316,85.985z"/>
	<path d="M8.77,92.601c-0.538-0.974-0.849-1.467-0.753-2.55c0.306-3.191,5.415-1.984,4.364,1.199
		C11.983,92.532,10.243,92.983,8.77,92.601z M11.934,90.201c-0.173-0.884-1.56-1.39-2.555-0.905
		C6.21,90.846,12.595,93.526,11.934,90.201z"/>
	<path d="M159.189,90.801c-0.39-3.192,4.364-3.039,4.672-0.901C164.283,92.744,160.25,92.868,159.189,90.801z M160.254,90.801
		c0.382,1.355,2.818,1.089,2.7-0.75C162.183,88.442,159.794,89.147,160.254,90.801z"/>
	<path d="M160.408,93.057c0.973-0.219,2.699,0.207,2.998,1.21c0.512,1.663-1.631,3.189-3.151,2.854
		C158.584,96.753,158.117,93.564,160.408,93.057z M161.614,96.365c0.537-0.364,0.86-0.94,0.74-1.948
		C160.041,92.141,158.261,96.446,161.614,96.365z"/>
	<path d="M12.683,94.566c1.066,3.323-3.529,3.521-4.666,1.95c0.087-0.863,0.333-1.581,0.451-2.398
		C9.522,92.857,12.044,93.135,12.683,94.566z M9.226,94.866c-0.004,0.62-0.017,1.236,0.153,1.65
		c1.831,1.141,3.424-1.144,1.816-2.249C10.156,94.096,9.81,94.586,9.226,94.866z"/>
	<path d="M159.34,97.728c1.224-0.312,3.136,0.546,3.163,1.954c0.059,2.19-3.971,2.432-4.509,0.6
		C157.634,99.032,158.035,98.057,159.34,97.728z M158.585,99.534c-0.062,0.953,0.663,1.566,2.125,1.349
		C162.867,98.768,158.767,97.248,158.585,99.534z"/>
	<path d="M13.29,99.383c0.314,2.48-0.912,3.408-3.148,3.316c-0.916-0.682-1.685-1.812-1.372-3.018
		C9.25,97.885,12.519,97.685,13.29,99.383z M9.836,101.489c0.611,0.226,1.539,0.479,2.245,0.151
		C14.284,98.672,8.076,98.004,9.836,101.489z"/>
	<path d="M157.25,106.161c-0.749-0.576-1.17-1.908-0.754-3.162c1.279-1.227,3.746-1.059,4.365,0.601
		C161.338,106.127,159.34,106.702,157.25,106.161z M157.1,104.348c0.091,1.961,3.488,1.549,2.849-0.6
		c-0.221-0.719-1.133-0.955-1.809-0.75C157.126,103.297,157.075,104.036,157.1,104.348z"/>
	<path d="M14.962,106.766c-0.688,0.676-1.521,1.533-2.581,1.496c-4.304-0.109-1.089-7.131,1.978-4.365
		C14.965,104.448,14.885,105.204,14.962,106.766z M11.343,105.098c0,0.455,0,0.911,0,1.367
		C15.007,109.014,14.284,102.098,11.343,105.098z"/>
	<path d="M159.492,108.113c0.166,1.328-0.202,2.11-0.756,2.718c-1.026-0.102-1.961,0.395-2.85,0
		C153.164,107.995,157.976,104.885,159.492,108.113z M155.886,109.012c0.152,1.496,2.908,1.516,2.699-0.6
		C157.814,107.053,155.74,107.692,155.886,109.012z"/>
	<path d="M16.747,110.225c0.458,2.117-1.679,3.887-3.457,3.002C10.198,111.709,14.795,106.09,16.747,110.225z M14.661,112.627
		c0.776-0.005,1.305-0.867,1.488-1.797C14.498,107.592,11.697,112.652,14.661,112.627z"/>
	<path d="M157.401,115.198c-0.759,0.371-1.907,0.328-2.729,0c-3.231-2.305,2.018-5.963,3.176-2.42
		C157.916,113.816,157.806,114.67,157.401,115.198z M155.733,114.745c0.837-0.007,1.302-0.704,1.216-1.967
		C154.581,110.838,153.508,114.758,155.733,114.745z"/>
	<path d="M19.329,114.594c-0.153,0.998-0.291,2.018-0.753,2.699c2.838,0.031,3.625,3.531,1.493,4.973
		c1.232,0.137,2.633,0.086,3.177,0.914c0.085,1.143-0.11,2-0.454,2.695c0.605,0,1.196,0,1.787,0c0.9,0.596,1.822,1.993,1.055,3.312
		c2.006,0.355,3.754,0.618,3.458,2.877c-0.454,3.633-6.438,1.78-3.914-1.823c-1.004,0.077-2.304,0.595-3.149-0.452
		c-0.685-0.799-0.546-2.111,0-3.154c-0.569-0.462-1.367,0.148-2.108,0c-1.105-0.521-1.461-3.016-0.442-3.912
		c-0.617-0.689-2.044-0.594-2.58-1.363c-0.475-1.27,0.222-2.445,0.761-3.156c-0.613-0.297-1.533-0.275-2.249-0.458
		C12.673,115.286,17.475,111.613,19.329,114.594z M15.558,115.95c0.128,1.408,3.139,1.688,2.712-0.752
		C17.279,114.206,15.43,114.596,15.558,115.95z M20.512,119.714c-0.115-0.864-1.167-1.209-1.937-0.904
		C15.433,120.03,21.033,122.984,20.512,119.714z M19.92,125.122c0.322,0.505,1.109,0.516,1.955,0.453
		c0.382-0.414,0.76-0.855,0.612-1.793C21.714,122.702,19.255,123.016,19.92,125.122z M22.487,128.297
		c0.077,1.176,1.83,1.25,2.691,0.447C25.517,126.091,22.399,126.815,22.487,128.297z M25.939,130.7
		c-0.988,1.071-0.154,2.531,1.673,2.111c0.244-0.499,0.746-0.742,0.591-1.654C27.755,130.375,27.013,130.758,25.939,130.7z"/>
	<path d="M153.779,115.499c1.486-0.186,3.414,1.98,1.801,3.615C153.178,121.552,149.679,115.977,153.779,115.499z M152.734,117.444
		c-0.137,1.526,2.527,1.895,2.541,0.151c0.02-0.951-0.864-1.437-1.791-1.052C152.816,116.823,152.746,117.005,152.734,117.444z"/>
	<path d="M152.886,123.481c-0.791,0.409-1.766-0.113-2.584-0.152c-3.037-2.895,2.655-5.918,3.477-2.719
		C154.104,121.834,153.372,122.723,152.886,123.481z M150.155,121.81c0.786,1.21,3.276,1.214,2.88-1.052
		C152.277,119.784,149.779,119.959,150.155,121.81z"/>
	<path d="M146.841,126.787c-1.217-6.216,7.041-2.19,3.611,0.761C149.446,128.411,147.375,128.01,146.841,126.787z M150.302,125.424
		c-0.17-1.433-3.152-1.561-2.85,0.754C148.369,127.469,150.517,126.936,150.302,125.424z"/>
	<path d="M146.841,132.364c-1.609,0.154-2.533-0.365-3.146-1.207c-1.305-4.188,4.83-4.399,4.369-0.609
		C147.98,131.254,147.486,131.625,146.841,132.364z M144.302,130.242c0.155,1.913,3.28,1.373,2.845-0.452
		c-0.146-0.598-0.743-1.217-1.946-0.75C144.568,129.286,144.254,129.885,144.302,130.242z"/>
	<path d="M144.302,135.979c-1.788,0.388-3.425-0.002-3.762-1.064C138.804,129.927,147.529,131.64,144.302,135.979z M141.134,134.004
		c0.105,1.527,3.086,1.748,2.713-0.75C142.853,132.157,141.051,132.838,141.134,134.004z"/>
	<path d="M31.829,137.768c-0.83,0.432-2.051,0.355-2.887,0c-0.406-1.089-0.97-1.541-0.886-2.396
		c0.221-2.453,4.399-2.656,4.805-0.457C33.068,135.979,32.125,136.837,31.829,137.768z M31.977,135.678
		c-0.059-0.906-0.817-1.609-1.974-1.067C27.24,135.924,32.142,138.68,31.977,135.678z"/>
	<path d="M140.689,135.678c0.477,0.703,0.902,1.481,0.74,2.844c-0.841,1.678-3.562,1.328-4.363-0.151
		c-0.117-1.242,0.338-1.979,0.589-2.847C138.641,135.059,139.736,135.317,140.689,135.678z M140.541,137.026
		c-0.212-0.659-0.986-0.903-1.674-0.596C135.8,137.825,141.318,139.873,140.541,137.026z"/>
	<path d="M32.566,141.686c-0.563-0.488-0.73-1.35-1.038-2.098c0.375-1.762,1.873-3.062,3.608-2.119
		C37.246,138.655,35.684,143.044,32.566,141.686z M35.29,139.132c-0.836-2.833-5.22,1.915-0.612,1.517
		C34.983,140.125,35.476,139.826,35.29,139.132z"/>
	<path d="M136.173,143.194c-2.979,0.565-3.287-4.133-1.219-4.672C137.642,137.827,139.373,141.977,136.173,143.194z
		 M137.066,140.649c-0.039-0.742-0.424-1.287-1.498-1.059C131.968,140.317,137.207,143.88,137.066,140.649z"/>
	<path d="M39.659,141.538c0.068,2.007-0.611,3.529-1.985,3.77C32.669,146.184,36.272,137.433,39.659,141.538z M38.741,142.891
		c-0.026-1.145-2.301-1.912-2.697-0.153C36.366,144.268,38.8,144.516,38.741,142.891z"/>
	<path d="M130.74,146.651c-0.92-0.607-1.297-2.149-0.918-3.608C133.194,139.28,136.845,147.768,130.74,146.651z M130.433,144.713
		c0.536,1.322,3.256,1.504,2.711-0.908C132.292,142.92,130.433,143.181,130.433,144.713z"/>
	<path d="M43.57,145.015c0.079,1.184-0.151,2.081-0.459,2.855c-1.84,1.714-4.983,0.002-4.064-2.563
		C39.738,143.297,42.421,142.984,43.57,145.015z M41.889,147.413c0.43-0.452,0.836-0.91,0.762-1.81
		C40.328,143.59,38.95,147.346,41.889,147.413z"/>
	<path d="M126.675,145.307c3.986-1.196,3.758,4.644,0.764,4.512C125.066,149.713,124.146,146.063,126.675,145.307z M125.91,147.565
		c0.152,1.707,3.526,1.467,2.725-0.914C127.527,145.665,125.832,146.383,125.91,147.565z"/>
	<path d="M47.48,147.107c0.276,0.737,0.081,1.913,0.153,2.86c-1.513,2.482-4.906,0.802-4.215-1.945
		C43.783,146.567,46.177,145.875,47.48,147.107z M47.021,148.631c-0.137-0.787-1.202-1.264-2.104-0.761
		C42.513,149.171,47.481,151.417,47.021,148.631z"/>
	<path d="M121.087,149.229c1.372-2.926,5.778-0.846,4.07,2.551C123.537,153.553,120.539,152.241,121.087,149.229z M122,150.415
		c0.21,1.67,2.836,1.144,2.715-0.447c-0.033-0.56-0.568-1.131-1.338-1.035C122.604,149.016,121.919,149.559,122,150.415z"/>
	<path d="M49.427,148.932c3.344-0.681,2.734,4.996,0,4.807C46.867,153.55,46.905,149.418,49.427,148.932z M48.543,151.627
		c0.337,0.455,0.854,0.751,1.474,0.916c0.429-0.4,0.99-0.635,1.067-1.372C50.753,150.024,48.171,149.495,48.543,151.627z"/>
	<path d="M117.628,150.715c3.725-2.208,5.061,4.393,1.834,4.52C117.534,155.311,116.183,152.467,117.628,150.715z M117.935,153.148
		c0.408,1.313,2.752,0.933,2.416-0.757c-0.134-0.767-0.958-0.992-1.344-0.916C117.933,151.68,117.707,152.391,117.935,153.148z"/>
	<path d="M56.22,153.444c0.307,0.104,0.767-0.951,1.196-1.205c3.175-0.761,3.329,3.761,1.488,4.674
		c-0.713-0.027-1.574,0.079-2.078-0.151c-0.273-0.763-0.638-1.382-0.759-2.282c-0.766,0.902-2.983,1.399-3.757,0.15
		c-1.57-2.382,1.775-5.986,3.604-3.306C56.285,151.861,56.145,152.35,56.22,153.444z M55.454,152.543
		c-0.307-1.018-2.839-1.246-2.548,0.753C53.626,154.751,55.914,154.073,55.454,152.543z M56.974,154.932
		c0.347,1.324,3.386,0.895,2.543-1.044C58.333,153.164,56.604,153.622,56.974,154.932z"/>
	<path d="M116.429,156.761c-1.943,1.384-4.669-0.181-4.066-2.577c0.284-1.154,2.277-1.987,3.479-1.338
		C117.013,153.465,116.635,155.032,116.429,156.761z M115.99,154.78c-0.246-2.367-4.725-0.159-1.964,1.523
		C115.099,156.098,116.095,155.845,115.99,154.78z"/>
	<path d="M64.5,154.036c1.458,1.983-0.054,4.939-2.132,4.658c-1.548-0.17-2.083-2.635-1.178-4.362
		C62.201,154.062,63.427,153.465,64.5,154.036z M64.347,156.151c0-1.594-2.774-1.841-2.863,0.305
		C62.123,157.837,64.334,157.452,64.347,156.151z"/>
	<path d="M111.332,158.997c-2.088,0.371-3.439-0.766-3.478-2.389c-0.038-1.84,1.954-3.129,3.625-1.676
		C112.316,155.69,112.346,158.226,111.332,158.997z M110.267,158.102c1.381-0.166,1.451-3.177-0.766-2.409
		C107.816,156.301,108.994,158.239,110.267,158.102z"/>
	<path d="M65.7,159.451c-0.28-0.804-0.115-2.099-0.147-3.147c3.088-4.129,6.308,3.975,1.785,3.91
		C66.551,160.211,66.372,159.839,65.7,159.451z M66.141,158.102c0.352,1.145,3.138,1.072,2.883-0.887
		C68.137,155.841,65.651,156.538,66.141,158.102z"/>
	<path d="M106.359,160.368c-0.689-0.002-1.471,0.074-1.984-0.154c-0.775-0.619-0.775-1.994-0.736-3.452
		C105.746,153.191,109.656,158.751,106.359,160.368z M104.227,158.844c0.556,0.283,1.233,0.378,2.132,0.303
		C108.66,157.086,103.599,155.385,104.227,158.844z"/>
	<path d="M71.095,161.131c-2.608-2.635,0.842-7.008,3.182-3.618C74.927,159.899,73.69,161.979,71.095,161.131z M71.707,159.909
		c1.103-0.002,1.795-0.408,1.98-1.363C72.868,156.438,69.484,158.606,71.707,159.909z"/>
	<path d="M98.832,159.909c-0.982-5.229,5.994-3.167,4.069,0.459C101.986,162.084,99.537,161.975,98.832,159.909z M102.296,158.545
		c-0.154-0.554-0.719-1.152-1.84-0.738C97.146,159.017,103.194,161.982,102.296,158.545z"/>
	<path d="M95.354,162.022c-0.749-0.963-1.567-2.863-0.736-4.067c1.469-2.187,5.192,0.573,3.309,3.327
		C97.236,161.671,96.695,162.223,95.354,162.022z M97.773,159.297c-0.153-0.876-1.305-1.031-1.83-0.9
		C92.494,159.393,98.161,162.208,97.773,159.297z"/>
	<path d="M84.662,159.603c0.998-0.521,0.996-1.692,2.114-1.796c1.874-0.16,3.331,2.278,1.95,4.215c-1.066,0-2.097,0-3.144,0
		c-0.229-0.539-0.535-0.965-0.613-1.654c-0.778,0.225-0.688,1.306-1.376,1.654c-0.736,0-1.474,0-2.225,0
		C77.841,159.07,83.975,154.784,84.662,159.603z M81.061,159.909c0.076,1.377,2.955,1.612,2.835-0.458
		C83.209,158.067,80.952,158.536,81.061,159.909z M85.735,160.672c0.638,1.113,2.823,0.908,2.684-0.764
		C87.791,158.588,85.582,158.859,85.735,160.672z"/>
	<path d="M90.697,162.022c-0.896-0.645-1.203-1.809-1.051-3.477C92.253,154.306,97.002,162.524,90.697,162.022z M90.402,158.997
		c-0.063,0.602-0.012,1.136,0.146,1.523C94.015,162.289,93.327,157.092,90.402,158.997z"/>
	<path d="M78.787,157.661c1.657,1.625,1.396,5.319-2.404,4.361C74.467,160.417,75.463,156.397,78.787,157.661z M79.082,159.603
		c-0.016-0.78-0.781-1.47-2.084-0.909C74.237,159.938,79.178,162.202,79.082,159.603z"/>
</g>
</svg>
